<svg xmlns="http://www.w3.org/2000/svg" width="177" height="190" viewBox="0 0 177 190" fill="none">
  <path d="M152.184 13.6914L142.787 79.8362L99.3828 97.5932L108.78 31.4483L152.184 13.6914Z" stroke="url(#paint0_linear_1006_45796)"/>
  <path d="M199.169 106.472L155.765 124.229L99.3828 97.5932L142.787 79.8362L199.169 106.472Z" stroke="url(#paint1_linear_1006_45796)"/>
  <path d="M199.171 106.472L105.201 167.947L61.7969 185.703L95.7607 163.489L155.767 124.229L199.171 106.472Z" stroke="url(#paint2_linear_1006_45796)"/>
  <path d="M155.766 124.229L95.7601 163.489L61.7963 185.703L43.0022 176.825L52.3992 119.506L5.41406 97.3093L89.9873 22.5698L105.179 29.7438L108.781 31.4483L99.3843 97.5932L155.766 124.229Z" stroke="url(#paint3_linear_1006_45796)"/>
  <path d="M152.187 13.6915L108.782 31.4484L105.18 29.7439L89.9883 22.5699L133.393 4.81299L152.187 13.6915Z" stroke="url(#paint4_linear_1006_45796)"/>
  <defs>
    <linearGradient id="paint0_linear_1006_45796" x1="102.361" y1="-0.392106" x2="164.522" y2="6.43581" gradientUnits="userSpaceOnUse">
      <stop stop-color="#667085"/>
      <stop offset="0.497" stop-color="#98A2B3"/>
      <stop offset="0.825381" stop-color="#475467"/>
    </linearGradient>
    <linearGradient id="paint1_linear_1006_45796" x1="105.011" y1="72.3846" x2="208.045" y2="112.808" gradientUnits="userSpaceOnUse">
      <stop stop-color="#667085"/>
      <stop offset="0.497" stop-color="#98A2B3"/>
      <stop offset="0.825381" stop-color="#475467"/>
    </linearGradient>
    <linearGradient id="paint2_linear_1006_45796" x1="69.5451" y1="93.1722" x2="219.491" y2="138.55" gradientUnits="userSpaceOnUse">
      <stop stop-color="#667085"/>
      <stop offset="0.497" stop-color="#98A2B3"/>
      <stop offset="0.825381" stop-color="#475467"/>
    </linearGradient>
    <linearGradient id="paint3_linear_1006_45796" x1="13.8943" y1="-4.8132" x2="188.517" y2="23.2775" gradientUnits="userSpaceOnUse">
      <stop stop-color="#667085"/>
      <stop offset="0.497" stop-color="#98A2B3"/>
      <stop offset="0.825381" stop-color="#475467"/>
    </linearGradient>
    <linearGradient id="paint4_linear_1006_45796" x1="93.4964" y1="0.342042" x2="157.047" y2="26.244" gradientUnits="userSpaceOnUse">
      <stop stop-color="#667085"/>
      <stop offset="0.497" stop-color="#98A2B3"/>
      <stop offset="0.825381" stop-color="#475467"/>
    </linearGradient>
  </defs>
</svg>