<svg xmlns="http://www.w3.org/2000/svg" width="25" height="17" viewBox="0 0 25 17" fill="none">
  <mask id="mask0_960_30324" style="mask-type:luminance" maskUnits="userSpaceOnUse" x="0" y="0" width="25" height="17">
    <path d="M0 0.5H24.7027V16.5H0V0.5Z" fill="white"/>
  </mask>
  <g mask="url(#mask0_960_30324)">
    <path d="M23.741 6.91403L15.5438 0.77214C14.3213 0.0677483 12.798 0.949505 12.798 2.35829V3.24469C12.798 3.51074 12.5666 3.71766 12.3001 3.68304L1.96864 2.368C0.889253 2.368 0.0117188 3.23962 0.0117188 4.32324V12.6771C0.0117188 13.7557 0.889253 14.6324 1.96864 14.6324L12.3251 13.9233C12.5814 13.9035 12.798 14.1104 12.798 14.3663V14.6421C12.798 16.0509 14.3213 16.9326 15.5438 16.2282L23.741 10.0813C24.9636 9.37687 24.9636 7.61842 23.741 6.91403Z" fill="white"/>
  </g>
  <mask id="mask1_960_30324" style="mask-type:luminance" maskUnits="userSpaceOnUse" x="0" y="10" width="24" height="7">
    <path d="M0 10.0127H23.8378V16.4992H0V10.0127Z" fill="white"/>
  </mask>
  <g mask="url(#mask1_960_30324)">
    <path d="M16.2685 14.3023C14.9425 15.0659 13.2862 14.1102 13.2862 12.5781C13.2862 12.1351 12.9116 11.7854 12.4729 11.8197L2.01299 13.4599C1.71738 13.5042 1.41163 13.5093 1.11096 13.4649C0.0117188 13.2876 0.0117188 12.5735 0.0117188 11.9476V12.6769C0.0117188 13.7555 0.889252 14.6322 1.96864 14.6322L12.3001 13.9231C12.5713 13.9033 12.798 14.1199 12.798 14.386V14.6372C12.798 16.046 14.3213 16.9273 15.5438 16.2229L23.741 10.0811L16.2685 14.3023Z" fill="#0075C9"/>
  </g>
  <path d="M15.163 2.37268C15.7103 1.72741 16.5135 2.27387 17.3712 2.99811C18.2242 3.72192 18.8057 4.34777 18.2585 4.99304C17.7116 5.63789 16.5777 5.56905 15.7251 4.84988C14.8721 4.12606 14.6208 3.01753 15.163 2.37268Z" fill="#0075C9"/>
  <path d="M19.7818 5.66809C19.7818 5.69723 19.7788 5.72636 19.7733 5.75466C19.7678 5.78337 19.7594 5.81082 19.748 5.83785C19.737 5.86488 19.7231 5.89022 19.707 5.91471C19.691 5.93878 19.6724 5.96116 19.6517 5.98185C19.6314 6.00212 19.6091 6.02071 19.5846 6.03675C19.5605 6.05322 19.5347 6.06674 19.5081 6.07772C19.4811 6.08912 19.4532 6.09756 19.4249 6.10305C19.3962 6.10854 19.3675 6.1115 19.3384 6.1115C19.3092 6.1115 19.2801 6.10854 19.2518 6.10305C19.2231 6.09756 19.1952 6.08912 19.1686 6.07772C19.1416 6.06674 19.1158 6.05322 19.0917 6.03675C19.0677 6.02071 19.0453 6.00212 19.0246 5.98185C19.0039 5.96116 18.9857 5.93878 18.9693 5.91471C18.9532 5.89022 18.9397 5.86488 18.9283 5.83785C18.9173 5.81082 18.9089 5.78337 18.903 5.75466C18.8975 5.72636 18.8945 5.69723 18.8945 5.66809C18.8945 5.63937 18.8975 5.61023 18.903 5.58194C18.9089 5.55322 18.9173 5.52535 18.9283 5.49875C18.9397 5.47172 18.9532 5.44638 18.9693 5.42189C18.9857 5.39782 19.0039 5.37544 19.0246 5.35474C19.0453 5.33405 19.0677 5.31589 19.0917 5.29984C19.1158 5.28337 19.1416 5.26986 19.1686 5.25888C19.1952 5.24748 19.2231 5.23903 19.2518 5.23354C19.2801 5.22763 19.3092 5.2251 19.3384 5.2251C19.3675 5.2251 19.3962 5.22763 19.4249 5.23354C19.4532 5.23903 19.4811 5.24748 19.5081 5.25888C19.5347 5.26986 19.5605 5.28337 19.5846 5.29984C19.6091 5.31589 19.6314 5.33405 19.6517 5.35474C19.6724 5.37544 19.691 5.39782 19.707 5.42189C19.7231 5.44638 19.737 5.47172 19.748 5.49875C19.7594 5.52535 19.7678 5.55322 19.7733 5.58194C19.7788 5.61023 19.7818 5.63937 19.7818 5.66809Z" fill="#0075C9"/>
</svg>