<svg xmlns="http://www.w3.org/2000/svg" width="100" height="100" viewBox="0 0 100 100" fill="none">
  <path d="M98.0451 50.0027C98.0451 76.5423 76.5377 98.0509 49.9997 98.0509C23.4617 98.0509 1.94824 76.5423 1.94824 50.0027C1.94824 23.463 23.4617 1.94824 49.9997 1.94824C76.5377 1.94824 98.0451 23.463 98.0451 50.0027Z" fill="#FAD517"/>
  <mask id="mask0_858_15026" style="mask-type:luminance" maskUnits="userSpaceOnUse" x="0" y="0" width="100" height="100">
    <path d="M0 0H100V100H0V0Z" fill="white"/>
  </mask>
  <g mask="url(#mask0_858_15026)">
    <path d="M96.0971 50.0034C96.0971 51.2841 96.0481 52.5587 95.9439 53.8394C95.901 54.4584 95.8397 55.0773 95.7662 55.6901C95.7478 55.8432 95.7294 55.9964 95.7111 56.1496C95.662 56.5112 95.7723 55.7207 95.6988 56.2232C95.6559 56.5296 95.613 56.8298 95.564 57.1362C95.1718 59.5751 94.5897 61.9895 93.8238 64.3425C93.4561 65.4823 93.0456 66.6098 92.5861 67.7128C92.5554 67.7925 92.5248 67.8722 92.488 67.9518C92.4084 68.1541 92.5615 67.7741 92.5615 67.7803C92.5493 67.9089 92.439 68.0683 92.3838 68.1908C92.2613 68.485 92.1265 68.773 91.9978 69.0671C91.7466 69.6063 91.4892 70.1395 91.2196 70.6726C90.1473 72.7989 88.9096 74.8456 87.5309 76.7943C87.3593 77.0333 87.1878 77.2723 87.0101 77.5112C86.863 77.7073 86.6547 78.1424 86.4402 78.265C86.4402 78.265 86.6853 77.9524 86.5566 78.1179C86.5137 78.1669 86.477 78.2159 86.4402 78.265C86.3483 78.3814 86.2564 78.4978 86.1645 78.6143C85.9684 78.8594 85.7662 79.1045 85.564 79.3435C84.8164 80.2504 84.0321 81.1267 83.211 81.9723C82.3838 82.8302 81.5199 83.6636 80.6314 84.4602C80.1902 84.8524 79.7429 85.2384 79.2956 85.6122C79.0689 85.8022 78.8361 85.986 78.6093 86.1699C78.4929 86.2618 78.3765 86.3537 78.2601 86.4456C78.211 86.4824 78.162 86.5191 78.113 86.562C77.9169 86.7152 78.5052 86.2679 78.162 86.5253C76.2564 87.9653 74.2711 89.2767 72.1816 90.4287C71.1216 91.0108 70.0432 91.5501 68.9463 92.0526C68.6951 92.169 68.4378 92.2793 68.1865 92.3896C68.064 92.4448 67.9047 92.5551 67.776 92.5673C67.7699 92.5673 68.1498 92.4141 67.9476 92.4938C67.8495 92.5367 67.7515 92.5796 67.6535 92.6163C67.0958 92.8431 66.5383 93.0575 65.9807 93.2659C63.689 94.1054 61.3299 94.7672 58.9402 95.2452C58.3152 95.3677 57.6963 95.478 57.0652 95.5761C56.7833 95.6251 56.5015 95.668 56.2196 95.7048C55.7172 95.7783 56.5076 95.668 56.1461 95.717C55.9745 95.7354 55.7968 95.7599 55.6191 95.7783C54.363 95.9254 53.0946 96.0234 51.8262 96.0724C49.2956 96.1643 46.7588 96.0602 44.2466 95.7599C44.0934 95.7415 43.9402 95.7231 43.787 95.7048C43.5603 95.6802 43.9831 95.7293 43.977 95.7293C43.9096 95.7415 43.7748 95.7048 43.7135 95.6986C43.4071 95.6496 43.1069 95.6067 42.8005 95.5577C42.2 95.4596 41.5934 95.3493 40.9929 95.2268C39.7797 94.9878 38.5787 94.6937 37.39 94.3566C36.2135 94.0257 35.0493 93.6458 33.8973 93.223C33.3397 93.0146 32.7821 92.8002 32.2307 92.5673C32.1755 92.5489 32.0223 92.506 31.9917 92.4693C31.9856 92.4693 32.3655 92.6347 32.1632 92.5428C32.0284 92.4815 31.8875 92.4264 31.7527 92.3651C31.4831 92.2487 31.2074 92.1261 30.9378 92.0035C28.7503 90.9925 26.6363 89.822 24.6204 88.4984C24.124 88.1737 23.64 87.8366 23.162 87.4996C22.9169 87.328 22.6841 87.1564 22.4451 86.9787C22.249 86.8317 21.863 86.654 21.7405 86.4456C21.8691 86.654 21.9978 86.6478 21.8324 86.5191C21.7833 86.4824 21.7343 86.4456 21.6853 86.4027C21.5689 86.3108 21.4525 86.2189 21.3422 86.1331C21.0971 85.9309 20.852 85.7348 20.6069 85.5326C20.1596 85.1526 19.7123 84.7727 19.2772 84.3744C17.5125 82.7934 15.8642 81.0776 14.3507 79.2515C14.1669 79.0248 13.977 78.792 13.7931 78.5652C13.7012 78.4488 13.6155 78.3324 13.5235 78.2159C13.4929 78.1792 13.4194 78.1179 13.4071 78.0689C13.4316 78.1485 13.64 78.3753 13.4806 78.1669C13.113 77.6767 12.7454 77.1865 12.3961 76.6901C11.7037 75.7097 11.048 74.6986 10.4292 73.6691C9.82256 72.6519 9.25271 71.6163 8.71962 70.5562C8.45614 70.023 8.19878 69.4899 7.94756 68.9507C7.82501 68.681 7.70246 68.4053 7.58604 68.1357C7.5554 68.0621 7.37771 67.5964 7.48187 67.8967C7.58604 68.1847 7.38996 67.6638 7.35932 67.5964C6.44633 65.3475 5.70491 63.0251 5.14119 60.6658C4.8532 59.4525 4.6081 58.2331 4.41815 57.0075C4.37526 56.7257 4.33236 56.4376 4.28947 56.1558C4.24045 55.8004 4.33849 56.5418 4.28334 56.0884C4.25883 55.9107 4.24045 55.7329 4.21594 55.5614C4.14854 54.9425 4.08727 54.3235 4.03825 53.7046C3.84829 51.1738 3.85442 48.6308 4.05663 46.1C4.10565 45.4627 4.17305 44.8193 4.25271 44.182C4.27109 44.0288 4.2956 43.8756 4.30785 43.7224C4.30785 43.7163 4.25271 44.1391 4.28334 43.9124C4.28947 43.845 4.30173 43.7837 4.30785 43.7163C4.35687 43.3915 4.40589 43.0667 4.46104 42.742C4.65712 41.5164 4.90834 40.2969 5.20246 39.0898C5.77844 36.7244 6.54437 34.4204 7.45736 32.1715C7.62893 31.7548 7.34707 32.4288 7.488 32.104C7.53702 31.9876 7.58604 31.8712 7.63506 31.7548C7.76374 31.4606 7.89854 31.1726 8.03334 30.8846C8.28457 30.3208 8.55418 29.7693 8.83604 29.224C9.37526 28.1639 9.95124 27.1282 10.564 26.1172C11.1829 25.0877 11.8446 24.0889 12.5431 23.1084C12.7025 22.8878 12.8618 22.6672 13.0272 22.4466C13.113 22.324 13.1988 22.2076 13.2907 22.0912C13.3336 22.036 13.6645 21.5948 13.4806 21.8399C13.3091 22.0728 13.5848 21.7113 13.64 21.6377C13.7319 21.5213 13.8238 21.4049 13.9157 21.2946C14.1118 21.0494 14.3079 20.8043 14.5101 20.5592C16.0358 18.7454 17.6902 17.0357 19.461 15.4609C19.9022 15.0687 20.3495 14.6888 20.803 14.315C21.0297 14.125 21.2564 13.9412 21.4892 13.7573C21.5873 13.6777 21.6853 13.598 21.7833 13.5245C22.151 13.2365 21.526 13.7144 21.8875 13.4448C22.8434 12.7217 23.8238 12.0232 24.8287 11.3675C26.8324 10.0684 28.9341 8.91635 31.1093 7.92364C31.3851 7.80109 31.6547 7.67853 31.9304 7.5621C31.9856 7.53759 32.0468 7.51308 32.102 7.48857C32.3103 7.39665 32.1387 7.37827 31.9917 7.53146C32.0775 7.44567 32.3532 7.38439 32.4635 7.3415C33.0211 7.11477 33.5787 6.9003 34.1424 6.69808C35.2699 6.28751 36.4157 5.91984 37.5799 5.59507C38.7686 5.26416 39.9757 4.97616 41.189 4.73717C41.7895 4.62075 42.39 4.51044 42.9966 4.41853C43.303 4.3695 43.6032 4.32661 43.9096 4.28371C44.1363 4.25307 43.7135 4.30822 43.7196 4.30822C43.8054 4.3021 43.8973 4.28371 43.9831 4.27146C44.1547 4.25307 44.3324 4.22856 44.5101 4.21018C47.0284 3.9283 49.5652 3.83638 52.0958 3.94668C53.3642 4.00183 54.6265 4.10601 55.8826 4.2592C56.0174 4.27146 56.1461 4.29597 56.2809 4.30822C55.7172 4.25307 56.2196 4.3021 56.3483 4.32048C56.6731 4.36337 57.0039 4.41853 57.3287 4.46755C57.9292 4.56559 58.5297 4.68202 59.1302 4.80458C61.5444 5.2948 63.9157 5.96887 66.2196 6.82676C66.7833 7.03511 67.3348 7.25571 67.8863 7.48244C68.211 7.61725 67.5003 7.31699 67.9537 7.51308C68.0701 7.5621 68.1865 7.61112 68.303 7.66627C68.5971 7.79496 68.8851 7.92364 69.1792 8.05845C70.2699 8.56706 71.3483 9.11244 72.4022 9.70071C73.4378 10.2767 74.4488 10.8956 75.4353 11.5452C75.9439 11.8822 76.4463 12.2254 76.9427 12.5808C77.1633 12.7401 77.3838 12.8994 77.6044 13.0649C77.7208 13.1507 77.8434 13.2365 77.9598 13.3284C78.0272 13.3774 78.0946 13.4326 78.162 13.4816C78.3704 13.6409 78.1436 13.4326 78.064 13.408C78.2907 13.4755 78.5664 13.8002 78.7564 13.9534C78.9831 14.1373 79.2098 14.3272 79.4365 14.5111C79.9084 14.9032 80.3618 15.3077 80.8152 15.7121C81.6853 16.5026 82.5309 17.3176 83.3459 18.1694C84.1731 19.0334 84.9635 19.9281 85.7294 20.8534C85.9133 21.0801 86.0971 21.3068 86.2809 21.5397C86.3606 21.6377 86.4402 21.7358 86.5137 21.8338C86.6424 21.9993 86.6485 21.8706 86.4402 21.7419C86.5015 21.7725 86.5566 21.889 86.5934 21.9441C86.9488 22.4098 87.2981 22.8878 87.6351 23.3658C89.026 25.3328 90.2637 27.4101 91.3361 29.561C91.5995 30.0941 91.8569 30.6334 92.102 31.1726C92.2245 31.4422 92.3471 31.718 92.4635 31.9876C92.488 32.0489 92.5125 32.1102 92.537 32.1653C92.6289 32.3675 92.4635 31.9876 92.4635 31.9937C92.5554 32.0734 92.6167 32.3553 92.6596 32.4656C93.1191 33.5992 93.5358 34.7451 93.9035 35.9094C94.651 38.2441 95.2147 40.6401 95.5946 43.0667C95.6314 43.3302 95.7539 43.7101 95.7233 43.9798C95.7233 43.9859 95.6743 43.5631 95.6988 43.7898C95.7111 43.8756 95.7233 43.9614 95.7356 44.0533C95.7539 44.2065 95.7723 44.3597 95.7846 44.5129C95.8581 45.1073 95.9133 45.7017 95.9561 46.3022C96.0542 47.5339 96.0971 48.7656 96.0971 50.0034C96.0971 51.0206 96.9917 52.0011 98.0456 51.9521C99.1057 51.9092 100 51.0942 100 50.0034C99.9941 44.8009 99.1976 39.5739 97.5861 34.6287C96.0358 29.849 93.7748 25.2838 90.8581 21.1904C87.8802 16.999 84.314 13.3223 80.227 10.1909C76.238 7.13315 71.7895 4.73104 67.0775 2.99687C62.2184 1.21367 57.0591 0.239348 51.8936 0.0371298C46.6731 -0.16509 41.3789 0.45995 36.3544 1.88161C31.5137 3.25424 26.8507 5.37447 22.6473 8.13812C18.4745 10.8834 14.6878 14.2353 11.5137 18.0958C8.23555 22.0789 5.60687 26.4787 3.64609 31.2523C1.69143 36.0259 0.5456 41.0936 0.147315 46.2348C-0.263225 51.468 0.18408 56.7931 1.42182 61.8914C2.61055 66.7937 4.57746 71.5427 7.19388 75.8567C9.77967 80.1278 13.015 84.0312 16.7527 87.3464C20.4905 90.6616 24.7061 93.4436 29.2588 95.5025C34.075 97.6779 39.1302 99.0689 44.3753 99.6817C49.6142 100.288 54.939 100.025 60.1044 98.977C65.0738 97.9721 69.89 96.1643 74.3201 93.701C78.6829 91.2743 82.7025 88.1614 86.1461 84.546C89.5836 80.9428 92.5125 76.8188 94.7307 72.3577C97.0039 67.7864 98.6032 62.8902 99.3753 57.847C99.7736 55.2488 99.9941 52.6323 100 50.0034C100 48.9801 99.0995 48.0058 98.0456 48.0486C96.9917 48.0977 96.0971 48.9065 96.0971 50.0034Z" fill="#050607"/>
  </g>
  <path d="M73.9231 56.3938C73.9231 57.5519 73.8434 58.704 73.6964 59.8499C73.7209 59.6783 73.7393 59.5006 73.7638 59.329C73.4574 61.5963 72.8569 63.8084 71.9746 65.9164C72.0358 65.7632 72.1032 65.6039 72.1706 65.4507C71.3005 67.5097 70.167 69.446 68.8067 71.2109C68.9047 71.0822 69.0089 70.9535 69.113 70.8187C67.7527 72.5712 66.178 74.1461 64.4255 75.5065C64.5542 75.4023 64.689 75.3042 64.8177 75.2001C63.0469 76.5666 61.1106 77.6941 59.0579 78.5642C59.2111 78.503 59.3643 78.4356 59.5236 78.3682C57.4157 79.2567 55.1976 79.8572 52.9366 80.1636C53.1081 80.1391 53.2797 80.1146 53.4513 80.0901C51.1657 80.3965 48.8373 80.3965 46.5518 80.0901C46.7233 80.1146 46.8949 80.1391 47.0665 80.1636C44.8054 79.8572 42.5873 79.2567 40.4795 78.3682C40.6326 78.4356 40.792 78.503 40.9451 78.5642C38.8863 77.6941 36.95 76.5666 35.1853 75.2001C35.314 75.3042 35.4488 75.4023 35.5775 75.5065C33.825 74.1461 32.2503 72.5712 30.89 70.8187C30.9942 70.9535 31.0922 71.0822 31.1964 71.2109C29.8361 69.446 28.7025 67.5097 27.8324 65.4507C27.8998 65.6039 27.9611 65.7632 28.0285 65.9164C27.1461 63.8084 26.5395 61.5963 26.2393 59.329C26.2576 59.5006 26.2822 59.6783 26.3067 59.8499C26.1535 58.704 26.0799 57.5519 26.0799 56.3938C26.0738 55.3766 25.1792 54.3961 24.1253 54.4451C23.0714 54.4941 22.1768 55.303 22.1768 56.3938C22.1829 59.2739 22.6179 62.1784 23.5064 64.9176C24.3643 67.5587 25.6081 70.0956 27.2197 72.3629C28.0652 73.5517 28.9844 74.6853 29.9954 75.7332C31.0064 76.7872 32.1094 77.7247 33.2674 78.6133C35.4795 80.3107 37.9488 81.6159 40.5652 82.5718C43.2552 83.5584 46.1228 84.0915 48.9844 84.2018C51.8704 84.3122 54.8054 83.9629 57.5873 83.1724C60.265 82.4187 62.8569 81.2421 65.1853 79.7163C67.4831 78.2027 69.5849 76.3644 71.3373 74.238C72.2687 73.1166 73.1326 71.9339 73.8802 70.6839C74.6339 69.4277 75.2589 68.1163 75.8165 66.7621C76.9072 64.1087 77.526 61.2838 77.7466 58.4221C77.8018 57.748 77.8263 57.074 77.8263 56.3938C77.8263 55.3766 76.9255 54.3961 75.8716 54.4451C74.8177 54.4941 73.9231 55.303 73.9231 56.3938Z" fill="#050607"/>
  <path d="M42.2129 36.6992C42.2129 41.007 40.0069 44.4999 37.2861 44.4999C34.5654 44.4999 32.3594 41.007 32.3594 36.6992C32.3594 32.3913 34.5654 28.8984 37.2861 28.8984C40.0069 28.8984 42.2129 32.3913 42.2129 36.6992Z" fill="#050607"/>
  <path d="M67.6358 36.6992C67.6358 41.007 65.4298 44.4999 62.709 44.4999C59.9944 44.4999 57.7822 41.007 57.7822 36.6992C57.7822 32.3913 59.9944 28.8984 62.709 28.8984C65.4298 28.8984 67.6358 32.3913 67.6358 36.6992Z" fill="#050607"/>
  <path d="M21.4351 57.8463C22.1337 57.6196 22.8323 57.399 23.537 57.1722C24.6522 56.8168 25.7614 56.4614 26.8766 56.106C27.134 56.0263 27.3852 55.9467 27.6365 55.867C28.1206 55.7138 28.5495 55.4074 28.8069 54.9723C28.9478 54.7456 29.0275 54.5005 29.0398 54.2431C29.0949 53.9858 29.0827 53.7223 29.003 53.4649C28.8498 52.9931 28.5557 52.5396 28.1022 52.3006C27.6549 52.0616 27.1034 51.9452 26.6009 52.1045C25.9023 52.3251 25.2037 52.5518 24.499 52.7725C23.3899 53.1279 22.2746 53.4833 21.1594 53.8387C20.9081 53.9184 20.6508 53.998 20.3995 54.0838C19.9154 54.237 19.4926 54.5373 19.2291 54.9785C19.0882 55.1991 19.0146 55.4442 19.0024 55.7016C18.9411 55.965 18.9534 56.2224 19.033 56.4798C19.1862 56.9516 19.4803 57.4112 19.9338 57.6502C20.3873 57.8892 20.9326 58.0056 21.4351 57.8463Z" fill="#050607"/>
  <path d="M79.6042 54.0841C78.9057 53.8573 78.2071 53.6367 77.5024 53.41C76.3871 53.0546 75.278 52.6992 74.1627 52.3438C73.9054 52.2641 73.6541 52.1845 73.3968 52.1048C73.1394 52.0251 72.882 52.0129 72.6247 52.068C72.3612 52.0803 72.1222 52.1599 71.8954 52.3009C71.6687 52.4234 71.4849 52.5889 71.3501 52.8034C71.1785 52.9933 71.0621 53.2139 71.0008 53.4652C70.8843 53.9676 70.9089 54.5253 71.1969 54.9726C71.4787 55.4077 71.8648 55.708 72.3612 55.8673C73.0597 56.0879 73.7644 56.3146 74.463 56.5352C75.5783 56.8906 76.6935 57.246 77.8088 57.6014C78.06 57.6811 78.3113 57.7608 78.5686 57.8466C78.826 57.9262 79.0834 57.9385 79.3469 57.8772C79.6042 57.8649 79.8494 57.7914 80.07 57.6505C80.2967 57.5218 80.4805 57.3563 80.6153 57.148C80.7869 56.958 80.9033 56.7374 80.9646 56.4801C81.0811 55.9837 81.0565 55.4199 80.7685 54.9787C80.4867 54.5437 80.1067 54.2434 79.6042 54.0841Z" fill="#050607"/>
</svg>