<svg width="112" height="30" viewBox="0 0 112 30" fill="none" xmlns="http://www.w3.org/2000/svg">
<path d="M7.5 22.5L22.5 7.5M22.5 7.5H12.5M22.5 7.5V17.5" stroke="white" stroke-width="1.5" stroke-linecap="round" stroke-linejoin="round"/>
<path d="M40.4727 23.3398C40.1992 23.5195 39.8828 23.5234 39.5234 23.3516C39.1719 23.1797 38.9766 22.9336 38.9375 22.6133C38.9297 22.5039 38.9297 22.3945 38.9375 22.2852C38.9453 22.168 38.957 22.0391 38.9727 21.8984C38.9883 21.7578 39 21.6445 39.0078 21.5586C39.1016 20.4883 39.1602 18.9414 39.1836 16.918C39.2148 14.8867 39.2617 13.4102 39.3242 12.4883C39.3867 11.332 39.5469 10.4688 39.8047 9.89844C40.0078 9.42969 40.2852 9.04297 40.6367 8.73828C41.0586 8.38672 41.5625 8.17188 42.1484 8.09375C42.7422 8.01562 43.3555 8.05469 43.9883 8.21094C44.6211 8.35938 45.1914 8.60156 45.6992 8.9375C46.5117 9.48438 47.168 10.1992 47.668 11.082C48.168 11.957 48.4414 12.875 48.4883 13.8359C48.5352 14.4922 48.4453 15.1133 48.2188 15.6992C47.9375 16.4492 47.4766 17.0586 46.8359 17.5273C46.0469 18.1211 45.0312 18.5859 43.7891 18.9219C43.8672 19 44.0508 19.1953 44.3398 19.5078C44.6367 19.8203 44.875 20.0547 45.0547 20.2109C45.7344 20.8047 46.4141 21.168 47.0938 21.3008C47.1875 21.3008 47.2539 21.2812 47.293 21.2422C47.4648 21.1953 47.6641 21.2305 47.8906 21.3477C48.2344 21.5039 48.4102 21.7734 48.418 22.1562C48.4336 22.5391 48.2812 22.8281 47.9609 23.0234C47.5938 23.2422 47.1445 23.2812 46.6133 23.1406C45.7305 22.9219 44.9375 22.5469 44.2344 22.0156C43.9766 21.8203 43.5312 21.4062 42.8984 20.7734C42.75 20.6094 42.5625 20.4258 42.3359 20.2227C42.1172 20.0117 41.9102 19.8477 41.7148 19.7305C41.5898 19.6367 41.3672 19.5586 41.0469 19.4961C41.0312 20.0742 40.9766 20.9766 40.8828 22.2031C40.8828 22.2109 40.8867 22.2422 40.8945 22.2969C40.9023 22.3438 40.9062 22.3711 40.9062 22.3789C40.9531 22.7852 40.8086 23.1055 40.4727 23.3398ZM41.2109 12.7812C41.1641 13.8203 41.125 15.3789 41.0938 17.457C41.6953 17.4258 42.3438 17.3242 43.0391 17.1523C43.7422 16.9805 44.4297 16.7148 45.1016 16.3555C45.7734 15.9883 46.207 15.5781 46.4023 15.125C46.7148 14.4062 46.6836 13.5859 46.3086 12.6641C45.9336 11.7422 45.3945 11.043 44.6914 10.5664C44.0898 10.1445 43.4453 9.94531 42.7578 9.96875C42.3281 9.96875 42.0078 10.0742 41.7969 10.2852C41.6094 10.4727 41.4648 10.8398 41.3633 11.3867C41.2773 11.918 41.2266 12.3828 41.2109 12.7812ZM58.3672 21.9219C57.6875 22.3047 56.957 22.5586 56.1758 22.6836C55.3945 22.8008 54.6289 22.7695 53.8789 22.5898C52.7539 22.3008 51.8125 21.7344 51.0547 20.8906C50.4688 20.2578 50.0742 19.4805 49.8711 18.5586C49.7148 17.8086 49.6953 17.0508 49.8125 16.2852C49.9297 15.5195 50.168 14.7969 50.5273 14.1172C50.9023 13.4688 51.293 12.9805 51.6992 12.6523C52.457 12.043 53.2969 11.7148 54.2188 11.668C54.8516 11.6289 55.4492 11.7109 56.0117 11.9141C56.582 12.1172 57.0273 12.4414 57.3477 12.8867C57.668 13.3242 57.7539 13.8242 57.6055 14.3867C57.4805 14.8477 57.2734 15.2461 56.9844 15.582C56.5391 16.1055 55.875 16.5703 54.9922 16.9766C54.1172 17.3828 53.0195 17.7109 51.6992 17.9609C51.8555 18.7109 52.1758 19.3281 52.6602 19.8125C53.293 20.4219 54.0703 20.7656 54.9922 20.8438C55.7188 20.9062 56.4922 20.7305 57.3125 20.3164C57.3516 20.293 57.5273 20.1719 57.8398 19.9531C58.1133 19.7969 58.3906 19.7773 58.6719 19.8945C58.9531 20.0117 59.1367 20.1992 59.2227 20.457C59.3164 20.707 59.2969 20.9805 59.1641 21.2773C59.0547 21.4727 58.7891 21.6875 58.3672 21.9219ZM52.4375 14.6445C52.2109 14.957 52.0117 15.3984 51.8398 15.9688C52.1758 15.8984 52.5234 15.8125 52.8828 15.7109C53.2422 15.6016 53.6328 15.4648 54.0547 15.3008C54.4766 15.1289 54.8398 14.9258 55.1445 14.6914C55.4492 14.457 55.6445 14.2109 55.7305 13.9531C55.7305 13.9375 55.7383 13.9219 55.7539 13.9062C55.4023 13.6797 54.9883 13.5703 54.5117 13.5781C54.043 13.5859 53.6328 13.6953 53.2812 13.9062C52.9375 14.0938 52.6562 14.3398 52.4375 14.6445ZM65.9727 24.1719C65.2539 24.3359 64.5156 24.3438 63.7578 24.1953C63.0938 24.0469 62.4648 23.7812 61.8711 23.3984C61.2852 23.0234 60.8125 22.5703 60.4531 22.0391C60.1953 21.7188 60.0508 21.4531 60.0195 21.2422C59.9648 20.9609 60.0234 20.7148 60.1953 20.5039C60.3672 20.2852 60.5781 20.1641 60.8281 20.1406C61.0781 20.1172 61.3281 20.1914 61.5781 20.3633C61.6562 20.4336 61.7852 20.6094 61.9648 20.8906C62.2852 21.3359 62.7031 21.6992 63.2188 21.9805C63.7422 22.2539 64.2773 22.3945 64.8242 22.4023C64.9883 22.4023 65.1914 22.375 65.4336 22.3203C65.6758 22.2656 65.8398 22.1953 65.9258 22.1094C65.9961 22.0391 66.0586 21.9219 66.1133 21.7578C66.3086 21.25 66.375 20.6914 66.3125 20.082C66.2578 19.4727 66.0781 18.9414 65.7734 18.4883C65.5 18.0742 65.125 17.7773 64.6484 17.5977C64.3672 17.4961 63.9336 17.3945 63.3477 17.293C62.7617 17.1914 62.332 17.0859 62.0586 16.9766C61.5664 16.7891 61.2148 16.5 61.0039 16.1094C60.793 15.7891 60.6875 15.3945 60.6875 14.9258C60.6875 14.457 60.7695 14.0508 60.9336 13.707C61.2617 12.9883 61.7656 12.4375 62.4453 12.0547C63.1094 11.6641 63.875 11.3906 64.7422 11.2344C65.4609 11.125 66.0781 11.1094 66.5938 11.1875C66.875 11.2344 67.0273 11.2617 67.0508 11.2695C67.3477 11.3789 67.543 11.5703 67.6367 11.8438C67.7305 12.1094 67.707 12.3711 67.5664 12.6289C67.4336 12.8789 67.2148 13.0391 66.9102 13.1094C66.8398 13.1172 66.625 13.1133 66.2656 13.0977C65.9062 13.0742 65.7188 13.0625 65.7031 13.0625C65.1562 13.0859 64.5742 13.2148 63.957 13.4492C63.4883 13.6055 63.1211 13.8594 62.8555 14.2109C62.6914 14.4297 62.6094 14.6641 62.6094 14.9141C62.6094 15.0547 62.6328 15.1328 62.6797 15.1484C62.8672 15.2188 62.9961 15.2617 63.0664 15.2773C63.1758 15.3008 63.4141 15.3477 63.7812 15.418C64.1484 15.4805 64.4492 15.543 64.6836 15.6055C64.9258 15.668 65.1562 15.7422 65.375 15.8281C66.0859 16.125 66.6523 16.5156 67.0742 17C67.5586 17.5703 67.8945 18.2695 68.082 19.0977C68.2695 19.918 68.293 20.7148 68.1523 21.4883C68.0117 22.4023 67.6836 23.0977 67.168 23.5742C66.8945 23.832 66.4961 24.0312 65.9727 24.1719ZM80.9141 22.9766C80.5469 23.2422 80.1094 23.3438 79.6016 23.2812C79.0938 23.2188 78.6914 23.0195 78.3945 22.6836C78.0898 22.3164 77.8906 21.75 77.7969 20.9844C77.7656 20.7578 77.7109 20.0703 77.6328 18.9219C77.3906 19.6484 77.0547 20.3047 76.625 20.8906C76.2188 21.4531 75.7188 21.8711 75.125 22.1445C74.5391 22.4102 73.9023 22.5117 73.2148 22.4492C72.332 22.3633 71.668 22.0508 71.2227 21.5117C70.8008 20.9805 70.457 20.3398 70.1914 19.5898C69.8086 18.543 69.5742 17.2383 69.4883 15.6758C69.4258 14.4727 69.4453 13.1445 69.5469 11.6914C69.5703 11.5352 69.6367 11.3906 69.7461 11.2578C69.8633 11.1172 69.9961 11.0156 70.1445 10.9531C70.4414 10.8047 70.7383 10.8359 71.0352 11.0469C71.3398 11.2578 71.4805 11.5312 71.457 11.8672C71.3398 13.1953 71.332 14.5781 71.4336 16.0156C71.5195 17.5391 71.8242 18.7773 72.3477 19.7305C72.3711 19.7617 72.3984 19.8125 72.4297 19.8828C72.4688 19.9453 72.5 20 72.5234 20.0469C72.5547 20.0859 72.5898 20.1328 72.6289 20.1875C72.668 20.2422 72.7109 20.2852 72.7578 20.3164C72.8984 20.457 73.1406 20.5312 73.4844 20.5391C73.8359 20.5391 74.1055 20.4961 74.293 20.4102C74.6445 20.2773 74.9727 19.957 75.2773 19.4492C75.332 19.3555 75.3867 19.2656 75.4414 19.1797C75.4961 19.0859 75.5469 18.9805 75.5938 18.8633C75.6484 18.7461 75.6914 18.6523 75.7227 18.582C75.7539 18.5039 75.793 18.3945 75.8398 18.2539C75.8945 18.1055 75.9297 18.0078 75.9453 17.9609C75.9688 17.9062 76.0039 17.793 76.0508 17.6211C76.1055 17.4492 76.1367 17.3516 76.1445 17.3281C76.1523 17.2969 76.1836 17.1836 76.2383 16.9883C76.3008 16.793 76.332 16.6914 76.332 16.6836C76.668 15.5508 76.9492 14.3047 77.1758 12.9453C77.1914 12.8828 77.2383 12.6211 77.3164 12.1602C77.3945 11.6992 77.4414 11.4336 77.457 11.3633C77.5273 11.1055 77.6797 10.9258 77.9141 10.8242C78.1562 10.7148 78.4141 10.6953 78.6875 10.7656C78.7969 10.7969 78.9727 10.9141 79.2148 11.1172C79.4102 11.3125 79.4805 11.5781 79.4258 11.9141L79.4023 12.0078C79.418 12.2969 79.4414 13.3242 79.4727 15.0898C79.5117 16.8555 79.5312 17.7891 79.5312 17.8906C79.6172 19.9219 79.7188 21.082 79.8359 21.3711C79.8438 21.3867 79.8516 21.3945 79.8594 21.3945C79.875 21.3867 79.8945 21.3789 79.918 21.3711C79.9414 21.3555 79.9609 21.3477 79.9766 21.3477C80.3438 21.1992 80.6719 21.2578 80.9609 21.5234C81.25 21.7812 81.3477 22.1055 81.2539 22.4961C81.1992 22.7227 81.0859 22.8828 80.9141 22.9766ZM99.6641 23.7148C99.2734 23.7852 98.7852 23.625 98.1992 23.2344C97.793 22.9375 97.4961 22.5156 97.3086 21.9688C97.1055 21.3672 97.0508 20.4648 97.1445 19.2617C97.2773 17.7383 97.332 16.6797 97.3086 16.0859C97.2539 15.1406 97.0469 14.375 96.6875 13.7891C96.5547 13.5234 96.418 13.3555 96.2773 13.2852C95.9336 13.1445 95.5664 13.1367 95.1758 13.2617C94.6602 13.418 94.1562 13.8477 93.6641 14.5508C93.1562 15.2305 92.7266 16.0547 92.375 17.0234C92.3438 17.1016 92.293 17.2852 92.2227 17.5742C92.1523 17.8633 92.0664 18.0703 91.9648 18.1953C91.9727 18.5078 91.9688 18.8594 91.9531 19.25C91.9375 19.6328 91.9219 19.9375 91.9062 20.1641C91.8984 20.3828 91.875 20.7422 91.8359 21.2422C91.7969 21.7422 91.7734 22.0625 91.7656 22.2031C91.7422 22.3828 91.6406 22.5781 91.4609 22.7891C91.1719 23.0781 90.8242 23.1289 90.418 22.9414C90.0117 22.7461 89.8242 22.4453 89.8555 22.0391C89.9258 21.2578 89.9727 20.6172 89.9961 20.1172C90.0273 19.6172 90.043 19.0234 90.043 18.3359C90.043 17.6406 90 16.9883 89.9141 16.3789C89.8281 15.7617 89.6953 15.168 89.5156 14.5977C89.2891 13.8477 88.9688 13.2656 88.5547 12.8516C88.3047 12.6406 88.0977 12.543 87.9336 12.5586C87.793 12.5664 87.5859 12.6484 87.3125 12.8047C87.0391 12.9609 86.8516 13.0938 86.75 13.2031C86.375 13.6094 86.0078 14.2734 85.6484 15.1953C85.5234 15.5156 85.4062 15.8672 85.2969 16.25C85.1875 16.625 85.1016 16.9375 85.0391 17.1875C84.9766 17.4375 84.9023 17.8164 84.8164 18.3242C84.7305 18.8242 84.6758 19.1445 84.6523 19.2852C84.6367 19.4258 84.5859 19.8086 84.5 20.4336C84.4141 21.0508 84.3672 21.3867 84.3594 21.4414C84.3516 21.5195 84.3438 21.6641 84.3359 21.875C84.3359 22.0859 84.3164 22.2461 84.2773 22.3555C84.1758 22.6133 84.0156 22.7891 83.7969 22.8828C83.4531 23.0547 83.1328 23.0312 82.8359 22.8125C82.5391 22.5938 82.3984 22.2891 82.4141 21.8984C82.4219 21.3516 82.4297 20.5273 82.4375 19.4258C82.4453 18.3164 82.4531 17.4844 82.4609 16.9297C82.4688 16.5156 82.4961 15.7383 82.543 14.5977C82.5898 13.457 82.6094 12.5781 82.6016 11.9609C82.6016 11.9297 82.5977 11.8477 82.5898 11.7148C82.582 11.5742 82.582 11.4609 82.5898 11.375C82.5977 11.2812 82.6172 11.1953 82.6484 11.1172C82.7266 10.9062 82.8477 10.7461 83.0117 10.6367C83.1836 10.5195 83.3633 10.4688 83.5508 10.4844C83.7383 10.4922 83.9141 10.5352 84.0781 10.6133C84.2422 10.6914 84.3711 10.8203 84.4648 11C84.5586 11.1797 84.5859 11.3789 84.5469 11.5977C84.5312 11.668 84.5234 12.1562 84.5234 13.0625C84.9609 12.25 85.5039 11.6406 86.1523 11.2344C86.7539 10.8359 87.3633 10.6367 87.9805 10.6367C88.668 10.6367 89.2734 10.8867 89.7969 11.3867C90.5312 12.0977 91.0859 13.1055 91.4609 14.4102C91.9453 13.6289 92.375 13.043 92.75 12.6523C93.2422 12.082 93.8125 11.6914 94.4609 11.4805C95.1328 11.2148 95.8828 11.1914 96.7109 11.4102C97.0234 11.4961 97.3281 11.6562 97.625 11.8906C98.0781 12.2891 98.4453 12.8555 98.7266 13.5898C99.1016 14.5352 99.2773 15.6719 99.2539 17C99.2461 17.2891 99.2031 17.8477 99.125 18.6758C99.0469 19.5039 99.0117 20.1445 99.0195 20.5977C99.0195 21.3945 99.2266 21.8125 99.6406 21.8516C99.8359 21.8516 100.02 21.9375 100.191 22.1094C100.457 22.3828 100.531 22.7031 100.414 23.0703C100.297 23.4453 100.047 23.6602 99.6641 23.7148ZM109.93 21.9219C109.25 22.3047 108.52 22.5586 107.738 22.6836C106.957 22.8008 106.191 22.7695 105.441 22.5898C104.316 22.3008 103.375 21.7344 102.617 20.8906C102.031 20.2578 101.637 19.4805 101.434 18.5586C101.277 17.8086 101.258 17.0508 101.375 16.2852C101.492 15.5195 101.73 14.7969 102.09 14.1172C102.465 13.4688 102.855 12.9805 103.262 12.6523C104.02 12.043 104.859 11.7148 105.781 11.668C106.414 11.6289 107.012 11.7109 107.574 11.9141C108.145 12.1172 108.59 12.4414 108.91 12.8867C109.23 13.3242 109.316 13.8242 109.168 14.3867C109.043 14.8477 108.836 15.2461 108.547 15.582C108.102 16.1055 107.438 16.5703 106.555 16.9766C105.68 17.3828 104.582 17.7109 103.262 17.9609C103.418 18.7109 103.738 19.3281 104.223 19.8125C104.855 20.4219 105.633 20.7656 106.555 20.8438C107.281 20.9062 108.055 20.7305 108.875 20.3164C108.914 20.293 109.09 20.1719 109.402 19.9531C109.676 19.7969 109.953 19.7773 110.234 19.8945C110.516 20.0117 110.699 20.1992 110.785 20.457C110.879 20.707 110.859 20.9805 110.727 21.2773C110.617 21.4727 110.352 21.6875 109.93 21.9219ZM104 14.6445C103.773 14.957 103.574 15.3984 103.402 15.9688C103.738 15.8984 104.086 15.8125 104.445 15.7109C104.805 15.6016 105.195 15.4648 105.617 15.3008C106.039 15.1289 106.402 14.9258 106.707 14.6914C107.012 14.457 107.207 14.2109 107.293 13.9531C107.293 13.9375 107.301 13.9219 107.316 13.9062C106.965 13.6797 106.551 13.5703 106.074 13.5781C105.605 13.5859 105.195 13.6953 104.844 13.9062C104.5 14.0938 104.219 14.3398 104 14.6445Z" fill="white"/>
</svg>
