<svg width="1268" height="97" viewBox="0 0 1268 97" fill="none" xmlns="http://www.w3.org/2000/svg">
<path d="M373.5 36C373.5 45.7027 367.107 54.5662 356.604 61.03C346.108 67.4888 331.577 71.5 315.5 71.5C299.423 71.5 284.892 67.4888 274.396 61.03C263.893 54.5662 257.5 45.7027 257.5 36C257.5 26.2973 263.893 17.4338 274.396 10.97C284.892 4.51117 299.423 0.5 315.5 0.5C331.577 0.5 346.108 4.51117 356.604 10.97C367.107 17.4338 373.5 26.2973 373.5 36Z" fill="#344054" stroke="white"/>
<path d="M555.5 36C555.5 45.7027 549.107 54.5662 538.604 61.03C528.108 67.4888 513.577 71.5 497.5 71.5C481.423 71.5 466.892 67.4888 456.396 61.03C445.893 54.5662 439.5 45.7027 439.5 36C439.5 26.2973 445.893 17.4338 456.396 10.97C466.892 4.51117 481.423 0.5 497.5 0.5C513.577 0.5 528.108 4.51117 538.604 10.97C549.107 17.4338 555.5 26.2973 555.5 36Z" fill="#344054" stroke="white"/>
<path d="M461 36H473M461 32H473M461 40H473" stroke="white" stroke-linecap="round" stroke-linejoin="round"/>
<path d="M488.687 37.15V36.03H493.237C493.237 36.7113 493.134 37.36 492.929 37.976C492.723 38.5827 492.42 39.124 492.019 39.6C491.617 40.076 491.123 40.454 490.535 40.734C489.956 41.0047 489.293 41.14 488.547 41.14C487.837 41.14 487.179 41.0187 486.573 40.776C485.966 40.524 485.439 40.174 484.991 39.726C484.543 39.2687 484.193 38.732 483.941 38.116C483.698 37.5 483.577 36.828 483.577 36.1C483.577 35.372 483.698 34.7 483.941 34.084C484.193 33.468 484.543 32.936 484.991 32.488C485.439 32.0307 485.966 31.6807 486.573 31.438C487.179 31.186 487.837 31.06 488.547 31.06C489.153 31.06 489.709 31.1393 490.213 31.298C490.726 31.4567 491.183 31.69 491.585 31.998C491.995 32.306 492.341 32.6887 492.621 33.146L491.781 33.916C491.473 33.3933 491.043 32.9873 490.493 32.698C489.942 32.3993 489.293 32.25 488.547 32.25C487.856 32.25 487.231 32.4133 486.671 32.74C486.111 33.0667 485.663 33.5193 485.327 34.098C485 34.6673 484.837 35.3347 484.837 36.1C484.837 36.856 485 37.5233 485.327 38.102C485.663 38.6807 486.111 39.1333 486.671 39.46C487.231 39.7867 487.856 39.95 488.547 39.95C489.032 39.95 489.466 39.88 489.849 39.74C490.241 39.5907 490.577 39.3853 490.857 39.124C491.137 38.8627 491.365 38.564 491.543 38.228C491.729 37.892 491.865 37.5327 491.949 37.15H488.687ZM497.26 41.14C496.663 41.14 496.131 41 495.664 40.72C495.207 40.4307 494.847 40.034 494.586 39.53C494.334 39.026 494.208 38.4427 494.208 37.78C494.208 37.108 494.339 36.52 494.6 36.016C494.871 35.512 495.244 35.12 495.72 34.84C496.205 34.56 496.765 34.42 497.4 34.42C498.035 34.42 498.576 34.5553 499.024 34.826C499.481 35.0873 499.831 35.4653 500.074 35.96C500.317 36.4547 500.438 37.0427 500.438 37.724C500.438 37.7893 500.433 37.8593 500.424 37.934C500.424 37.9993 500.424 38.0413 500.424 38.06H494.922V37.108H499.542L499.094 37.752C499.122 37.7053 499.15 37.6353 499.178 37.542C499.206 37.4393 499.22 37.3553 499.22 37.29C499.22 36.9073 499.141 36.576 498.982 36.296C498.833 36.016 498.623 35.7967 498.352 35.638C498.081 35.4793 497.764 35.4 497.4 35.4C496.971 35.4 496.602 35.4933 496.294 35.68C495.995 35.8573 495.762 36.1187 495.594 36.464C495.435 36.8 495.351 37.2153 495.342 37.71C495.342 38.214 495.421 38.6433 495.58 38.998C495.739 39.3527 495.972 39.6233 496.28 39.81C496.588 39.9967 496.961 40.09 497.4 40.09C497.839 40.09 498.226 39.9967 498.562 39.81C498.898 39.614 499.183 39.32 499.416 38.928L500.326 39.502C499.99 40.0433 499.565 40.454 499.052 40.734C498.548 41.0047 497.951 41.14 497.26 41.14ZM500.839 34.56H504.059V35.61H500.839V34.56ZM501.889 32.32H503.009V41H501.889V32.32ZM509.8 36.24V35.12H516.52V36.24H509.8ZM515.722 31.2H516.912V41H515.722V31.2ZM509.142 31.2H510.332V41H509.142V31.2ZM521.417 41.14C520.82 41.14 520.288 41 519.821 40.72C519.364 40.4307 519.005 40.034 518.743 39.53C518.491 39.026 518.365 38.4427 518.365 37.78C518.365 37.108 518.496 36.52 518.757 36.016C519.028 35.512 519.401 35.12 519.877 34.84C520.363 34.56 520.923 34.42 521.557 34.42C522.192 34.42 522.733 34.5553 523.181 34.826C523.639 35.0873 523.989 35.4653 524.231 35.96C524.474 36.4547 524.595 37.0427 524.595 37.724C524.595 37.7893 524.591 37.8593 524.581 37.934C524.581 37.9993 524.581 38.0413 524.581 38.06H519.079V37.108H523.699L523.251 37.752C523.279 37.7053 523.307 37.6353 523.335 37.542C523.363 37.4393 523.377 37.3553 523.377 37.29C523.377 36.9073 523.298 36.576 523.139 36.296C522.99 36.016 522.78 35.7967 522.509 35.638C522.239 35.4793 521.921 35.4 521.557 35.4C521.128 35.4 520.759 35.4933 520.451 35.68C520.153 35.8573 519.919 36.1187 519.751 36.464C519.593 36.8 519.509 37.2153 519.499 37.71C519.499 38.214 519.579 38.6433 519.737 38.998C519.896 39.3527 520.129 39.6233 520.437 39.81C520.745 39.9967 521.119 40.09 521.557 40.09C521.996 40.09 522.383 39.9967 522.719 39.81C523.055 39.614 523.34 39.32 523.573 38.928L524.483 39.502C524.147 40.0433 523.723 40.454 523.209 40.734C522.705 41.0047 522.108 41.14 521.417 41.14ZM525.977 30.08H527.097V41H525.977V30.08ZM530.099 44.08H528.979V34.56H530.099V44.08ZM535.489 37.78C535.489 38.4707 535.344 39.068 535.055 39.572C534.766 40.076 534.378 40.4633 533.893 40.734C533.417 41.0047 532.885 41.14 532.297 41.14C531.765 41.14 531.294 41.0047 530.883 40.734C530.482 40.4633 530.164 40.076 529.931 39.572C529.707 39.068 529.595 38.4707 529.595 37.78C529.595 37.08 529.707 36.4827 529.931 35.988C530.164 35.484 530.482 35.0967 530.883 34.826C531.294 34.5553 531.765 34.42 532.297 34.42C532.885 34.42 533.417 34.5553 533.893 34.826C534.378 35.0967 534.766 35.484 535.055 35.988C535.344 36.4827 535.489 37.08 535.489 37.78ZM534.355 37.78C534.355 37.2853 534.252 36.8653 534.047 36.52C533.851 36.1747 533.585 35.9133 533.249 35.736C532.922 35.5587 532.558 35.47 532.157 35.47C531.83 35.47 531.508 35.5587 531.191 35.736C530.874 35.9133 530.612 36.1747 530.407 36.52C530.202 36.8653 530.099 37.2853 530.099 37.78C530.099 38.2747 530.202 38.6947 530.407 39.04C530.612 39.3853 530.874 39.6467 531.191 39.824C531.508 40.0013 531.83 40.09 532.157 40.09C532.558 40.09 532.922 40.0013 533.249 39.824C533.585 39.6467 533.851 39.3853 534.047 39.04C534.252 38.6947 534.355 38.2747 534.355 37.78Z" fill="white"/>
<path d="M288 36H300M288 32H300M288 40H300" stroke="white" stroke-linecap="round" stroke-linejoin="round"/>
<path d="M312.821 34.378L312.093 41H310.903L312.093 30.71L316.013 37.808L319.933 30.71L321.123 41H319.933L319.205 34.378L316.013 40.09L312.821 34.378ZM322.013 37.78C322.013 37.1267 322.158 36.548 322.447 36.044C322.746 35.54 323.147 35.1433 323.651 34.854C324.155 34.5647 324.72 34.42 325.345 34.42C325.98 34.42 326.545 34.5647 327.039 34.854C327.543 35.1433 327.94 35.54 328.229 36.044C328.528 36.548 328.677 37.1267 328.677 37.78C328.677 38.424 328.528 39.0027 328.229 39.516C327.94 40.02 327.543 40.4167 327.039 40.706C326.545 40.9953 325.98 41.14 325.345 41.14C324.72 41.14 324.155 40.9953 323.651 40.706C323.147 40.4167 322.746 40.02 322.447 39.516C322.158 39.0027 322.013 38.424 322.013 37.78ZM323.147 37.78C323.147 38.228 323.241 38.6247 323.427 38.97C323.623 39.3153 323.885 39.5907 324.211 39.796C324.547 39.992 324.925 40.09 325.345 40.09C325.765 40.09 326.139 39.992 326.465 39.796C326.801 39.5907 327.063 39.3153 327.249 38.97C327.445 38.6247 327.543 38.228 327.543 37.78C327.543 37.332 327.445 36.9353 327.249 36.59C327.063 36.2353 326.801 35.96 326.465 35.764C326.139 35.568 325.765 35.47 325.345 35.47C324.925 35.47 324.547 35.568 324.211 35.764C323.885 35.96 323.623 36.2353 323.427 36.59C323.241 36.9353 323.147 37.332 323.147 37.78ZM331.182 34.56V41H330.062V34.56H331.182ZM333.128 35.792C332.979 35.68 332.843 35.6007 332.722 35.554C332.601 35.498 332.447 35.47 332.26 35.47C331.98 35.47 331.761 35.54 331.602 35.68C331.443 35.82 331.331 36.0113 331.266 36.254C331.21 36.4967 331.182 36.772 331.182 37.08H330.678C330.678 36.5667 330.767 36.114 330.944 35.722C331.131 35.3207 331.369 35.0033 331.658 34.77C331.947 34.5367 332.241 34.42 332.54 34.42C332.773 34.42 332.988 34.4527 333.184 34.518C333.389 34.574 333.576 34.6907 333.744 34.868L333.128 35.792ZM336.994 41.14C336.396 41.14 335.864 41 335.398 40.72C334.94 40.4307 334.581 40.034 334.32 39.53C334.068 39.026 333.942 38.4427 333.942 37.78C333.942 37.108 334.072 36.52 334.334 36.016C334.604 35.512 334.978 35.12 335.454 34.84C335.939 34.56 336.499 34.42 337.134 34.42C337.768 34.42 338.31 34.5553 338.758 34.826C339.215 35.0873 339.565 35.4653 339.808 35.96C340.05 36.4547 340.172 37.0427 340.172 37.724C340.172 37.7893 340.167 37.8593 340.158 37.934C340.158 37.9993 340.158 38.0413 340.158 38.06H334.656V37.108H339.276L338.828 37.752C338.856 37.7053 338.884 37.6353 338.912 37.542C338.94 37.4393 338.954 37.3553 338.954 37.29C338.954 36.9073 338.874 36.576 338.716 36.296C338.566 36.016 338.356 35.7967 338.086 35.638C337.815 35.4793 337.498 35.4 337.134 35.4C336.704 35.4 336.336 35.4933 336.028 35.68C335.729 35.8573 335.496 36.1187 335.328 36.464C335.169 36.8 335.085 37.2153 335.076 37.71C335.076 38.214 335.155 38.6433 335.314 38.998C335.472 39.3527 335.706 39.6233 336.014 39.81C336.322 39.9967 336.695 40.09 337.134 40.09C337.572 40.09 337.96 39.9967 338.296 39.81C338.632 39.614 338.916 39.32 339.15 38.928L340.06 39.502C339.724 40.0433 339.299 40.454 338.786 40.734C338.282 41.0047 337.684 41.14 336.994 41.14Z" fill="white"/>
<path d="M819.5 36C819.5 40.768 816.817 45.3765 811.817 49.6321C806.82 53.8859 799.558 57.7394 790.541 60.9854C772.512 67.4759 747.572 71.5 720 71.5C692.428 71.5 667.488 67.4759 649.459 60.9854C640.442 57.7394 633.18 53.8859 628.183 49.6321C623.183 45.3765 620.5 40.768 620.5 36C620.5 31.232 623.183 26.6235 628.183 22.3679C633.18 18.1141 640.442 14.2606 649.459 11.0146C667.488 4.5241 692.428 0.5 720 0.5C747.572 0.5 772.512 4.5241 790.541 11.0146C799.558 14.2606 806.82 18.1141 811.817 22.3679C816.817 26.6235 819.5 31.232 819.5 36Z" fill="#344054" stroke="white"/>
<path d="M642 36H654M642 32H654M642 40H654" stroke="white" stroke-linecap="round" stroke-linejoin="round"/>
<path d="M665.538 38.032C665.762 38.424 665.996 38.7693 666.238 39.068C666.49 39.3667 666.77 39.6 667.078 39.768C667.386 39.936 667.736 40.02 668.128 40.02C668.651 40.02 669.071 39.8753 669.388 39.586C669.706 39.2967 669.864 38.928 669.864 38.48C669.864 38.0413 669.762 37.6913 669.556 37.43C669.351 37.1687 669.08 36.9587 668.744 36.8C668.418 36.632 668.068 36.4827 667.694 36.352C667.452 36.268 667.181 36.1607 666.882 36.03C666.584 35.89 666.299 35.7173 666.028 35.512C665.758 35.2973 665.534 35.036 665.356 34.728C665.188 34.42 665.104 34.042 665.104 33.594C665.104 33.1087 665.226 32.6747 665.468 32.292C665.711 31.9093 666.047 31.6107 666.476 31.396C666.906 31.172 667.396 31.06 667.946 31.06C668.478 31.06 668.94 31.1627 669.332 31.368C669.734 31.564 670.074 31.8207 670.354 32.138C670.634 32.446 670.854 32.7727 671.012 33.118L669.99 33.706C669.869 33.4633 669.715 33.2253 669.528 32.992C669.342 32.7587 669.113 32.5673 668.842 32.418C668.581 32.2687 668.259 32.194 667.876 32.194C667.344 32.194 666.957 32.3247 666.714 32.586C666.472 32.838 666.35 33.1227 666.35 33.44C666.35 33.7107 666.42 33.9627 666.56 34.196C666.7 34.42 666.934 34.6347 667.26 34.84C667.596 35.036 668.049 35.232 668.618 35.428C668.88 35.5213 669.155 35.6427 669.444 35.792C669.734 35.9413 670 36.1327 670.242 36.366C670.494 36.59 670.7 36.8653 670.858 37.192C671.017 37.5093 671.096 37.892 671.096 38.34C671.096 38.7693 671.012 39.1567 670.844 39.502C670.686 39.8473 670.462 40.1413 670.172 40.384C669.892 40.6267 669.57 40.8133 669.206 40.944C668.852 41.0747 668.478 41.14 668.086 41.14C667.554 41.14 667.06 41.028 666.602 40.804C666.154 40.5707 665.758 40.2673 665.412 39.894C665.076 39.5113 664.801 39.1053 664.586 38.676L665.538 38.032ZM673.74 38.48C673.74 38.9933 673.857 39.39 674.09 39.67C674.324 39.95 674.664 40.09 675.112 40.09C675.439 40.09 675.724 40.0247 675.966 39.894C676.218 39.754 676.41 39.5627 676.54 39.32C676.68 39.0773 676.75 38.7973 676.75 38.48V34.56H677.87V41H676.75V39.992C676.536 40.3747 676.27 40.664 675.952 40.86C675.635 41.0467 675.262 41.14 674.832 41.14C674.16 41.14 673.624 40.9113 673.222 40.454C672.821 39.9967 672.62 39.3853 672.62 38.62V34.56H673.74V38.48ZM680.872 30.08V41H679.752V30.08H680.872ZM686.262 37.78C686.262 38.4707 686.117 39.068 685.828 39.572C685.538 40.076 685.151 40.4633 684.666 40.734C684.19 41.0047 683.658 41.14 683.07 41.14C682.538 41.14 682.066 41.0047 681.656 40.734C681.254 40.4633 680.937 40.076 680.704 39.572C680.48 39.068 680.368 38.4707 680.368 37.78C680.368 37.08 680.48 36.4827 680.704 35.988C680.937 35.484 681.254 35.0967 681.656 34.826C682.066 34.5553 682.538 34.42 683.07 34.42C683.658 34.42 684.19 34.5553 684.666 34.826C685.151 35.0967 685.538 35.484 685.828 35.988C686.117 36.4827 686.262 37.08 686.262 37.78ZM685.128 37.78C685.128 37.2853 685.025 36.8653 684.82 36.52C684.624 36.1747 684.358 35.9133 684.022 35.736C683.695 35.5587 683.331 35.47 682.93 35.47C682.603 35.47 682.281 35.5587 681.964 35.736C681.646 35.9133 681.385 36.1747 681.18 36.52C680.974 36.8653 680.872 37.2853 680.872 37.78C680.872 38.2747 680.974 38.6947 681.18 39.04C681.385 39.3853 681.646 39.6467 681.964 39.824C682.281 40.0013 682.603 40.09 682.93 40.09C683.331 40.09 683.695 40.0013 684.022 39.824C684.358 39.6467 684.624 39.3853 684.82 39.04C685.025 38.6947 685.128 38.2747 685.128 37.78ZM687.47 31.9C687.47 31.6853 687.545 31.508 687.694 31.368C687.843 31.2187 688.021 31.144 688.226 31.144C688.441 31.144 688.618 31.2187 688.758 31.368C688.907 31.508 688.982 31.6853 688.982 31.9C688.982 32.1053 688.907 32.2827 688.758 32.432C688.618 32.5813 688.441 32.656 688.226 32.656C688.021 32.656 687.843 32.5813 687.694 32.432C687.545 32.2827 687.47 32.1053 687.47 31.9ZM686.364 42.596C686.439 42.708 686.532 42.7967 686.644 42.862C686.765 42.9273 686.901 42.96 687.05 42.96C687.209 42.96 687.335 42.918 687.428 42.834C687.531 42.75 687.605 42.6147 687.652 42.428C687.699 42.2413 687.722 41.9987 687.722 41.7V34.56H688.842V41.84C688.842 42.3067 688.767 42.708 688.618 43.044C688.478 43.38 688.268 43.6367 687.988 43.814C687.708 43.9913 687.372 44.08 686.98 44.08C686.793 44.08 686.625 44.0567 686.476 44.01C686.327 43.9727 686.191 43.912 686.07 43.828C685.949 43.744 685.841 43.6413 685.748 43.52L686.364 42.596ZM693.49 41.14C692.893 41.14 692.361 41 691.894 40.72C691.437 40.4307 691.077 40.034 690.816 39.53C690.564 39.026 690.438 38.4427 690.438 37.78C690.438 37.108 690.569 36.52 690.83 36.016C691.101 35.512 691.474 35.12 691.95 34.84C692.435 34.56 692.995 34.42 693.63 34.42C694.265 34.42 694.806 34.5553 695.254 34.826C695.711 35.0873 696.061 35.4653 696.304 35.96C696.547 36.4547 696.668 37.0427 696.668 37.724C696.668 37.7893 696.663 37.8593 696.654 37.934C696.654 37.9993 696.654 38.0413 696.654 38.06H691.152V37.108H695.772L695.324 37.752C695.352 37.7053 695.38 37.6353 695.408 37.542C695.436 37.4393 695.45 37.3553 695.45 37.29C695.45 36.9073 695.371 36.576 695.212 36.296C695.063 36.016 694.853 35.7967 694.582 35.638C694.311 35.4793 693.994 35.4 693.63 35.4C693.201 35.4 692.832 35.4933 692.524 35.68C692.225 35.8573 691.992 36.1187 691.824 36.464C691.665 36.8 691.581 37.2153 691.572 37.71C691.572 38.214 691.651 38.6433 691.81 38.998C691.969 39.3527 692.202 39.6233 692.51 39.81C692.818 39.9967 693.191 40.09 693.63 40.09C694.069 40.09 694.456 39.9967 694.792 39.81C695.128 39.614 695.413 39.32 695.646 38.928L696.556 39.502C696.22 40.0433 695.795 40.454 695.282 40.734C694.778 41.0047 694.181 41.14 693.49 41.14ZM698.553 37.78C698.553 38.228 698.647 38.6247 698.833 38.97C699.029 39.3153 699.291 39.5907 699.617 39.796C699.953 39.992 700.331 40.09 700.751 40.09C701.097 40.09 701.419 40.0387 701.717 39.936C702.025 39.824 702.291 39.6793 702.515 39.502C702.739 39.3153 702.898 39.1193 702.991 38.914V40.314C702.767 40.5753 702.445 40.7807 702.025 40.93C701.615 41.07 701.19 41.14 700.751 41.14C700.126 41.14 699.561 40.9953 699.057 40.706C698.553 40.4167 698.152 40.02 697.853 39.516C697.564 39.0027 697.419 38.424 697.419 37.78C697.419 37.1267 697.564 36.548 697.853 36.044C698.152 35.54 698.553 35.1433 699.057 34.854C699.561 34.5647 700.126 34.42 700.751 34.42C701.19 34.42 701.615 34.4947 702.025 34.644C702.445 34.784 702.767 34.9847 702.991 35.246V36.646C702.898 36.4313 702.739 36.2353 702.515 36.058C702.291 35.8807 702.025 35.7407 701.717 35.638C701.419 35.526 701.097 35.47 700.751 35.47C700.331 35.47 699.953 35.568 699.617 35.764C699.291 35.96 699.029 36.2353 698.833 36.59C698.647 36.9353 698.553 37.332 698.553 37.78ZM703.601 34.56H706.821V35.61H703.601V34.56ZM704.651 32.32H705.771V41H704.651V32.32ZM711.273 37.78C711.273 37.1267 711.418 36.548 711.707 36.044C712.006 35.54 712.407 35.1433 712.911 34.854C713.415 34.5647 713.98 34.42 714.605 34.42C715.24 34.42 715.805 34.5647 716.299 34.854C716.803 35.1433 717.2 35.54 717.489 36.044C717.788 36.548 717.937 37.1267 717.937 37.78C717.937 38.424 717.788 39.0027 717.489 39.516C717.2 40.02 716.803 40.4167 716.299 40.706C715.805 40.9953 715.24 41.14 714.605 41.14C713.98 41.14 713.415 40.9953 712.911 40.706C712.407 40.4167 712.006 40.02 711.707 39.516C711.418 39.0027 711.273 38.424 711.273 37.78ZM712.407 37.78C712.407 38.228 712.501 38.6247 712.687 38.97C712.883 39.3153 713.145 39.5907 713.471 39.796C713.807 39.992 714.185 40.09 714.605 40.09C715.025 40.09 715.399 39.992 715.725 39.796C716.061 39.5907 716.323 39.3153 716.509 38.97C716.705 38.6247 716.803 38.228 716.803 37.78C716.803 37.332 716.705 36.9353 716.509 36.59C716.323 36.2353 716.061 35.96 715.725 35.764C715.399 35.568 715.025 35.47 714.605 35.47C714.185 35.47 713.807 35.568 713.471 35.764C713.145 35.96 712.883 36.2353 712.687 36.59C712.501 36.9353 712.407 37.332 712.407 37.78ZM718.832 34.56H722.052V35.61H718.832V34.56ZM721.94 31.424C721.847 31.2653 721.735 31.1673 721.604 31.13C721.483 31.0833 721.366 31.06 721.254 31.06C721.114 31.06 720.993 31.102 720.89 31.186C720.797 31.2607 720.722 31.3913 720.666 31.578C720.61 31.7647 720.582 32.012 720.582 32.32V41H719.462V32.18C719.462 31.6667 719.537 31.2467 719.686 30.92C719.835 30.5933 720.045 30.3507 720.316 30.192C720.596 30.024 720.932 29.94 721.324 29.94C721.529 29.94 721.711 29.968 721.87 30.024C722.029 30.08 722.164 30.15 722.276 30.234C722.397 30.318 722.491 30.4067 722.556 30.5L721.94 31.424ZM726.237 34.56H729.457V35.61H726.237V34.56ZM727.287 32.32H728.407V41H727.287V32.32ZM731.546 30.08V41H730.426V30.08H731.546ZM734.556 37.08C734.556 36.548 734.44 36.1467 734.206 35.876C733.982 35.6053 733.642 35.47 733.184 35.47C732.858 35.47 732.568 35.54 732.316 35.68C732.074 35.82 731.882 36.0113 731.742 36.254C731.612 36.4967 731.546 36.772 731.546 37.08H731.182C731.182 36.5667 731.28 36.114 731.476 35.722C731.672 35.3207 731.938 35.0033 732.274 34.77C732.62 34.5367 733.016 34.42 733.464 34.42C733.912 34.42 734.3 34.5133 734.626 34.7C734.962 34.8867 735.219 35.1667 735.396 35.54C735.583 35.9133 735.676 36.38 735.676 36.94V41H734.556V37.08ZM740.12 41.14C739.522 41.14 738.99 41 738.524 40.72C738.066 40.4307 737.707 40.034 737.446 39.53C737.194 39.026 737.068 38.4427 737.068 37.78C737.068 37.108 737.198 36.52 737.46 36.016C737.73 35.512 738.104 35.12 738.58 34.84C739.065 34.56 739.625 34.42 740.26 34.42C740.894 34.42 741.436 34.5553 741.884 34.826C742.341 35.0873 742.691 35.4653 742.934 35.96C743.176 36.4547 743.298 37.0427 743.298 37.724C743.298 37.7893 743.293 37.8593 743.284 37.934C743.284 37.9993 743.284 38.0413 743.284 38.06H737.782V37.108H742.402L741.954 37.752C741.982 37.7053 742.01 37.6353 742.038 37.542C742.066 37.4393 742.08 37.3553 742.08 37.29C742.08 36.9073 742 36.576 741.842 36.296C741.692 36.016 741.482 35.7967 741.212 35.638C740.941 35.4793 740.624 35.4 740.26 35.4C739.83 35.4 739.462 35.4933 739.154 35.68C738.855 35.8573 738.622 36.1187 738.454 36.464C738.295 36.8 738.211 37.2153 738.202 37.71C738.202 38.214 738.281 38.6433 738.44 38.998C738.598 39.3527 738.832 39.6233 739.14 39.81C739.448 39.9967 739.821 40.09 740.26 40.09C740.698 40.09 741.086 39.9967 741.422 39.81C741.758 39.614 742.042 39.32 742.276 38.928L743.186 39.502C742.85 40.0433 742.425 40.454 741.912 40.734C741.408 41.0047 740.81 41.14 740.12 41.14ZM757.542 36.94V41H756.422V37.08C756.422 36.5293 756.319 36.1233 756.114 35.862C755.918 35.6007 755.61 35.47 755.19 35.47C754.882 35.47 754.616 35.5353 754.392 35.666C754.168 35.7873 753.995 35.9693 753.874 36.212C753.753 36.4547 753.692 36.744 753.692 37.08V41H752.572V37.08C752.572 36.5293 752.469 36.1233 752.264 35.862C752.068 35.6007 751.76 35.47 751.34 35.47C751.032 35.47 750.766 35.5353 750.542 35.666C750.318 35.7873 750.145 35.9693 750.024 36.212C749.903 36.4547 749.842 36.744 749.842 37.08V41H748.722V34.56H749.842V35.498C750.038 35.134 750.281 34.8633 750.57 34.686C750.869 34.5087 751.219 34.42 751.62 34.42C752.068 34.42 752.451 34.5273 752.768 34.742C753.095 34.9473 753.333 35.2413 753.482 35.624C753.706 35.2227 753.986 34.924 754.322 34.728C754.658 34.5227 755.041 34.42 755.47 34.42C755.909 34.42 756.282 34.518 756.59 34.714C756.898 34.91 757.131 35.1993 757.29 35.582C757.458 35.9553 757.542 36.408 757.542 36.94ZM761.984 41.14C761.387 41.14 760.855 41 760.388 40.72C759.931 40.4307 759.571 40.034 759.31 39.53C759.058 39.026 758.932 38.4427 758.932 37.78C758.932 37.108 759.063 36.52 759.324 36.016C759.595 35.512 759.968 35.12 760.444 34.84C760.929 34.56 761.489 34.42 762.124 34.42C762.759 34.42 763.3 34.5553 763.748 34.826C764.205 35.0873 764.555 35.4653 764.798 35.96C765.041 36.4547 765.162 37.0427 765.162 37.724C765.162 37.7893 765.157 37.8593 765.148 37.934C765.148 37.9993 765.148 38.0413 765.148 38.06H759.646V37.108H764.266L763.818 37.752C763.846 37.7053 763.874 37.6353 763.902 37.542C763.93 37.4393 763.944 37.3553 763.944 37.29C763.944 36.9073 763.865 36.576 763.706 36.296C763.557 36.016 763.347 35.7967 763.076 35.638C762.805 35.4793 762.488 35.4 762.124 35.4C761.695 35.4 761.326 35.4933 761.018 35.68C760.719 35.8573 760.486 36.1187 760.318 36.464C760.159 36.8 760.075 37.2153 760.066 37.71C760.066 38.214 760.145 38.6433 760.304 38.998C760.463 39.3527 760.696 39.6233 761.004 39.81C761.312 39.9967 761.685 40.09 762.124 40.09C762.563 40.09 762.95 39.9967 763.286 39.81C763.622 39.614 763.907 39.32 764.14 38.928L765.05 39.502C764.714 40.0433 764.289 40.454 763.776 40.734C763.272 41.0047 762.675 41.14 761.984 41.14ZM766.809 39.026C766.94 39.222 767.089 39.404 767.257 39.572C767.425 39.74 767.616 39.8753 767.831 39.978C768.055 40.0713 768.298 40.118 768.559 40.118C768.876 40.118 769.124 40.048 769.301 39.908C769.488 39.7587 769.581 39.558 769.581 39.306C769.581 39.082 769.506 38.8953 769.357 38.746C769.217 38.5873 769.035 38.4567 768.811 38.354C768.587 38.242 768.349 38.1393 768.097 38.046C767.817 37.934 767.532 37.8033 767.243 37.654C766.963 37.4953 766.725 37.2947 766.529 37.052C766.342 36.8 766.249 36.4873 766.249 36.114C766.249 35.7313 766.347 35.414 766.543 35.162C766.748 34.91 767.01 34.7233 767.327 34.602C767.654 34.4807 767.99 34.42 768.335 34.42C768.68 34.42 769.002 34.476 769.301 34.588C769.609 34.7 769.88 34.8493 770.113 35.036C770.346 35.2227 770.528 35.4373 770.659 35.68L769.763 36.254C769.586 36.0113 769.362 35.8107 769.091 35.652C768.83 35.4933 768.531 35.414 768.195 35.414C767.962 35.414 767.761 35.4653 767.593 35.568C767.425 35.6707 767.341 35.8293 767.341 36.044C767.341 36.212 767.406 36.3613 767.537 36.492C767.668 36.6227 767.836 36.7393 768.041 36.842C768.246 36.9447 768.461 37.0427 768.685 37.136C769.058 37.2853 769.399 37.4487 769.707 37.626C770.015 37.794 770.258 37.9993 770.435 38.242C770.622 38.4847 770.715 38.7973 770.715 39.18C770.715 39.74 770.51 40.2067 770.099 40.58C769.698 40.9533 769.166 41.14 768.503 41.14C768.074 41.14 767.686 41.0653 767.341 40.916C766.996 40.7573 766.702 40.5567 766.459 40.314C766.226 40.0713 766.048 39.824 765.927 39.572L766.809 39.026ZM772.301 39.026C772.432 39.222 772.581 39.404 772.749 39.572C772.917 39.74 773.109 39.8753 773.323 39.978C773.547 40.0713 773.79 40.118 774.051 40.118C774.369 40.118 774.616 40.048 774.793 39.908C774.98 39.7587 775.073 39.558 775.073 39.306C775.073 39.082 774.999 38.8953 774.849 38.746C774.709 38.5873 774.527 38.4567 774.303 38.354C774.079 38.242 773.841 38.1393 773.589 38.046C773.309 37.934 773.025 37.8033 772.735 37.654C772.455 37.4953 772.217 37.2947 772.021 37.052C771.835 36.8 771.741 36.4873 771.741 36.114C771.741 35.7313 771.839 35.414 772.035 35.162C772.241 34.91 772.502 34.7233 772.819 34.602C773.146 34.4807 773.482 34.42 773.827 34.42C774.173 34.42 774.495 34.476 774.793 34.588C775.101 34.7 775.372 34.8493 775.605 35.036C775.839 35.2227 776.021 35.4373 776.151 35.68L775.255 36.254C775.078 36.0113 774.854 35.8107 774.583 35.652C774.322 35.4933 774.023 35.414 773.687 35.414C773.454 35.414 773.253 35.4653 773.085 35.568C772.917 35.6707 772.833 35.8293 772.833 36.044C772.833 36.212 772.899 36.3613 773.029 36.492C773.16 36.6227 773.328 36.7393 773.533 36.842C773.739 36.9447 773.953 37.0427 774.177 37.136C774.551 37.2853 774.891 37.4487 775.199 37.626C775.507 37.794 775.75 37.9993 775.927 38.242C776.114 38.4847 776.207 38.7973 776.207 39.18C776.207 39.74 776.002 40.2067 775.591 40.58C775.19 40.9533 774.658 41.14 773.995 41.14C773.566 41.14 773.179 41.0653 772.833 40.916C772.488 40.7573 772.194 40.5567 771.951 40.314C771.718 40.0713 771.541 39.824 771.419 39.572L772.301 39.026ZM778.032 39.012C778.032 39.2547 778.088 39.4647 778.2 39.642C778.321 39.8193 778.485 39.9547 778.69 40.048C778.905 40.132 779.147 40.174 779.418 40.174C779.763 40.174 780.071 40.104 780.342 39.964C780.622 39.824 780.841 39.628 781 39.376C781.168 39.1147 781.252 38.816 781.252 38.48L781.476 39.32C781.476 39.7307 781.35 40.0713 781.098 40.342C780.855 40.6127 780.552 40.8133 780.188 40.944C779.833 41.0747 779.479 41.14 779.124 41.14C778.732 41.14 778.363 41.0607 778.018 40.902C777.682 40.734 777.411 40.496 777.206 40.188C777.001 39.88 776.898 39.5067 776.898 39.068C776.898 38.4427 777.117 37.9433 777.556 37.57C778.004 37.1873 778.625 36.996 779.418 36.996C779.885 36.996 780.272 37.052 780.58 37.164C780.897 37.2667 781.149 37.388 781.336 37.528C781.523 37.6587 781.649 37.766 781.714 37.85V38.508C781.387 38.284 781.051 38.1253 780.706 38.032C780.361 37.9293 779.992 37.878 779.6 37.878C779.236 37.878 778.937 37.9247 778.704 38.018C778.48 38.1113 778.312 38.242 778.2 38.41C778.088 38.578 778.032 38.7787 778.032 39.012ZM777.864 36.044L777.318 35.218C777.561 35.0407 777.892 34.8633 778.312 34.686C778.741 34.5087 779.255 34.42 779.852 34.42C780.356 34.42 780.795 34.4993 781.168 34.658C781.551 34.8073 781.845 35.0267 782.05 35.316C782.265 35.6053 782.372 35.96 782.372 36.38V41H781.252V36.534C781.252 36.31 781.215 36.128 781.14 35.988C781.065 35.8387 780.958 35.722 780.818 35.638C780.687 35.554 780.533 35.4933 780.356 35.456C780.179 35.4187 779.992 35.4 779.796 35.4C779.479 35.4 779.189 35.4373 778.928 35.512C778.676 35.5867 778.461 35.6753 778.284 35.778C778.107 35.8807 777.967 35.9693 777.864 36.044ZM783.68 41.42H784.814C784.814 41.728 784.898 42.0127 785.066 42.274C785.234 42.5447 785.472 42.7593 785.78 42.918C786.088 43.086 786.452 43.17 786.872 43.17C787.199 43.17 787.521 43.0907 787.838 42.932C788.156 42.7733 788.417 42.5213 788.622 42.176C788.837 41.84 788.944 41.4013 788.944 40.86V34.56H790.064V40.86C790.064 41.5973 789.91 42.2133 789.602 42.708C789.294 43.212 788.898 43.59 788.412 43.842C787.927 44.094 787.414 44.22 786.872 44.22C786.247 44.22 785.692 44.1033 785.206 43.87C784.73 43.6367 784.357 43.3053 784.086 42.876C783.816 42.456 783.68 41.9707 783.68 41.42ZM783.554 37.78C783.554 37.08 783.699 36.4827 783.988 35.988C784.278 35.484 784.665 35.0967 785.15 34.826C785.636 34.5553 786.168 34.42 786.746 34.42C787.288 34.42 787.759 34.5553 788.16 34.826C788.562 35.0967 788.874 35.484 789.098 35.988C789.332 36.4827 789.448 37.08 789.448 37.78C789.448 38.4707 789.332 39.068 789.098 39.572C788.874 40.076 788.562 40.4633 788.16 40.734C787.759 41.0047 787.288 41.14 786.746 41.14C786.168 41.14 785.636 41.0047 785.15 40.734C784.665 40.4633 784.278 40.076 783.988 39.572C783.699 39.068 783.554 38.4707 783.554 37.78ZM784.688 37.78C784.688 38.2747 784.786 38.6947 784.982 39.04C785.188 39.3853 785.458 39.6467 785.794 39.824C786.13 40.0013 786.494 40.09 786.886 40.09C787.213 40.09 787.535 40.0013 787.852 39.824C788.17 39.6467 788.431 39.3853 788.636 39.04C788.842 38.6947 788.944 38.2747 788.944 37.78C788.944 37.4067 788.884 37.08 788.762 36.8C788.641 36.5107 788.478 36.268 788.272 36.072C788.076 35.876 787.857 35.7267 787.614 35.624C787.372 35.5213 787.129 35.47 786.886 35.47C786.494 35.47 786.13 35.5587 785.794 35.736C785.458 35.9133 785.188 36.1747 784.982 36.52C784.786 36.8653 784.688 37.2853 784.688 37.78ZM794.437 41.14C793.839 41.14 793.307 41 792.841 40.72C792.383 40.4307 792.024 40.034 791.763 39.53C791.511 39.026 791.385 38.4427 791.385 37.78C791.385 37.108 791.515 36.52 791.777 36.016C792.047 35.512 792.421 35.12 792.897 34.84C793.382 34.56 793.942 34.42 794.577 34.42C795.211 34.42 795.753 34.5553 796.201 34.826C796.658 35.0873 797.008 35.4653 797.251 35.96C797.493 36.4547 797.615 37.0427 797.615 37.724C797.615 37.7893 797.61 37.8593 797.601 37.934C797.601 37.9993 797.601 38.0413 797.601 38.06H792.099V37.108H796.719L796.271 37.752C796.299 37.7053 796.327 37.6353 796.355 37.542C796.383 37.4393 796.397 37.3553 796.397 37.29C796.397 36.9073 796.317 36.576 796.159 36.296C796.009 36.016 795.799 35.7967 795.529 35.638C795.258 35.4793 794.941 35.4 794.577 35.4C794.147 35.4 793.779 35.4933 793.471 35.68C793.172 35.8573 792.939 36.1187 792.771 36.464C792.612 36.8 792.528 37.2153 792.519 37.71C792.519 38.214 792.598 38.6433 792.757 38.998C792.915 39.3527 793.149 39.6233 793.457 39.81C793.765 39.9967 794.138 40.09 794.577 40.09C795.015 40.09 795.403 39.9967 795.739 39.81C796.075 39.614 796.359 39.32 796.593 38.928L797.503 39.502C797.167 40.0433 796.742 40.454 796.229 40.734C795.725 41.0047 795.127 41.14 794.437 41.14Z" fill="white"/>
<path d="M1067.5 36C1067.5 40.7846 1065.02 45.3963 1060.43 49.6458C1055.84 53.8958 1049.16 57.7462 1040.87 60.9902C1024.29 67.477 1001.36 71.5 976 71.5C950.641 71.5 927.706 67.477 911.128 60.9902C902.838 57.7462 896.163 53.8958 891.569 49.6458C886.976 45.3963 884.5 40.7846 884.5 36C884.5 31.2154 886.976 26.6037 891.569 22.3542C896.163 18.1042 902.838 14.2538 911.128 11.0098C927.706 4.523 950.641 0.5 976 0.5C1001.36 0.5 1024.29 4.523 1040.87 11.0098C1049.16 14.2538 1055.84 18.1042 1060.43 22.3542C1065.02 26.6037 1067.5 31.2154 1067.5 36Z" fill="#344054" stroke="white"/>
<path d="M912 36H924M912 32H924M912 40H924" stroke="white" stroke-linecap="round" stroke-linejoin="round"/>
<path d="M936.125 41V39.88H941.067V41H936.125ZM936.125 32.32V31.2H941.067V32.32H936.125ZM936.125 36.24V35.12H940.787V36.24H936.125ZM935.467 31.2H936.657V41H935.467V31.2ZM947.07 37.08C947.07 36.548 946.954 36.1467 946.72 35.876C946.487 35.6053 946.146 35.47 945.698 35.47C945.372 35.47 945.082 35.54 944.83 35.68C944.588 35.8107 944.396 35.9973 944.256 36.24C944.126 36.4827 944.06 36.7627 944.06 37.08V41H942.94V34.56H944.06V35.568C944.275 35.176 944.541 34.8867 944.858 34.7C945.185 34.5133 945.558 34.42 945.978 34.42C946.66 34.42 947.196 34.6487 947.588 35.106C947.99 35.554 948.19 36.1653 948.19 36.94V41H947.07V37.08ZM949.162 34.56H952.382V35.61H949.162V34.56ZM950.212 32.32H951.332V41H950.212V32.32ZM955.843 41.14C955.246 41.14 954.714 41 954.247 40.72C953.79 40.4307 953.43 40.034 953.169 39.53C952.917 39.026 952.791 38.4427 952.791 37.78C952.791 37.108 952.922 36.52 953.183 36.016C953.454 35.512 953.827 35.12 954.303 34.84C954.788 34.56 955.348 34.42 955.983 34.42C956.618 34.42 957.159 34.5553 957.607 34.826C958.064 35.0873 958.414 35.4653 958.657 35.96C958.9 36.4547 959.021 37.0427 959.021 37.724C959.021 37.7893 959.016 37.8593 959.007 37.934C959.007 37.9993 959.007 38.0413 959.007 38.06H953.505V37.108H958.125L957.677 37.752C957.705 37.7053 957.733 37.6353 957.761 37.542C957.789 37.4393 957.803 37.3553 957.803 37.29C957.803 36.9073 957.724 36.576 957.565 36.296C957.416 36.016 957.206 35.7967 956.935 35.638C956.664 35.4793 956.347 35.4 955.983 35.4C955.554 35.4 955.185 35.4933 954.877 35.68C954.578 35.8573 954.345 36.1187 954.177 36.464C954.018 36.8 953.934 37.2153 953.925 37.71C953.925 38.214 954.004 38.6433 954.163 38.998C954.322 39.3527 954.555 39.6233 954.863 39.81C955.171 39.9967 955.544 40.09 955.983 40.09C956.422 40.09 956.809 39.9967 957.145 39.81C957.481 39.614 957.766 39.32 957.999 38.928L958.909 39.502C958.573 40.0433 958.148 40.454 957.635 40.734C957.131 41.0047 956.534 41.14 955.843 41.14ZM961.522 34.56V41H960.402V34.56H961.522ZM963.468 35.792C963.319 35.68 963.184 35.6007 963.062 35.554C962.941 35.498 962.787 35.47 962.6 35.47C962.32 35.47 962.101 35.54 961.942 35.68C961.784 35.82 961.672 36.0113 961.606 36.254C961.55 36.4967 961.522 36.772 961.522 37.08H961.018C961.018 36.5667 961.107 36.114 961.284 35.722C961.471 35.3207 961.709 35.0033 961.998 34.77C962.288 34.5367 962.582 34.42 962.88 34.42C963.114 34.42 963.328 34.4527 963.524 34.518C963.73 34.574 963.916 34.6907 964.084 34.868L963.468 35.792ZM974.2 34.56L970 44.08H968.74L970.504 40.09L968.04 34.56H969.37L971.414 39.6L970.952 39.544L972.94 34.56H974.2ZM974.337 37.78C974.337 37.1267 974.482 36.548 974.771 36.044C975.07 35.54 975.471 35.1433 975.975 34.854C976.479 34.5647 977.044 34.42 977.669 34.42C978.304 34.42 978.869 34.5647 979.363 34.854C979.867 35.1433 980.264 35.54 980.553 36.044C980.852 36.548 981.001 37.1267 981.001 37.78C981.001 38.424 980.852 39.0027 980.553 39.516C980.264 40.02 979.867 40.4167 979.363 40.706C978.869 40.9953 978.304 41.14 977.669 41.14C977.044 41.14 976.479 40.9953 975.975 40.706C975.471 40.4167 975.07 40.02 974.771 39.516C974.482 39.0027 974.337 38.424 974.337 37.78ZM975.471 37.78C975.471 38.228 975.565 38.6247 975.751 38.97C975.947 39.3153 976.209 39.5907 976.535 39.796C976.871 39.992 977.249 40.09 977.669 40.09C978.089 40.09 978.463 39.992 978.789 39.796C979.125 39.5907 979.387 39.3153 979.573 38.97C979.769 38.6247 979.867 38.228 979.867 37.78C979.867 37.332 979.769 36.9353 979.573 36.59C979.387 36.2353 979.125 35.96 978.789 35.764C978.463 35.568 978.089 35.47 977.669 35.47C977.249 35.47 976.871 35.568 976.535 35.764C976.209 35.96 975.947 36.2353 975.751 36.59C975.565 36.9353 975.471 37.332 975.471 37.78ZM983.506 38.48C983.506 38.9933 983.622 39.39 983.856 39.67C984.089 39.95 984.43 40.09 984.878 40.09C985.204 40.09 985.489 40.0247 985.732 39.894C985.984 39.754 986.175 39.5627 986.306 39.32C986.446 39.0773 986.516 38.7973 986.516 38.48V34.56H987.636V41H986.516V39.992C986.301 40.3747 986.035 40.664 985.718 40.86C985.4 41.0467 985.027 41.14 984.598 41.14C983.926 41.14 983.389 40.9113 982.988 40.454C982.586 39.9967 982.386 39.3853 982.386 38.62V34.56H983.506V38.48ZM990.707 34.56V41H989.587V34.56H990.707ZM992.653 35.792C992.504 35.68 992.369 35.6007 992.247 35.554C992.126 35.498 991.972 35.47 991.785 35.47C991.505 35.47 991.286 35.54 991.127 35.68C990.969 35.82 990.857 36.0113 990.791 36.254C990.735 36.4967 990.707 36.772 990.707 37.08H990.203C990.203 36.5667 990.292 36.114 990.469 35.722C990.656 35.3207 990.894 35.0033 991.183 34.77C991.473 34.5367 991.767 34.42 992.065 34.42C992.299 34.42 992.513 34.4527 992.709 34.518C992.915 34.574 993.101 34.6907 993.269 34.868L992.653 35.792ZM1007.1 36.94V41H1005.98V37.08C1005.98 36.5293 1005.87 36.1233 1005.67 35.862C1005.47 35.6007 1005.16 35.47 1004.74 35.47C1004.44 35.47 1004.17 35.5353 1003.95 35.666C1003.72 35.7873 1003.55 35.9693 1003.43 36.212C1003.31 36.4547 1003.25 36.744 1003.25 37.08V41H1002.13V37.08C1002.13 36.5293 1002.02 36.1233 1001.82 35.862C1001.62 35.6007 1001.31 35.47 1000.89 35.47C1000.59 35.47 1000.32 35.5353 1000.1 35.666C999.871 35.7873 999.699 35.9693 999.577 36.212C999.456 36.4547 999.395 36.744 999.395 37.08V41H998.275V34.56H999.395V35.498C999.591 35.134 999.834 34.8633 1000.12 34.686C1000.42 34.5087 1000.77 34.42 1001.17 34.42C1001.62 34.42 1002 34.5273 1002.32 34.742C1002.65 34.9473 1002.89 35.2413 1003.04 35.624C1003.26 35.2227 1003.54 34.924 1003.88 34.728C1004.21 34.5227 1004.59 34.42 1005.02 34.42C1005.46 34.42 1005.84 34.518 1006.14 34.714C1006.45 34.91 1006.68 35.1993 1006.84 35.582C1007.01 35.9553 1007.1 36.408 1007.1 36.94ZM1011.54 41.14C1010.94 41.14 1010.41 41 1009.94 40.72C1009.48 40.4307 1009.12 40.034 1008.86 39.53C1008.61 39.026 1008.49 38.4427 1008.49 37.78C1008.49 37.108 1008.62 36.52 1008.88 36.016C1009.15 35.512 1009.52 35.12 1010 34.84C1010.48 34.56 1011.04 34.42 1011.68 34.42C1012.31 34.42 1012.85 34.5553 1013.3 34.826C1013.76 35.0873 1014.11 35.4653 1014.35 35.96C1014.59 36.4547 1014.72 37.0427 1014.72 37.724C1014.72 37.7893 1014.71 37.8593 1014.7 37.934C1014.7 37.9993 1014.7 38.0413 1014.7 38.06H1009.2V37.108H1013.82L1013.37 37.752C1013.4 37.7053 1013.43 37.6353 1013.46 37.542C1013.48 37.4393 1013.5 37.3553 1013.5 37.29C1013.5 36.9073 1013.42 36.576 1013.26 36.296C1013.11 36.016 1012.9 35.7967 1012.63 35.638C1012.36 35.4793 1012.04 35.4 1011.68 35.4C1011.25 35.4 1010.88 35.4933 1010.57 35.68C1010.27 35.8573 1010.04 36.1187 1009.87 36.464C1009.71 36.8 1009.63 37.2153 1009.62 37.71C1009.62 38.214 1009.7 38.6433 1009.86 38.998C1010.02 39.3527 1010.25 39.6233 1010.56 39.81C1010.87 39.9967 1011.24 40.09 1011.68 40.09C1012.12 40.09 1012.5 39.9967 1012.84 39.81C1013.18 39.614 1013.46 39.32 1013.69 38.928L1014.6 39.502C1014.27 40.0433 1013.84 40.454 1013.33 40.734C1012.83 41.0047 1012.23 41.14 1011.54 41.14ZM1016.36 39.026C1016.49 39.222 1016.64 39.404 1016.81 39.572C1016.98 39.74 1017.17 39.8753 1017.38 39.978C1017.61 40.0713 1017.85 40.118 1018.11 40.118C1018.43 40.118 1018.68 40.048 1018.85 39.908C1019.04 39.7587 1019.13 39.558 1019.13 39.306C1019.13 39.082 1019.06 38.8953 1018.91 38.746C1018.77 38.5873 1018.59 38.4567 1018.36 38.354C1018.14 38.242 1017.9 38.1393 1017.65 38.046C1017.37 37.934 1017.09 37.8033 1016.8 37.654C1016.52 37.4953 1016.28 37.2947 1016.08 37.052C1015.9 36.8 1015.8 36.4873 1015.8 36.114C1015.8 35.7313 1015.9 35.414 1016.1 35.162C1016.3 34.91 1016.56 34.7233 1016.88 34.602C1017.21 34.4807 1017.54 34.42 1017.89 34.42C1018.23 34.42 1018.56 34.476 1018.85 34.588C1019.16 34.7 1019.43 34.8493 1019.67 35.036C1019.9 35.2227 1020.08 35.4373 1020.21 35.68L1019.32 36.254C1019.14 36.0113 1018.91 35.8107 1018.64 35.652C1018.38 35.4933 1018.08 35.414 1017.75 35.414C1017.51 35.414 1017.31 35.4653 1017.15 35.568C1016.98 35.6707 1016.89 35.8293 1016.89 36.044C1016.89 36.212 1016.96 36.3613 1017.09 36.492C1017.22 36.6227 1017.39 36.7393 1017.59 36.842C1017.8 36.9447 1018.01 37.0427 1018.24 37.136C1018.61 37.2853 1018.95 37.4487 1019.26 37.626C1019.57 37.794 1019.81 37.9993 1019.99 38.242C1020.17 38.4847 1020.27 38.7973 1020.27 39.18C1020.27 39.74 1020.06 40.2067 1019.65 40.58C1019.25 40.9533 1018.72 41.14 1018.06 41.14C1017.63 41.14 1017.24 41.0653 1016.89 40.916C1016.55 40.7573 1016.25 40.5567 1016.01 40.314C1015.78 40.0713 1015.6 39.824 1015.48 39.572L1016.36 39.026ZM1021.85 39.026C1021.99 39.222 1022.13 39.404 1022.3 39.572C1022.47 39.74 1022.66 39.8753 1022.88 39.978C1023.1 40.0713 1023.34 40.118 1023.6 40.118C1023.92 40.118 1024.17 40.048 1024.35 39.908C1024.53 39.7587 1024.63 39.558 1024.63 39.306C1024.63 39.082 1024.55 38.8953 1024.4 38.746C1024.26 38.5873 1024.08 38.4567 1023.86 38.354C1023.63 38.242 1023.39 38.1393 1023.14 38.046C1022.86 37.934 1022.58 37.8033 1022.29 37.654C1022.01 37.4953 1021.77 37.2947 1021.57 37.052C1021.39 36.8 1021.29 36.4873 1021.29 36.114C1021.29 35.7313 1021.39 35.414 1021.59 35.162C1021.79 34.91 1022.06 34.7233 1022.37 34.602C1022.7 34.4807 1023.04 34.42 1023.38 34.42C1023.73 34.42 1024.05 34.476 1024.35 34.588C1024.65 34.7 1024.93 34.8493 1025.16 35.036C1025.39 35.2227 1025.57 35.4373 1025.7 35.68L1024.81 36.254C1024.63 36.0113 1024.41 35.8107 1024.14 35.652C1023.88 35.4933 1023.58 35.414 1023.24 35.414C1023.01 35.414 1022.81 35.4653 1022.64 35.568C1022.47 35.6707 1022.39 35.8293 1022.39 36.044C1022.39 36.212 1022.45 36.3613 1022.58 36.492C1022.71 36.6227 1022.88 36.7393 1023.09 36.842C1023.29 36.9447 1023.51 37.0427 1023.73 37.136C1024.1 37.2853 1024.44 37.4487 1024.75 37.626C1025.06 37.794 1025.3 37.9993 1025.48 38.242C1025.67 38.4847 1025.76 38.7973 1025.76 39.18C1025.76 39.74 1025.56 40.2067 1025.14 40.58C1024.74 40.9533 1024.21 41.14 1023.55 41.14C1023.12 41.14 1022.73 41.0653 1022.39 40.916C1022.04 40.7573 1021.75 40.5567 1021.5 40.314C1021.27 40.0713 1021.09 39.824 1020.97 39.572L1021.85 39.026ZM1027.59 39.012C1027.59 39.2547 1027.64 39.4647 1027.75 39.642C1027.87 39.8193 1028.04 39.9547 1028.24 40.048C1028.46 40.132 1028.7 40.174 1028.97 40.174C1029.32 40.174 1029.62 40.104 1029.9 39.964C1030.18 39.824 1030.39 39.628 1030.55 39.376C1030.72 39.1147 1030.81 38.816 1030.81 38.48L1031.03 39.32C1031.03 39.7307 1030.9 40.0713 1030.65 40.342C1030.41 40.6127 1030.11 40.8133 1029.74 40.944C1029.39 41.0747 1029.03 41.14 1028.68 41.14C1028.29 41.14 1027.92 41.0607 1027.57 40.902C1027.24 40.734 1026.96 40.496 1026.76 40.188C1026.55 39.88 1026.45 39.5067 1026.45 39.068C1026.45 38.4427 1026.67 37.9433 1027.11 37.57C1027.56 37.1873 1028.18 36.996 1028.97 36.996C1029.44 36.996 1029.83 37.052 1030.13 37.164C1030.45 37.2667 1030.7 37.388 1030.89 37.528C1031.08 37.6587 1031.2 37.766 1031.27 37.85V38.508C1030.94 38.284 1030.6 38.1253 1030.26 38.032C1029.91 37.9293 1029.55 37.878 1029.15 37.878C1028.79 37.878 1028.49 37.9247 1028.26 38.018C1028.03 38.1113 1027.87 38.242 1027.75 38.41C1027.64 38.578 1027.59 38.7787 1027.59 39.012ZM1027.42 36.044L1026.87 35.218C1027.11 35.0407 1027.45 34.8633 1027.87 34.686C1028.29 34.5087 1028.81 34.42 1029.41 34.42C1029.91 34.42 1030.35 34.4993 1030.72 34.658C1031.1 34.8073 1031.4 35.0267 1031.6 35.316C1031.82 35.6053 1031.93 35.96 1031.93 36.38V41H1030.81V36.534C1030.81 36.31 1030.77 36.128 1030.69 35.988C1030.62 35.8387 1030.51 35.722 1030.37 35.638C1030.24 35.554 1030.09 35.4933 1029.91 35.456C1029.73 35.4187 1029.55 35.4 1029.35 35.4C1029.03 35.4 1028.74 35.4373 1028.48 35.512C1028.23 35.5867 1028.01 35.6753 1027.84 35.778C1027.66 35.8807 1027.52 35.9693 1027.42 36.044ZM1033.23 41.42H1034.37C1034.37 41.728 1034.45 42.0127 1034.62 42.274C1034.79 42.5447 1035.03 42.7593 1035.33 42.918C1035.64 43.086 1036.01 43.17 1036.43 43.17C1036.75 43.17 1037.07 43.0907 1037.39 42.932C1037.71 42.7733 1037.97 42.5213 1038.18 42.176C1038.39 41.84 1038.5 41.4013 1038.5 40.86V34.56H1039.62V40.86C1039.62 41.5973 1039.46 42.2133 1039.16 42.708C1038.85 43.212 1038.45 43.59 1037.97 43.842C1037.48 44.094 1036.97 44.22 1036.43 44.22C1035.8 44.22 1035.24 44.1033 1034.76 43.87C1034.28 43.6367 1033.91 43.3053 1033.64 42.876C1033.37 42.456 1033.23 41.9707 1033.23 41.42ZM1033.11 37.78C1033.11 37.08 1033.25 36.4827 1033.54 35.988C1033.83 35.484 1034.22 35.0967 1034.7 34.826C1035.19 34.5553 1035.72 34.42 1036.3 34.42C1036.84 34.42 1037.31 34.5553 1037.71 34.826C1038.11 35.0967 1038.43 35.484 1038.65 35.988C1038.88 36.4827 1039 37.08 1039 37.78C1039 38.4707 1038.88 39.068 1038.65 39.572C1038.43 40.076 1038.11 40.4633 1037.71 40.734C1037.31 41.0047 1036.84 41.14 1036.3 41.14C1035.72 41.14 1035.19 41.0047 1034.7 40.734C1034.22 40.4633 1033.83 40.076 1033.54 39.572C1033.25 39.068 1033.11 38.4707 1033.11 37.78ZM1034.24 37.78C1034.24 38.2747 1034.34 38.6947 1034.54 39.04C1034.74 39.3853 1035.01 39.6467 1035.35 39.824C1035.68 40.0013 1036.05 40.09 1036.44 40.09C1036.77 40.09 1037.09 40.0013 1037.41 39.824C1037.72 39.6467 1037.98 39.3853 1038.19 39.04C1038.39 38.6947 1038.5 38.2747 1038.5 37.78C1038.5 37.4067 1038.44 37.08 1038.32 36.8C1038.19 36.5107 1038.03 36.268 1037.83 36.072C1037.63 35.876 1037.41 35.7267 1037.17 35.624C1036.92 35.5213 1036.68 35.47 1036.44 35.47C1036.05 35.47 1035.68 35.5587 1035.35 35.736C1035.01 35.9133 1034.74 36.1747 1034.54 36.52C1034.34 36.8653 1034.24 37.2853 1034.24 37.78ZM1043.99 41.14C1043.39 41.14 1042.86 41 1042.39 40.72C1041.94 40.4307 1041.58 40.034 1041.32 39.53C1041.06 39.026 1040.94 38.4427 1040.94 37.78C1040.94 37.108 1041.07 36.52 1041.33 36.016C1041.6 35.512 1041.97 35.12 1042.45 34.84C1042.94 34.56 1043.5 34.42 1044.13 34.42C1044.76 34.42 1045.31 34.5553 1045.75 34.826C1046.21 35.0873 1046.56 35.4653 1046.8 35.96C1047.05 36.4547 1047.17 37.0427 1047.17 37.724C1047.17 37.7893 1047.16 37.8593 1047.15 37.934C1047.15 37.9993 1047.15 38.0413 1047.15 38.06H1041.65V37.108H1046.27L1045.82 37.752C1045.85 37.7053 1045.88 37.6353 1045.91 37.542C1045.94 37.4393 1045.95 37.3553 1045.95 37.29C1045.95 36.9073 1045.87 36.576 1045.71 36.296C1045.56 36.016 1045.35 35.7967 1045.08 35.638C1044.81 35.4793 1044.49 35.4 1044.13 35.4C1043.7 35.4 1043.33 35.4933 1043.02 35.68C1042.73 35.8573 1042.49 36.1187 1042.32 36.464C1042.17 36.8 1042.08 37.2153 1042.07 37.71C1042.07 38.214 1042.15 38.6433 1042.31 38.998C1042.47 39.3527 1042.7 39.6233 1043.01 39.81C1043.32 39.9967 1043.69 40.09 1044.13 40.09C1044.57 40.09 1044.96 39.9967 1045.29 39.81C1045.63 39.614 1045.91 39.32 1046.15 38.928L1047.06 39.502C1046.72 40.0433 1046.3 40.454 1045.78 40.734C1045.28 41.0047 1044.68 41.14 1043.99 41.14Z" fill="white"/>
<rect x="1132.5" y="8.5" width="135" height="55" fill="#F77B7B" stroke="#344054"/>
<path d="M1159 31.7777C1159.37 31.7777 1159.67 31.4792 1159.67 31.111C1159.67 30.7428 1159.37 30.4443 1159 30.4443C1158.63 30.4443 1158.33 30.7428 1158.33 31.111C1158.33 31.4792 1158.63 31.7777 1159 31.7777Z" stroke="black" stroke-linecap="round" stroke-linejoin="round"/>
<path d="M1159 36.4443C1159.37 36.4443 1159.67 36.1459 1159.67 35.7777C1159.67 35.4095 1159.37 35.111 1159 35.111C1158.63 35.111 1158.33 35.4095 1158.33 35.7777C1158.33 36.1459 1158.63 36.4443 1159 36.4443Z" stroke="black" stroke-linecap="round" stroke-linejoin="round"/>
<path d="M1159 41.111C1159.37 41.111 1159.67 40.8125 1159.67 40.4443C1159.67 40.0761 1159.37 39.7777 1159 39.7777C1158.63 39.7777 1158.33 40.0761 1158.33 40.4443C1158.33 40.8125 1158.63 41.111 1159 41.111Z" stroke="black" stroke-linecap="round" stroke-linejoin="round"/>
<path d="M1163.67 31.7777C1164.03 31.7777 1164.33 31.4792 1164.33 31.111C1164.33 30.7428 1164.03 30.4443 1163.67 30.4443C1163.3 30.4443 1163 30.7428 1163 31.111C1163 31.4792 1163.3 31.7777 1163.67 31.7777Z" stroke="black" stroke-linecap="round" stroke-linejoin="round"/>
<path d="M1163.67 36.4443C1164.03 36.4443 1164.33 36.1459 1164.33 35.7777C1164.33 35.4095 1164.03 35.111 1163.67 35.111C1163.3 35.111 1163 35.4095 1163 35.7777C1163 36.1459 1163.3 36.4443 1163.67 36.4443Z" stroke="black" stroke-linecap="round" stroke-linejoin="round"/>
<path d="M1163.67 41.111C1164.03 41.111 1164.33 40.8125 1164.33 40.4443C1164.33 40.0761 1164.03 39.7777 1163.67 39.7777C1163.3 39.7777 1163 40.0761 1163 40.4443C1163 40.8125 1163.3 41.111 1163.67 41.111Z" stroke="black" stroke-linecap="round" stroke-linejoin="round"/>
<path d="M1154.33 31.7777C1154.7 31.7777 1155 31.4792 1155 31.111C1155 30.7428 1154.7 30.4443 1154.33 30.4443C1153.96 30.4443 1153.67 30.7428 1153.67 31.111C1153.67 31.4792 1153.96 31.7777 1154.33 31.7777Z" stroke="black" stroke-linecap="round" stroke-linejoin="round"/>
<path d="M1154.33 36.4443C1154.7 36.4443 1155 36.1459 1155 35.7777C1155 35.4095 1154.7 35.111 1154.33 35.111C1153.96 35.111 1153.67 35.4095 1153.67 35.7777C1153.67 36.1459 1153.96 36.4443 1154.33 36.4443Z" stroke="black" stroke-linecap="round" stroke-linejoin="round"/>
<path d="M1154.33 41.111C1154.7 41.111 1155 40.8125 1155 40.4443C1155 40.0761 1154.7 39.7777 1154.33 39.7777C1153.96 39.7777 1153.67 40.0761 1153.67 40.4443C1153.67 40.8125 1153.96 41.111 1154.33 41.111Z" stroke="black" stroke-linecap="round" stroke-linejoin="round"/>
<path d="M1176.82 35.8773C1176.82 36.6333 1176.99 37.3007 1177.33 37.8793C1177.67 38.458 1178.12 38.9107 1178.67 39.2373C1179.22 39.564 1179.82 39.7273 1180.46 39.7273C1180.93 39.7273 1181.36 39.6667 1181.74 39.5453C1182.13 39.424 1182.48 39.256 1182.8 39.0413C1183.12 38.8173 1183.39 38.5607 1183.61 38.2713V39.8393C1183.2 40.2033 1182.76 40.474 1182.27 40.6513C1181.78 40.8287 1181.18 40.9173 1180.46 40.9173C1179.78 40.9173 1179.14 40.796 1178.55 40.5533C1177.96 40.3013 1177.44 39.9513 1176.99 39.5033C1176.54 39.046 1176.19 38.5093 1175.94 37.8933C1175.69 37.2773 1175.56 36.6053 1175.56 35.8773C1175.56 35.1493 1175.69 34.4773 1175.94 33.8613C1176.19 33.2453 1176.54 32.7133 1176.99 32.2653C1177.44 31.808 1177.96 31.458 1178.55 31.2153C1179.14 30.9633 1179.78 30.8373 1180.46 30.8373C1181.18 30.8373 1181.78 30.926 1182.27 31.1033C1182.76 31.2807 1183.2 31.5513 1183.61 31.9153V33.4833C1183.39 33.194 1183.12 32.942 1182.8 32.7273C1182.48 32.5033 1182.13 32.3307 1181.74 32.2093C1181.36 32.088 1180.93 32.0273 1180.46 32.0273C1179.82 32.0273 1179.22 32.1907 1178.67 32.5173C1178.12 32.844 1177.67 33.2967 1177.33 33.8753C1176.99 34.4447 1176.82 35.112 1176.82 35.8773ZM1184.92 37.5573C1184.92 36.904 1185.07 36.3253 1185.36 35.8213C1185.66 35.3173 1186.06 34.9207 1186.56 34.6313C1187.07 34.342 1187.63 34.1973 1188.26 34.1973C1188.89 34.1973 1189.46 34.342 1189.95 34.6313C1190.45 34.9207 1190.85 35.3173 1191.14 35.8213C1191.44 36.3253 1191.59 36.904 1191.59 37.5573C1191.59 38.2013 1191.44 38.78 1191.14 39.2933C1190.85 39.7973 1190.45 40.194 1189.95 40.4833C1189.46 40.7727 1188.89 40.9173 1188.26 40.9173C1187.63 40.9173 1187.07 40.7727 1186.56 40.4833C1186.06 40.194 1185.66 39.7973 1185.36 39.2933C1185.07 38.78 1184.92 38.2013 1184.92 37.5573ZM1186.06 37.5573C1186.06 38.0053 1186.15 38.402 1186.34 38.7473C1186.53 39.0927 1186.8 39.368 1187.12 39.5733C1187.46 39.7693 1187.84 39.8673 1188.26 39.8673C1188.68 39.8673 1189.05 39.7693 1189.38 39.5733C1189.71 39.368 1189.97 39.0927 1190.16 38.7473C1190.36 38.402 1190.45 38.0053 1190.45 37.5573C1190.45 37.1093 1190.36 36.7127 1190.16 36.3673C1189.97 36.0127 1189.71 35.7373 1189.38 35.5413C1189.05 35.3453 1188.68 35.2473 1188.26 35.2473C1187.84 35.2473 1187.46 35.3453 1187.12 35.5413C1186.8 35.7373 1186.53 36.0127 1186.34 36.3673C1186.15 36.7127 1186.06 37.1093 1186.06 37.5573ZM1197.1 36.8573C1197.1 36.3253 1196.99 35.924 1196.75 35.6533C1196.52 35.3827 1196.18 35.2473 1195.73 35.2473C1195.4 35.2473 1195.11 35.3173 1194.86 35.4573C1194.62 35.588 1194.43 35.7747 1194.29 36.0173C1194.16 36.26 1194.09 36.54 1194.09 36.8573V40.7773H1192.97V34.3373H1194.09V35.3453C1194.31 34.9533 1194.57 34.664 1194.89 34.4773C1195.22 34.2907 1195.59 34.1973 1196.01 34.1973C1196.69 34.1973 1197.23 34.426 1197.62 34.8833C1198.02 35.3313 1198.22 35.9427 1198.22 36.7173V40.7773H1197.1V36.8573ZM1199.68 34.3373H1202.9V35.3873H1199.68V34.3373ZM1202.79 31.2013C1202.7 31.0427 1202.59 30.9447 1202.46 30.9073C1202.33 30.8607 1202.22 30.8373 1202.11 30.8373C1201.97 30.8373 1201.84 30.8793 1201.74 30.9633C1201.65 31.038 1201.57 31.1687 1201.52 31.3553C1201.46 31.542 1201.43 31.7893 1201.43 32.0973V40.7773H1200.31V31.9573C1200.31 31.444 1200.39 31.024 1200.54 30.6973C1200.69 30.3707 1200.9 30.128 1201.17 29.9693C1201.45 29.8013 1201.78 29.7173 1202.18 29.7173C1202.38 29.7173 1202.56 29.7453 1202.72 29.8013C1202.88 29.8573 1203.02 29.9273 1203.13 30.0113C1203.25 30.0953 1203.34 30.184 1203.41 30.2773L1202.79 31.2013ZM1204.03 31.6773C1204.03 31.4627 1204.1 31.2807 1204.25 31.1313C1204.41 30.982 1204.59 30.9073 1204.8 30.9073C1205.01 30.9073 1205.19 30.982 1205.34 31.1313C1205.49 31.2807 1205.57 31.4627 1205.57 31.6773C1205.57 31.8827 1205.49 32.0647 1205.34 32.2233C1205.19 32.3727 1205.01 32.4473 1204.8 32.4473C1204.59 32.4473 1204.41 32.3727 1204.25 32.2233C1204.1 32.0647 1204.03 31.8827 1204.03 31.6773ZM1204.24 34.3373H1205.36V40.7773H1204.24V34.3373ZM1208.63 34.3373V40.7773H1207.51V34.3373H1208.63ZM1210.57 35.5693C1210.43 35.4573 1210.29 35.378 1210.17 35.3313C1210.05 35.2753 1209.89 35.2473 1209.71 35.2473C1209.43 35.2473 1209.21 35.3173 1209.05 35.4573C1208.89 35.5973 1208.78 35.7887 1208.71 36.0313C1208.66 36.274 1208.63 36.5493 1208.63 36.8573H1208.12C1208.12 36.344 1208.21 35.8913 1208.39 35.4993C1208.58 35.098 1208.82 34.7807 1209.1 34.5473C1209.39 34.314 1209.69 34.1973 1209.99 34.1973C1210.22 34.1973 1210.43 34.23 1210.63 34.2953C1210.84 34.3513 1211.02 34.468 1211.19 34.6453L1210.57 35.5693ZM1220.97 36.7173V40.7773H1219.85V36.8573C1219.85 36.3067 1219.75 35.9007 1219.55 35.6393C1219.35 35.378 1219.04 35.2473 1218.62 35.2473C1218.31 35.2473 1218.05 35.3127 1217.82 35.4433C1217.6 35.5647 1217.43 35.7467 1217.31 35.9893C1217.18 36.232 1217.12 36.5213 1217.12 36.8573V40.7773H1216V36.8573C1216 36.3067 1215.9 35.9007 1215.7 35.6393C1215.5 35.378 1215.19 35.2473 1214.77 35.2473C1214.46 35.2473 1214.2 35.3127 1213.97 35.4433C1213.75 35.5647 1213.58 35.7467 1213.46 35.9893C1213.33 36.232 1213.27 36.5213 1213.27 36.8573V40.7773H1212.15V34.3373H1213.27V35.2753C1213.47 34.9113 1213.71 34.6407 1214 34.4633C1214.3 34.286 1214.65 34.1973 1215.05 34.1973C1215.5 34.1973 1215.88 34.3047 1216.2 34.5193C1216.53 34.7247 1216.76 35.0187 1216.91 35.4013C1217.14 35 1217.42 34.7013 1217.75 34.5053C1218.09 34.3 1218.47 34.1973 1218.9 34.1973C1219.34 34.1973 1219.71 34.2953 1220.02 34.4913C1220.33 34.6873 1220.56 34.9767 1220.72 35.3593C1220.89 35.7327 1220.97 36.1853 1220.97 36.7173ZM1223.43 38.7893C1223.43 39.032 1223.48 39.242 1223.6 39.4193C1223.72 39.5967 1223.88 39.732 1224.09 39.8253C1224.3 39.9093 1224.54 39.9513 1224.81 39.9513C1225.16 39.9513 1225.47 39.8813 1225.74 39.7413C1226.02 39.6013 1226.24 39.4053 1226.4 39.1533C1226.56 38.892 1226.65 38.5933 1226.65 38.2573L1226.87 39.0973C1226.87 39.508 1226.75 39.8487 1226.49 40.1193C1226.25 40.39 1225.95 40.5907 1225.58 40.7213C1225.23 40.852 1224.87 40.9173 1224.52 40.9173C1224.13 40.9173 1223.76 40.838 1223.41 40.6793C1223.08 40.5113 1222.81 40.2733 1222.6 39.9653C1222.4 39.6573 1222.29 39.284 1222.29 38.8453C1222.29 38.22 1222.51 37.7207 1222.95 37.3473C1223.4 36.9647 1224.02 36.7733 1224.81 36.7733C1225.28 36.7733 1225.67 36.8293 1225.98 36.9413C1226.29 37.044 1226.54 37.1653 1226.73 37.3053C1226.92 37.436 1227.04 37.5433 1227.11 37.6273V38.2853C1226.78 38.0613 1226.45 37.9027 1226.1 37.8093C1225.76 37.7067 1225.39 37.6553 1225 37.6553C1224.63 37.6553 1224.33 37.702 1224.1 37.7953C1223.88 37.8887 1223.71 38.0193 1223.6 38.1873C1223.48 38.3553 1223.43 38.556 1223.43 38.7893ZM1223.26 35.8213L1222.71 34.9953C1222.96 34.818 1223.29 34.6407 1223.71 34.4633C1224.14 34.286 1224.65 34.1973 1225.25 34.1973C1225.75 34.1973 1226.19 34.2767 1226.56 34.4353C1226.95 34.5847 1227.24 34.804 1227.45 35.0933C1227.66 35.3827 1227.77 35.7373 1227.77 36.1573V40.7773H1226.65V36.3113C1226.65 36.0873 1226.61 35.9053 1226.54 35.7653C1226.46 35.616 1226.35 35.4993 1226.21 35.4153C1226.08 35.3313 1225.93 35.2707 1225.75 35.2333C1225.57 35.196 1225.39 35.1773 1225.19 35.1773C1224.87 35.1773 1224.58 35.2147 1224.32 35.2893C1224.07 35.364 1223.86 35.4527 1223.68 35.5553C1223.5 35.658 1223.36 35.7467 1223.26 35.8213ZM1228.53 34.3373H1231.75V35.3873H1228.53V34.3373ZM1229.58 32.0973H1230.7V40.7773H1229.58V32.0973ZM1232.72 31.6773C1232.72 31.4627 1232.79 31.2807 1232.94 31.1313C1233.1 30.982 1233.28 30.9073 1233.49 30.9073C1233.7 30.9073 1233.89 30.982 1234.04 31.1313C1234.18 31.2807 1234.26 31.4627 1234.26 31.6773C1234.26 31.8827 1234.18 32.0647 1234.04 32.2233C1233.89 32.3727 1233.7 32.4473 1233.49 32.4473C1233.28 32.4473 1233.1 32.3727 1232.94 32.2233C1232.79 32.0647 1232.72 31.8827 1232.72 31.6773ZM1232.93 34.3373H1234.05V40.7773H1232.93V34.3373ZM1235.64 37.5573C1235.64 36.904 1235.79 36.3253 1236.08 35.8213C1236.37 35.3173 1236.78 34.9207 1237.28 34.6313C1237.78 34.342 1238.35 34.1973 1238.97 34.1973C1239.61 34.1973 1240.17 34.342 1240.67 34.6313C1241.17 34.9207 1241.57 35.3173 1241.86 35.8213C1242.16 36.3253 1242.31 36.904 1242.31 37.5573C1242.31 38.2013 1242.16 38.78 1241.86 39.2933C1241.57 39.7973 1241.17 40.194 1240.67 40.4833C1240.17 40.7727 1239.61 40.9173 1238.97 40.9173C1238.35 40.9173 1237.78 40.7727 1237.28 40.4833C1236.78 40.194 1236.37 39.7973 1236.08 39.2933C1235.79 38.78 1235.64 38.2013 1235.64 37.5573ZM1236.78 37.5573C1236.78 38.0053 1236.87 38.402 1237.06 38.7473C1237.25 39.0927 1237.51 39.368 1237.84 39.5733C1238.18 39.7693 1238.55 39.8673 1238.97 39.8673C1239.39 39.8673 1239.77 39.7693 1240.09 39.5733C1240.43 39.368 1240.69 39.0927 1240.88 38.7473C1241.07 38.402 1241.17 38.0053 1241.17 37.5573C1241.17 37.1093 1241.07 36.7127 1240.88 36.3673C1240.69 36.0127 1240.43 35.7373 1240.09 35.5413C1239.77 35.3453 1239.39 35.2473 1238.97 35.2473C1238.55 35.2473 1238.18 35.3453 1237.84 35.5413C1237.51 35.7373 1237.25 36.0127 1237.06 36.3673C1236.87 36.7127 1236.78 37.1093 1236.78 37.5573ZM1247.82 36.8573C1247.82 36.3253 1247.7 35.924 1247.47 35.6533C1247.24 35.3827 1246.9 35.2473 1246.45 35.2473C1246.12 35.2473 1245.83 35.3173 1245.58 35.4573C1245.34 35.588 1245.15 35.7747 1245.01 36.0173C1244.88 36.26 1244.81 36.54 1244.81 36.8573V40.7773H1243.69V34.3373H1244.81V35.3453C1245.02 34.9533 1245.29 34.664 1245.61 34.4773C1245.93 34.2907 1246.31 34.1973 1246.73 34.1973C1247.41 34.1973 1247.95 34.426 1248.34 34.8833C1248.74 35.3313 1248.94 35.9427 1248.94 36.7173V40.7773H1247.82V36.8573Z" fill="black"/>
<path d="M249.354 36.3536C249.549 36.1583 249.549 35.8417 249.354 35.6464L246.172 32.4645C245.976 32.2692 245.66 32.2692 245.464 32.4645C245.269 32.6597 245.269 32.9763 245.464 33.1716L248.293 36L245.464 38.8284C245.269 39.0237 245.269 39.3403 245.464 39.5355C245.66 39.7308 245.976 39.7308 246.172 39.5355L249.354 36.3536ZM201 36.5H249V35.5H201V36.5Z" fill="white"/>
<path d="M430.354 36.3536C430.549 36.1583 430.549 35.8417 430.354 35.6464L427.172 32.4645C426.976 32.2692 426.66 32.2692 426.464 32.4645C426.269 32.6597 426.269 32.9763 426.464 33.1716L429.293 36L426.464 38.8284C426.269 39.0237 426.269 39.3403 426.464 39.5355C426.66 39.7308 426.976 39.7308 427.172 39.5355L430.354 36.3536ZM382 36.5H430V35.5H382V36.5Z" fill="white"/>
<path d="M612.354 36.3536C612.549 36.1583 612.549 35.8417 612.354 35.6464L609.172 32.4645C608.976 32.2692 608.66 32.2692 608.464 32.4645C608.269 32.6597 608.269 32.9763 608.464 33.1716L611.293 36L608.464 38.8284C608.269 39.0237 608.269 39.3403 608.464 39.5355C608.66 39.7308 608.976 39.7308 609.172 39.5355L612.354 36.3536ZM564 36.5H612V35.5H564V36.5Z" fill="white"/>
<path d="M876.354 36.3536C876.549 36.1583 876.549 35.8417 876.354 35.6464L873.172 32.4645C872.976 32.2692 872.66 32.2692 872.464 32.4645C872.269 32.6597 872.269 32.9763 872.464 33.1716L875.293 36L872.464 38.8284C872.269 39.0237 872.269 39.3403 872.464 39.5355C872.66 39.7308 872.976 39.7308 873.172 39.5355L876.354 36.3536ZM828 36.5H876V35.5H828V36.5Z" fill="white"/>
<path d="M1124.35 36.3536C1124.55 36.1583 1124.55 35.8417 1124.35 35.6464L1121.17 32.4645C1120.98 32.2692 1120.66 32.2692 1120.46 32.4645C1120.27 32.6597 1120.27 32.9763 1120.46 33.1716L1123.29 36L1120.46 38.8284C1120.27 39.0237 1120.27 39.3403 1120.46 39.5355C1120.66 39.7308 1120.98 39.7308 1121.17 39.5355L1124.35 36.3536ZM1076 36.5H1124V35.5H1076V36.5Z" fill="white"/>
<rect x="34" y="9" width="158" height="54" fill="#0075C9" stroke="white" stroke-width="2"/>
<path d="M74.25 41.0273V36.7106C74.25 36.3839 74.25 36.2206 74.3136 36.0958C74.3695 35.986 74.4587 35.8968 74.5685 35.8409C74.6933 35.7773 74.8566 35.7773 75.1833 35.7773H76.8167C77.1434 35.7773 77.3067 35.7773 77.4315 35.8409C77.5413 35.8968 77.6305 35.986 77.6864 36.0958C77.75 36.2206 77.75 36.3839 77.75 36.7106V41.0273M75.427 30.3896L71.4706 33.4668C71.2062 33.6725 71.0739 33.7753 70.9787 33.9041C70.8943 34.0182 70.8314 34.1467 70.7932 34.2834C70.75 34.4377 70.75 34.6052 70.75 34.9402V39.1606C70.75 39.814 70.75 40.1407 70.8772 40.3903C70.989 40.6098 71.1675 40.7883 71.387 40.9001C71.6366 41.0273 71.9633 41.0273 72.6167 41.0273H79.3833C80.0367 41.0273 80.3634 41.0273 80.613 40.9001C80.8325 40.7883 81.011 40.6098 81.1228 40.3903C81.25 40.1407 81.25 39.814 81.25 39.1606V34.9402C81.25 34.6052 81.25 34.4377 81.2068 34.2834C81.1686 34.1467 81.1057 34.0182 81.0213 33.9041C80.9261 33.7753 80.7938 33.6725 80.5294 33.4668L76.573 30.3896C76.3681 30.2302 76.2656 30.1505 76.1525 30.1199C76.0526 30.0929 75.9474 30.0929 75.8475 30.1199C75.7344 30.1505 75.6319 30.2302 75.427 30.3896Z" stroke="white" stroke-linecap="round" stroke-linejoin="round"/>
<path d="M92.9313 36.0173V34.8973H99.6513V36.0173H92.9313ZM98.8533 30.9773H100.043V40.7773H98.8533V30.9773ZM92.2733 30.9773H93.4633V40.7773H92.2733V30.9773ZM101.651 37.5573C101.651 36.904 101.796 36.3253 102.085 35.8213C102.384 35.3173 102.785 34.9207 103.289 34.6313C103.793 34.342 104.358 34.1973 104.983 34.1973C105.618 34.1973 106.182 34.342 106.677 34.6313C107.181 34.9207 107.578 35.3173 107.867 35.8213C108.166 36.3253 108.315 36.904 108.315 37.5573C108.315 38.2013 108.166 38.78 107.867 39.2933C107.578 39.7973 107.181 40.194 106.677 40.4833C106.182 40.7727 105.618 40.9173 104.983 40.9173C104.358 40.9173 103.793 40.7727 103.289 40.4833C102.785 40.194 102.384 39.7973 102.085 39.2933C101.796 38.78 101.651 38.2013 101.651 37.5573ZM102.785 37.5573C102.785 38.0053 102.878 38.402 103.065 38.7473C103.261 39.0927 103.522 39.368 103.849 39.5733C104.185 39.7693 104.563 39.8673 104.983 39.8673C105.403 39.8673 105.776 39.7693 106.103 39.5733C106.439 39.368 106.7 39.0927 106.887 38.7473C107.083 38.402 107.181 38.0053 107.181 37.5573C107.181 37.1093 107.083 36.7127 106.887 36.3673C106.7 36.0127 106.439 35.7373 106.103 35.5413C105.776 35.3453 105.403 35.2473 104.983 35.2473C104.563 35.2473 104.185 35.3453 103.849 35.5413C103.522 35.7373 103.261 36.0127 103.065 36.3673C102.878 36.7127 102.785 37.1093 102.785 37.5573ZM118.674 36.7173V40.7773H117.554V36.8573C117.554 36.3067 117.451 35.9007 117.246 35.6393C117.05 35.378 116.742 35.2473 116.322 35.2473C116.014 35.2473 115.748 35.3127 115.524 35.4433C115.3 35.5647 115.127 35.7467 115.006 35.9893C114.884 36.232 114.824 36.5213 114.824 36.8573V40.7773H113.704V36.8573C113.704 36.3067 113.601 35.9007 113.396 35.6393C113.2 35.378 112.892 35.2473 112.472 35.2473C112.164 35.2473 111.898 35.3127 111.674 35.4433C111.45 35.5647 111.277 35.7467 111.156 35.9893C111.034 36.232 110.974 36.5213 110.974 36.8573V40.7773H109.854V34.3373H110.974V35.2753C111.17 34.9113 111.412 34.6407 111.702 34.4633C112 34.286 112.35 34.1973 112.752 34.1973C113.2 34.1973 113.582 34.3047 113.9 34.5193C114.226 34.7247 114.464 35.0187 114.614 35.4013C114.838 35 115.118 34.7013 115.454 34.5053C115.79 34.3 116.172 34.1973 116.602 34.1973C117.04 34.1973 117.414 34.2953 117.722 34.4913C118.03 34.6873 118.263 34.9767 118.422 35.3593C118.59 35.7327 118.674 36.1853 118.674 36.7173ZM123.27 40.9173C122.672 40.9173 122.14 40.7773 121.674 40.4973C121.216 40.208 120.857 39.8113 120.596 39.3073C120.344 38.8033 120.218 38.22 120.218 37.5573C120.218 36.8853 120.348 36.2973 120.61 35.7933C120.88 35.2893 121.254 34.8973 121.73 34.6173C122.215 34.3373 122.775 34.1973 123.41 34.1973C124.044 34.1973 124.586 34.3327 125.034 34.6033C125.491 34.8647 125.841 35.2427 126.084 35.7373C126.326 36.232 126.448 36.82 126.448 37.5013C126.448 37.5667 126.443 37.6367 126.434 37.7113C126.434 37.7767 126.434 37.8187 126.434 37.8373H120.932V36.8853H125.552L125.104 37.5293C125.132 37.4827 125.16 37.4127 125.188 37.3193C125.216 37.2167 125.23 37.1327 125.23 37.0673C125.23 36.6847 125.15 36.3533 124.992 36.0733C124.842 35.7933 124.632 35.574 124.362 35.4153C124.091 35.2567 123.774 35.1773 123.41 35.1773C122.98 35.1773 122.612 35.2707 122.304 35.4573C122.005 35.6347 121.772 35.896 121.604 36.2413C121.445 36.5773 121.361 36.9927 121.352 37.4873C121.352 37.9913 121.431 38.4207 121.59 38.7753C121.748 39.13 121.982 39.4007 122.29 39.5873C122.598 39.774 122.971 39.8673 123.41 39.8673C123.848 39.8673 124.236 39.774 124.572 39.5873C124.908 39.3913 125.192 39.0973 125.426 38.7053L126.336 39.2793C126 39.8207 125.575 40.2313 125.062 40.5113C124.558 40.782 123.96 40.9173 123.27 40.9173ZM129.033 43.8573H127.913V34.3373H129.033V43.8573ZM134.423 37.5573C134.423 38.248 134.278 38.8453 133.989 39.3493C133.699 39.8533 133.312 40.2407 132.827 40.5113C132.351 40.782 131.819 40.9173 131.231 40.9173C130.699 40.9173 130.227 40.782 129.817 40.5113C129.415 40.2407 129.098 39.8533 128.865 39.3493C128.641 38.8453 128.529 38.248 128.529 37.5573C128.529 36.8573 128.641 36.26 128.865 35.7653C129.098 35.2613 129.415 34.874 129.817 34.6033C130.227 34.3327 130.699 34.1973 131.231 34.1973C131.819 34.1973 132.351 34.3327 132.827 34.6033C133.312 34.874 133.699 35.2613 133.989 35.7653C134.278 36.26 134.423 36.8573 134.423 37.5573ZM133.289 37.5573C133.289 37.0627 133.186 36.6427 132.981 36.2973C132.785 35.952 132.519 35.6907 132.183 35.5133C131.856 35.336 131.492 35.2473 131.091 35.2473C130.764 35.2473 130.442 35.336 130.125 35.5133C129.807 35.6907 129.546 35.952 129.341 36.2973C129.135 36.6427 129.033 37.0627 129.033 37.5573C129.033 38.052 129.135 38.472 129.341 38.8173C129.546 39.1627 129.807 39.424 130.125 39.6013C130.442 39.7787 130.764 39.8673 131.091 39.8673C131.492 39.8673 131.856 39.7787 132.183 39.6013C132.519 39.424 132.785 39.1627 132.981 38.8173C133.186 38.472 133.289 38.052 133.289 37.5573ZM136.471 38.7893C136.471 39.032 136.527 39.242 136.639 39.4193C136.76 39.5967 136.924 39.732 137.129 39.8253C137.344 39.9093 137.586 39.9513 137.857 39.9513C138.202 39.9513 138.51 39.8813 138.781 39.7413C139.061 39.6013 139.28 39.4053 139.439 39.1533C139.607 38.892 139.691 38.5933 139.691 38.2573L139.915 39.0973C139.915 39.508 139.789 39.8487 139.537 40.1193C139.294 40.39 138.991 40.5907 138.627 40.7213C138.272 40.852 137.918 40.9173 137.563 40.9173C137.171 40.9173 136.802 40.838 136.457 40.6793C136.121 40.5113 135.85 40.2733 135.645 39.9653C135.44 39.6573 135.337 39.284 135.337 38.8453C135.337 38.22 135.556 37.7207 135.995 37.3473C136.443 36.9647 137.064 36.7733 137.857 36.7733C138.324 36.7733 138.711 36.8293 139.019 36.9413C139.336 37.044 139.588 37.1653 139.775 37.3053C139.962 37.436 140.088 37.5433 140.153 37.6273V38.2853C139.826 38.0613 139.49 37.9027 139.145 37.8093C138.8 37.7067 138.431 37.6553 138.039 37.6553C137.675 37.6553 137.376 37.702 137.143 37.7953C136.919 37.8887 136.751 38.0193 136.639 38.1873C136.527 38.3553 136.471 38.556 136.471 38.7893ZM136.303 35.8213L135.757 34.9953C136 34.818 136.331 34.6407 136.751 34.4633C137.18 34.286 137.694 34.1973 138.291 34.1973C138.795 34.1973 139.234 34.2767 139.607 34.4353C139.99 34.5847 140.284 34.804 140.489 35.0933C140.704 35.3827 140.811 35.7373 140.811 36.1573V40.7773H139.691V36.3113C139.691 36.0873 139.654 35.9053 139.579 35.7653C139.504 35.616 139.397 35.4993 139.257 35.4153C139.126 35.3313 138.972 35.2707 138.795 35.2333C138.618 35.196 138.431 35.1773 138.235 35.1773C137.918 35.1773 137.628 35.2147 137.367 35.2893C137.115 35.364 136.9 35.4527 136.723 35.5553C136.546 35.658 136.406 35.7467 136.303 35.8213ZM142.273 41.1973H143.407C143.407 41.5053 143.491 41.79 143.659 42.0513C143.827 42.322 144.065 42.5367 144.373 42.6953C144.681 42.8633 145.045 42.9473 145.465 42.9473C145.792 42.9473 146.114 42.868 146.431 42.7093C146.749 42.5507 147.01 42.2987 147.215 41.9533C147.43 41.6173 147.537 41.1787 147.537 40.6373V34.3373H148.657V40.6373C148.657 41.3747 148.503 41.9907 148.195 42.4853C147.887 42.9893 147.491 43.3673 147.005 43.6193C146.52 43.8713 146.007 43.9973 145.465 43.9973C144.84 43.9973 144.285 43.8807 143.799 43.6473C143.323 43.414 142.95 43.0827 142.679 42.6533C142.409 42.2333 142.273 41.748 142.273 41.1973ZM142.147 37.5573C142.147 36.8573 142.292 36.26 142.581 35.7653C142.871 35.2613 143.258 34.874 143.743 34.6033C144.229 34.3327 144.761 34.1973 145.339 34.1973C145.881 34.1973 146.352 34.3327 146.753 34.6033C147.155 34.874 147.467 35.2613 147.691 35.7653C147.925 36.26 148.041 36.8573 148.041 37.5573C148.041 38.248 147.925 38.8453 147.691 39.3493C147.467 39.8533 147.155 40.2407 146.753 40.5113C146.352 40.782 145.881 40.9173 145.339 40.9173C144.761 40.9173 144.229 40.782 143.743 40.5113C143.258 40.2407 142.871 39.8533 142.581 39.3493C142.292 38.8453 142.147 38.248 142.147 37.5573ZM143.281 37.5573C143.281 38.052 143.379 38.472 143.575 38.8173C143.781 39.1627 144.051 39.424 144.387 39.6013C144.723 39.7787 145.087 39.8673 145.479 39.8673C145.806 39.8673 146.128 39.7787 146.445 39.6013C146.763 39.424 147.024 39.1627 147.229 38.8173C147.435 38.472 147.537 38.052 147.537 37.5573C147.537 37.184 147.477 36.8573 147.355 36.5773C147.234 36.288 147.071 36.0453 146.865 35.8493C146.669 35.6533 146.45 35.504 146.207 35.4013C145.965 35.2987 145.722 35.2473 145.479 35.2473C145.087 35.2473 144.723 35.336 144.387 35.5133C144.051 35.6907 143.781 35.952 143.575 36.2973C143.379 36.6427 143.281 37.0627 143.281 37.5573ZM153.184 40.9173C152.586 40.9173 152.054 40.7773 151.588 40.4973C151.13 40.208 150.771 39.8113 150.51 39.3073C150.258 38.8033 150.132 38.22 150.132 37.5573C150.132 36.8853 150.262 36.2973 150.524 35.7933C150.794 35.2893 151.168 34.8973 151.644 34.6173C152.129 34.3373 152.689 34.1973 153.324 34.1973C153.958 34.1973 154.5 34.3327 154.948 34.6033C155.405 34.8647 155.755 35.2427 155.998 35.7373C156.24 36.232 156.362 36.82 156.362 37.5013C156.362 37.5667 156.357 37.6367 156.348 37.7113C156.348 37.7767 156.348 37.8187 156.348 37.8373H150.846V36.8853H155.466L155.018 37.5293C155.046 37.4827 155.074 37.4127 155.102 37.3193C155.13 37.2167 155.144 37.1327 155.144 37.0673C155.144 36.6847 155.064 36.3533 154.906 36.0733C154.756 35.7933 154.546 35.574 154.276 35.4153C154.005 35.2567 153.688 35.1773 153.324 35.1773C152.894 35.1773 152.526 35.2707 152.218 35.4573C151.919 35.6347 151.686 35.896 151.518 36.2413C151.359 36.5773 151.275 36.9927 151.266 37.4873C151.266 37.9913 151.345 38.4207 151.504 38.7753C151.662 39.13 151.896 39.4007 152.204 39.5873C152.512 39.774 152.885 39.8673 153.324 39.8673C153.762 39.8673 154.15 39.774 154.486 39.5873C154.822 39.3913 155.106 39.0973 155.34 38.7053L156.25 39.2793C155.914 39.8207 155.489 40.2313 154.976 40.5113C154.472 40.782 153.874 40.9173 153.184 40.9173Z" fill="white"/>
<path d="M1200.5 67C1200.5 66.7239 1200.28 66.5 1200 66.5C1199.72 66.5 1199.5 66.7239 1199.5 67H1200.5ZM30.3536 36.3536C30.5488 36.1583 30.5488 35.8417 30.3536 35.6464L27.1716 32.4645C26.9763 32.2692 26.6597 32.2692 26.4645 32.4645C26.2692 32.6597 26.2692 32.9763 26.4645 33.1716L29.2929 36L26.4645 38.8284C26.2692 39.0237 26.2692 39.3403 26.4645 39.5355C26.6597 39.7308 26.9763 39.7308 27.1716 39.5355L30.3536 36.3536ZM1199.5 67V72H1200.5V67H1199.5ZM1176 95.5H25V96.5H1176V95.5ZM1.5 72V60H0.5V72H1.5ZM25 36.5H30V35.5H25V36.5ZM1.5 60C1.5 47.0213 12.0213 36.5 25 36.5V35.5C11.469 35.5 0.5 46.469 0.5 60H1.5ZM25 95.5C12.0213 95.5 1.5 84.9787 1.5 72H0.5C0.5 85.531 11.469 96.5 25 96.5V95.5ZM1199.5 72C1199.5 84.9787 1188.98 95.5 1176 95.5V96.5C1189.53 96.5 1200.5 85.531 1200.5 72H1199.5Z" fill="white"/>
</svg>
