<svg width="45" height="55" viewBox="0 0 45 55" fill="none" xmlns="http://www.w3.org/2000/svg">
<path d="M27.2266 13.3125C27.5391 13.2969 27.8594 13.2969 28.1875 13.3125C28.1875 13.3125 28.1875 13.3281 28.1875 13.3594C28.2031 13.375 28.2109 13.3984 28.2109 13.4297C28.2266 13.4453 28.2344 13.4609 28.2344 13.4766C28.2344 13.5391 28.2266 13.5859 28.2109 13.6172C28.1953 13.6328 28.1797 13.6406 28.1641 13.6406C28.1328 13.6406 28.0938 13.6406 28.0469 13.6406C27.9844 13.6563 27.9141 13.6563 27.8359 13.6406C27.7422 13.6094 27.6797 13.7187 27.6484 13.9688C27.5859 14.2812 27.5078 14.3984 27.4141 14.3203C27.3516 14.2891 27.2969 14.3125 27.25 14.3906C27.2188 14.4531 27.1953 14.5547 27.1797 14.6953C27.1641 14.7578 27.1484 14.8125 27.1328 14.8594C27.1328 14.875 27.125 14.8984 27.1094 14.9297L27.0859 15.0469C27.0703 15.1094 27.0547 15.1563 27.0391 15.1875C27.0391 15.2187 27.0469 15.2422 27.0625 15.2578C27.0781 15.2734 27.1016 15.2969 27.1328 15.3281C27.1797 15.3906 27.2188 15.4766 27.25 15.5859C27.2969 15.6797 27.3281 15.7812 27.3438 15.8906C27.3438 15.9063 27.3359 15.9219 27.3203 15.9375C27.3203 15.9531 27.3203 15.9687 27.3203 15.9844C27.3203 16 27.3125 16.0078 27.2969 16.0078C27.2656 16.0078 27.2266 16.0078 27.1797 16.0078C25.0234 16.0547 22.875 16.1953 20.7344 16.4297C20.7031 16.4297 20.6797 16.4141 20.6641 16.3828C20.6484 16.3516 20.6328 16.3125 20.6172 16.2656C20.6016 16.25 20.5938 16.2344 20.5938 16.2188C20.5781 16.2031 20.5703 16.1875 20.5703 16.1719C20.5703 16.1562 20.5625 16.1406 20.5469 16.125C20.5469 16.1094 20.5469 16.1016 20.5469 16.1016C20.4531 16.1016 20.3594 16.1094 20.2656 16.125C20.2656 16.1406 20.2656 16.1562 20.2656 16.1719C20.2656 16.1719 20.2578 16.1875 20.2422 16.2188C20.2422 16.2344 20.2422 16.2422 20.2422 16.2422C20.2422 16.2578 20.2422 16.2656 20.2422 16.2656C20.2422 16.3281 20.2344 16.3828 20.2188 16.4297C20.2031 16.4609 20.1797 16.4766 20.1484 16.4766C18.8516 16.6328 17.5547 16.8125 16.2578 17.0156V22.7578C16.2578 22.7891 16.2422 22.8125 16.2109 22.8281C16.1797 22.8438 16.1406 22.8594 16.0938 22.875C16.0781 22.875 16.0625 22.8828 16.0469 22.8984C16.0312 22.8984 16.0156 22.8984 16 22.8984C15.9844 22.8984 15.9688 22.9062 15.9531 22.9219C15.9375 22.9219 15.9297 22.9219 15.9297 22.9219C15.9141 23.0312 15.9141 23.1328 15.9297 23.2266C15.9297 23.2266 15.9375 23.2344 15.9531 23.25C15.9688 23.25 15.9844 23.25 16 23.25C16.0156 23.25 16.0312 23.2578 16.0469 23.2734C16.1094 23.2891 16.1562 23.3047 16.1875 23.3203C16.2344 23.3359 16.2578 23.3594 16.2578 23.3906V44.8125C16.2578 44.8281 16.25 44.8438 16.2344 44.8594C16.2188 44.875 16.1875 44.8828 16.1406 44.8828C16.0938 44.8984 16.0469 44.8984 16 44.8828C15.9531 44.8516 15.9297 44.8203 15.9297 44.7891V44.6953L15.9062 43.6406C15.8906 43.625 15.875 43.6172 15.8594 43.6172C15.8594 43.6172 15.8516 43.6172 15.8359 43.6172C15.8203 43.6016 15.8047 43.5938 15.7891 43.5938C15.7734 43.5938 15.75 43.6016 15.7188 43.6172C15.7031 43.6172 15.6875 43.6172 15.6719 43.6172C15.6406 43.6328 15.6172 43.6484 15.6016 43.6641C15.5859 43.6641 15.5781 43.6719 15.5781 43.6875C15.5781 43.6875 15.5781 43.6953 15.5781 43.7109C15.5938 43.7266 15.5938 43.7422 15.5781 43.7578C15.5781 43.7734 15.5781 43.7969 15.5781 43.8281C15.5781 43.8438 15.5781 43.8594 15.5781 43.875C15.5938 43.9062 15.6016 43.9375 15.6016 43.9688C15.6016 44 15.5781 44.0312 15.5312 44.0625C15.4844 44.0781 15.4141 44.1016 15.3203 44.1328C15.2891 44.1328 15.2656 44.1484 15.25 44.1797C15.25 44.1953 15.25 44.2109 15.25 44.2266C15.25 44.3359 15.25 44.4453 15.25 44.5547C15.25 44.7422 15.25 44.9375 15.25 45.1406C15.2344 45.1406 15.2188 45.1406 15.2031 45.1406C15.1875 45.1562 15.1641 45.1719 15.1328 45.1875C15.1016 45.1875 15.0781 45.1953 15.0625 45.2109L14.9453 45.1641C14.8359 45.1328 14.6953 45.1172 14.5234 45.1172C14.4297 45.1016 14.3594 45.0938 14.3125 45.0938C14.2812 45.0938 14.2578 45.0859 14.2422 45.0703C14.2422 45.0547 14.2422 45.0391 14.2422 45.0234V44.5547C14.2422 44.4609 14.2422 44.375 14.2422 44.2969C14.2266 44.0312 14.2266 43.7656 14.2422 43.5C14.2422 43.4688 14.2188 43.4453 14.1719 43.4297C14.125 43.3984 14.0703 43.3828 14.0078 43.3828C13.9609 43.3672 13.9297 43.3516 13.9141 43.3359C13.8984 43.3203 13.8906 43.3047 13.8906 43.2891C13.8906 43.1484 13.8906 43.0078 13.8906 42.8672C13.8906 42.8203 13.8906 42.7734 13.8906 42.7266C13.8906 42.6953 13.8906 42.6641 13.8906 42.6328C13.8906 42.4609 13.8906 42.2891 13.8906 42.1172C13.8906 42.1172 13.8828 42.1172 13.8672 42.1172C13.8516 42.1016 13.8359 42.0938 13.8203 42.0938C13.8047 42.0938 13.7891 42.0859 13.7734 42.0703C13.7422 42.0703 13.7109 42.0781 13.6797 42.0938C13.6484 42.0938 13.6172 42.1016 13.5859 42.1172C13.5703 42.1172 13.5625 42.1172 13.5625 42.1172V44.0156C13.5625 44.0469 13.5391 44.0703 13.4922 44.0859C13.4453 44.0859 13.3672 44.0938 13.2578 44.1094C13.1641 44.1094 13.0781 44.1016 13 44.0859C12.9219 44.0703 12.8828 44.0547 12.8828 44.0391L12.8359 43.2188C12.8359 43.2188 12.8281 43.2188 12.8125 43.2188C12.7969 43.2031 12.7812 43.1953 12.7656 43.1953C12.75 43.1953 12.7344 43.1953 12.7188 43.1953C12.7031 43.1953 12.6875 43.1953 12.6719 43.1953C12.6562 43.1953 12.6406 43.2031 12.625 43.2188C12.6094 43.2188 12.6016 43.2188 12.6016 43.2188C12.5703 43.2812 12.5469 43.3438 12.5312 43.4062C12.5312 43.4531 12.5312 43.5078 12.5312 43.5703C12.5469 43.6328 12.5469 43.6953 12.5312 43.7578C12.5312 43.8047 12.5391 43.8594 12.5547 43.9219C12.5547 43.9531 12.5547 43.9922 12.5547 44.0391C12.5547 44.0859 12.5312 44.125 12.4844 44.1562C12.4688 44.1719 12.4531 44.1797 12.4375 44.1797C12.4375 44.1797 12.4297 44.1875 12.4141 44.2031C12.3984 44.2031 12.3828 44.2031 12.3672 44.2031C12.3516 44.2031 12.3359 44.2031 12.3203 44.2031C12.3047 44.1875 12.2891 44.1797 12.2734 44.1797C12.2578 44.1797 12.25 44.1719 12.25 44.1562C12.2188 44.0156 12.2031 43.8672 12.2031 43.7109C12.2031 43.6953 12.2031 43.6875 12.2031 43.6875C12.2031 43.6719 12.1953 43.6562 12.1797 43.6406C12.1641 43.625 12.1406 43.6172 12.1094 43.6172C12.0312 43.6016 11.9688 43.5859 11.9219 43.5703C11.8906 43.5391 11.8672 43.5156 11.8516 43.5C11.8516 43.4688 11.8516 43.4375 11.8516 43.4062L11.875 37.6172L11.8516 31.8281C11.8516 31.8125 11.8594 31.7969 11.875 31.7812C11.8906 31.7656 11.9141 31.75 11.9453 31.7344C12.0234 31.7188 12.125 31.7109 12.25 31.7109C12.2969 31.7109 12.3359 31.7188 12.3672 31.7344C12.4141 31.7344 12.4453 31.7344 12.4609 31.7344C12.4922 31.7344 12.5156 31.7422 12.5312 31.7578C12.5312 31.8672 12.5312 31.9844 12.5312 32.1094C12.5312 32.2344 12.5391 32.3516 12.5547 32.4609C12.5547 32.4766 12.5625 32.4922 12.5781 32.5078C12.6094 32.5078 12.6406 32.5078 12.6719 32.5078C12.7031 32.5078 12.7344 32.5078 12.7656 32.5078C12.7812 32.5078 12.7969 32.5078 12.8125 32.5078C12.8281 32.4922 12.8438 32.4844 12.8594 32.4844C12.875 32.4844 12.8828 32.4766 12.8828 32.4609C12.8828 32.3828 12.8828 32.2969 12.8828 32.2031C12.8672 32.1719 12.8594 32.1484 12.8594 32.1328C12.875 32.1016 12.8984 32.0781 12.9297 32.0625C12.9766 32.0312 13.0391 32.0078 13.1172 31.9922C13.1641 31.9766 13.1953 31.9609 13.2109 31.9453C13.2266 31.9297 13.2344 31.9141 13.2344 31.8984C13.2344 31.8828 13.2344 31.8672 13.2344 31.8516C13.2188 31.8359 13.2109 31.8203 13.2109 31.8047C13.2109 31.6484 13.2109 31.4922 13.2109 31.3359C13.2109 31.2422 13.2109 31.1406 13.2109 31.0312C13.2109 30.9375 13.2266 30.8359 13.2578 30.7266C13.2734 30.7266 13.2891 30.7266 13.3047 30.7266C13.3359 30.7109 13.3594 30.7031 13.375 30.7031C13.3906 30.7031 13.4062 30.7109 13.4219 30.7266C13.4531 30.7266 13.4766 30.7266 13.4922 30.7266C13.5078 30.7422 13.5234 30.7578 13.5391 30.7734C13.5547 30.7734 13.5625 30.7812 13.5625 30.7969C13.5625 30.8125 13.5625 30.8281 13.5625 30.8438C13.5625 30.8438 13.5625 30.8516 13.5625 30.8672V33.0469C13.5625 33.0938 13.5781 33.1406 13.6094 33.1875C13.6094 33.2031 13.6172 33.2188 13.6328 33.2344C13.6641 33.2344 13.6953 33.2344 13.7266 33.2344C13.7422 33.2344 13.7578 33.2344 13.7734 33.2344C13.7891 33.2188 13.7969 33.2109 13.7969 33.2109C13.8125 33.2109 13.8281 33.2031 13.8438 33.1875C13.875 33.1406 13.8906 33.0938 13.8906 33.0469V32.0391C13.8906 32.0234 13.8906 32.0156 13.8906 32.0156C13.8906 31.9844 13.8906 31.9531 13.8906 31.9219C13.9062 31.8906 13.9297 31.8672 13.9609 31.8516C14.0078 31.8203 14.0859 31.7891 14.1953 31.7578C14.2109 31.7578 14.2188 31.75 14.2188 31.7344C14.2344 31.7188 14.2422 31.7031 14.2422 31.6875C14.2266 31.6875 14.2188 31.6797 14.2188 31.6641C14.2344 31.5859 14.2344 31.5156 14.2188 31.4531C14.2188 31.2969 14.2266 31.1484 14.2422 31.0078C14.2422 30.9609 14.1719 30.9219 14.0312 30.8906C13.8906 30.8594 13.875 30.8359 13.9844 30.8203C14 30.8203 14.0156 30.8125 14.0312 30.7969C14.0781 30.7969 14.125 30.7891 14.1719 30.7734C14.2188 30.7422 14.2422 30.7109 14.2422 30.6797C14.2266 29.8359 14.2266 28.9922 14.2422 28.1484C14.2422 28.1328 14.2266 28.1172 14.1953 28.1016C14.1641 28.0859 14.125 28.0703 14.0781 28.0547C14.0469 28.0547 14.0156 28.0469 13.9844 28.0312C13.8438 27.9844 13.8594 27.9297 14.0312 27.8672C14.0625 27.8516 14.0859 27.8438 14.1016 27.8438C14.1328 27.8281 14.1562 27.8203 14.1719 27.8203C14.2031 27.8047 14.2188 27.7891 14.2188 27.7734C14.2344 27.6797 14.2422 27.5938 14.2422 27.5156C14.2422 27.4844 14.2344 27.4531 14.2188 27.4219C14.2344 27.375 14.125 27.3516 13.8906 27.3516C13.6719 27.3359 13.5625 27.3047 13.5625 27.2578C13.5469 27.2109 13.5469 27.1641 13.5625 27.1172C13.5469 27.0703 13.6641 27.0469 13.9141 27.0469C14.0234 27.0312 14.1016 27.0234 14.1484 27.0234C14.2109 27.0078 14.2344 26.9844 14.2188 26.9531C14.2344 26.875 14.2344 26.7891 14.2188 26.6953C14.2188 26.6953 14.2109 26.6953 14.1953 26.6953C14.1953 26.6797 14.1797 26.6719 14.1484 26.6719C14.1484 26.6719 14.1484 26.6641 14.1484 26.6484C14.0703 26.6328 13.9922 26.6406 13.9141 26.6719C13.8516 26.7031 13.7891 26.7266 13.7266 26.7422C13.6641 26.7578 13.6094 26.7734 13.5625 26.7891C13.4688 26.8203 13.3828 26.8281 13.3047 26.8125C13.2891 26.8125 13.2656 26.8125 13.2344 26.8125C13.2188 26.7969 13.2109 26.7812 13.2109 26.7656V25.4062C13.2109 25.3438 13.2109 25.2891 13.2109 25.2422C13.1953 25.2109 13.1875 25.1797 13.1875 25.1484C13.0625 25.1328 12.9766 25.1094 12.9297 25.0781C12.8828 25.0312 12.8516 24.9844 12.8359 24.9375C12.8359 24.9375 12.8281 24.9375 12.8125 24.9375C12.7969 24.9219 12.7812 24.9141 12.7656 24.9141C12.75 24.9141 12.7344 24.9141 12.7188 24.9141C12.7031 24.9141 12.6875 24.9141 12.6719 24.9141C12.6562 24.9141 12.6406 24.9219 12.625 24.9375C12.6094 24.9375 12.6016 24.9375 12.6016 24.9375C12.5547 25 12.5312 25.0703 12.5312 25.1484V29.8594C12.5312 29.875 12.5391 29.8906 12.5547 29.9062C12.5547 29.9375 12.5469 29.9688 12.5312 30C12.5312 30.0156 12.5156 30.0312 12.4844 30.0469C12.4688 30.0625 12.4453 30.0781 12.4141 30.0938C12.3984 30.0938 12.3828 30.0859 12.3672 30.0703C12.3516 30.0703 12.3281 30.0703 12.2969 30.0703C12.2812 30.0703 12.2656 30.0703 12.25 30.0703C12.25 30.0547 12.25 30.0469 12.25 30.0469C12.2188 29.8438 12.2031 29.6406 12.2031 29.4375C12.2031 29.4062 12.2031 29.375 12.2031 29.3438C12.1875 29.1094 12.1875 28.875 12.2031 28.6406C12.2188 28.5469 12.1094 28.4688 11.875 28.4062C11.8594 28.4062 11.8516 28.3984 11.8516 28.3828C11.8516 28.3672 11.8594 28.3516 11.875 28.3359C11.9062 28.3047 11.9375 28.2891 11.9688 28.2891C11.9844 28.2734 12.0078 28.2578 12.0391 28.2422C12.0859 28.2422 12.125 28.2344 12.1562 28.2188C12.1875 28.2031 12.2031 28.1797 12.2031 28.1484V23.9531C12.2031 23.9375 12.2109 23.9297 12.2266 23.9297C12.2422 23.9297 12.2578 23.9297 12.2734 23.9297C12.2891 23.9141 12.3047 23.9062 12.3203 23.9062C12.3672 23.9062 12.4062 23.9141 12.4375 23.9297C12.4844 23.9297 12.5156 23.9375 12.5312 23.9531C12.5469 23.9688 12.5547 23.9844 12.5547 24C12.5547 24.0156 12.5547 24.0312 12.5547 24.0469C12.5391 24.0625 12.5312 24.0781 12.5312 24.0938C12.5312 24.125 12.5312 24.1484 12.5312 24.1641C12.5469 24.2891 12.5547 24.4219 12.5547 24.5625C12.5547 24.5625 12.5625 24.5703 12.5781 24.5859C12.5938 24.5859 12.6094 24.5859 12.625 24.5859C12.6406 24.5859 12.6562 24.5859 12.6719 24.5859C12.7188 24.5859 12.7578 24.5859 12.7891 24.5859C12.8359 24.5703 12.8672 24.5547 12.8828 24.5391V22.1953C12.8828 22.1797 12.8828 22.1641 12.8828 22.1484C12.8828 22.1172 12.8828 22.0938 12.8828 22.0781C12.8828 22.0469 12.8594 22.0234 12.8125 22.0078C12.7812 21.9766 12.7109 21.9531 12.6016 21.9375C12.5859 21.9219 12.5703 21.9062 12.5547 21.8906C12.5391 21.875 12.5312 21.8594 12.5312 21.8438C12.5312 21.7344 12.5312 21.625 12.5312 21.5156C12.5625 21.3438 12.5469 21.1641 12.4844 20.9766C12.4844 20.9766 12.4766 20.9766 12.4609 20.9766C12.4453 20.9609 12.4297 20.9531 12.4141 20.9531C12.3984 20.9531 12.3828 20.9531 12.3672 20.9531C12.3516 20.9531 12.3359 20.9531 12.3203 20.9531C12.3047 20.9531 12.2891 20.9609 12.2734 20.9766C12.2578 20.9766 12.25 20.9766 12.25 20.9766C12.2344 21.0703 12.2266 21.1562 12.2266 21.2344C12.2266 21.3438 12.2188 21.4609 12.2031 21.5859C12.1875 21.6016 12.1641 21.6172 12.1328 21.6328C12.1172 21.6328 12.0938 21.6406 12.0625 21.6562C12.0469 21.6562 12.0312 21.6562 12.0156 21.6562C11.9531 21.6406 11.9062 21.625 11.875 21.6094C11.8594 21.5938 11.8516 21.5781 11.8516 21.5625C11.8672 21.5469 11.8672 21.5234 11.8516 21.4922C11.8516 21.4922 11.8516 21.4844 11.8516 21.4688V17.8359C8.24219 18.6172 4.71094 19.6484 1.25781 20.9297C1.24219 20.9453 1.22656 20.9453 1.21094 20.9297C1.17969 20.9141 1.15625 20.8828 1.14062 20.8359C1.10938 20.7891 1.09375 20.7422 1.09375 20.6953C1.09375 20.6484 1.10938 20.6172 1.14062 20.6016L1.23438 20.5781L2.125 20.2266C2.14062 20.2109 2.14844 20.2031 2.14844 20.2031C2.13281 20.1875 2.125 20.1719 2.125 20.1562C2.125 20.125 2.125 20.1016 2.125 20.0859C2.125 20.0859 2.11719 20.0781 2.10156 20.0625C2.08594 20.0312 2.07812 20.0078 2.07812 19.9922C2.04688 19.9766 2.03125 19.9688 2.03125 19.9688C2.01562 19.9531 2 19.9453 1.98438 19.9453C1.96875 19.9453 1.96094 19.9453 1.96094 19.9453C1.94531 19.9609 1.92969 19.9688 1.91406 19.9688C1.89844 19.9688 1.88281 19.9766 1.86719 19.9922C1.85156 19.9922 1.83594 20 1.82031 20.0156C1.80469 20.0312 1.78125 20.0469 1.75 20.0625C1.71875 20.0625 1.6875 20.0469 1.65625 20.0156C1.60938 19.9844 1.55469 19.9219 1.49219 19.8281C1.47656 19.7969 1.46094 19.7812 1.44531 19.7812C1.42969 19.7812 1.41406 19.7812 1.39844 19.7812C1.39844 19.7969 1.39844 19.8047 1.39844 19.8047C1.30469 19.8359 1.21094 19.8672 1.11719 19.8984C0.945312 19.9609 0.773438 20.0156 0.601562 20.0625C0.601562 20.0625 0.59375 20.0547 0.578125 20.0391C0.5625 20.0234 0.546875 20.0078 0.53125 19.9922C0.515625 19.9609 0.5 19.9375 0.484375 19.9219V19.8047C0.46875 19.6953 0.4375 19.5547 0.390625 19.3828C0.359375 19.3047 0.34375 19.25 0.34375 19.2188C0.328125 19.1719 0.328125 19.1406 0.34375 19.125C0.34375 19.1094 0.351562 19.0938 0.367188 19.0781L0.765625 18.9375C0.84375 18.9062 0.921875 18.8828 1 18.8672C1.23438 18.7734 1.46875 18.6875 1.70312 18.6094C1.73438 18.5938 1.75 18.5625 1.75 18.5156C1.75 18.4688 1.74219 18.4141 1.72656 18.3516C1.72656 18.3047 1.73438 18.2734 1.75 18.2578C1.75 18.2266 1.75781 18.2109 1.77344 18.2109C1.89844 18.1797 2.02344 18.1406 2.14844 18.0938C2.19531 18.0781 2.23438 18.0625 2.26562 18.0469C2.29688 18.0469 2.32031 18.0391 2.33594 18.0234C2.49219 17.9766 2.64844 17.9219 2.80469 17.8594C2.80469 17.8594 2.80469 17.8516 2.80469 17.8359C2.80469 17.8203 2.80469 17.8047 2.80469 17.7891C2.80469 17.7734 2.80469 17.7578 2.80469 17.7422C2.78906 17.7109 2.78125 17.6875 2.78125 17.6719C2.76562 17.6406 2.75 17.6172 2.73438 17.6016C2.71875 17.5703 2.70312 17.5547 2.6875 17.5547C2.125 17.7422 1.57031 17.9375 1.02344 18.1406C0.992188 18.1406 0.96875 18.125 0.953125 18.0938C0.921875 18.0625 0.882812 17.9922 0.835938 17.8828C0.804688 17.7891 0.78125 17.7031 0.765625 17.625C0.75 17.5469 0.75 17.5078 0.765625 17.5078L1.46875 17.2031C1.48438 17.2031 1.49219 17.1953 1.49219 17.1797C1.49219 17.1641 1.49219 17.1484 1.49219 17.1328C1.47656 17.1172 1.46875 17.1016 1.46875 17.0859C1.46875 17.0703 1.46875 17.0547 1.46875 17.0391C1.45312 17.0234 1.44531 17.0156 1.44531 17.0156C1.42969 17 1.41406 16.9922 1.39844 16.9922C1.33594 16.9609 1.28125 16.9531 1.23438 16.9688C1.1875 16.9844 1.13281 17.0078 1.07031 17.0391C1.02344 17.0703 0.960938 17.0859 0.882812 17.0859C0.851562 17.1016 0.8125 17.125 0.765625 17.1562C0.734375 17.1719 0.703125 17.1875 0.671875 17.2031C0.625 17.2031 0.570312 17.1875 0.507812 17.1562C0.492188 17.1406 0.484375 17.125 0.484375 17.1094C0.46875 17.0938 0.460938 17.0781 0.460938 17.0625C0.445312 17.0469 0.4375 17.0312 0.4375 17.0156C0.4375 17 0.4375 16.9844 0.4375 16.9688C0.4375 16.9531 0.4375 16.9453 0.4375 16.9453C0.5625 16.8828 0.695312 16.8203 0.835938 16.7578C0.851562 16.7578 0.867188 16.7578 0.882812 16.7578C0.882812 16.7422 0.882812 16.7266 0.882812 16.7109C0.882812 16.6953 0.882812 16.6797 0.882812 16.6641C0.867188 16.5703 0.867188 16.5078 0.882812 16.4766C0.882812 16.4297 0.898438 16.3984 0.929688 16.3828C0.945312 16.3672 0.960938 16.3516 0.976562 16.3359C0.992188 16.3359 1 16.3359 1 16.3359C2.75 15.7266 4.51562 15.1719 6.29688 14.6719C8.07812 14.1875 9.875 13.75 11.6875 13.3594C11.7031 13.3594 11.7188 13.3672 11.7344 13.3828C11.75 13.3828 11.7656 13.4062 11.7812 13.4531C11.8281 13.5156 11.8594 13.6094 11.875 13.7344C11.875 13.7812 11.875 13.8281 11.875 13.875C11.8906 13.9062 11.8984 13.9375 11.8984 13.9688C11.8984 13.9844 11.8906 14 11.875 14.0156C11.7812 14.0469 11.6797 14.0703 11.5703 14.0859C11.4609 14.1172 11.3516 14.1484 11.2422 14.1797C11.2266 14.1797 11.2188 14.1953 11.2188 14.2266C11.2188 14.2422 11.2188 14.2734 11.2188 14.3203C11.2188 14.3516 11.2266 14.375 11.2422 14.3906C11.2422 14.4063 11.2422 14.4219 11.2422 14.4375C11.2578 14.4531 11.2656 14.4687 11.2656 14.4844C11.2812 14.4844 11.2891 14.4844 11.2891 14.4844C11.3828 14.4844 11.4688 14.4687 11.5469 14.4375C11.5781 14.4375 11.6016 14.4375 11.6172 14.4375C11.6484 14.4375 11.6719 14.4531 11.6875 14.4844C11.7188 14.5156 11.7578 14.5703 11.8047 14.6484C11.8203 14.6797 11.8359 14.7031 11.8516 14.7188C11.8672 14.7344 11.8828 14.7422 11.8984 14.7422C11.9141 14.7422 11.9297 14.7344 11.9453 14.7188C11.9609 14.7031 11.9766 14.6953 11.9922 14.6953L12.6953 14.5547C12.7891 14.5391 12.8828 14.5312 12.9766 14.5312C12.9766 14.5312 12.9766 14.5391 12.9766 14.5547C12.9922 14.5547 13 14.5703 13 14.6016C13.0156 14.6172 13.0234 14.6328 13.0234 14.6484C13.0391 14.6641 13.0469 14.6797 13.0469 14.6953C13.0469 14.7109 13.0391 14.7344 13.0234 14.7656C13.0234 14.7969 13.0156 14.8203 13 14.8359C13 14.8359 12.9922 14.8437 12.9766 14.8594C12.9766 14.8594 12.9688 14.8594 12.9531 14.8594C12.9375 14.8594 12.9219 14.8594 12.9062 14.8594C12.4062 14.9531 11.9062 15.0547 11.4062 15.1641C11.2344 15.1953 11.0703 15.2344 10.9141 15.2812C10.8672 15.2969 10.8281 15.3203 10.7969 15.3516C10.7812 15.3516 10.7734 15.3672 10.7734 15.3984C10.7734 15.4297 10.7734 15.4531 10.7734 15.4688C10.7734 15.4844 10.7734 15.5 10.7734 15.5156C10.7891 15.5313 10.7969 15.5469 10.7969 15.5625C10.8125 15.5625 10.8281 15.5703 10.8438 15.5859C10.8906 15.6016 10.9375 15.6094 10.9844 15.6094L11.8984 15.3984C11.9141 15.3984 11.9219 15.3984 11.9219 15.3984C11.9531 15.3828 11.9844 15.3828 12.0156 15.3984C12.0469 15.3984 12.0781 15.4141 12.1094 15.4453C12.1406 15.4766 12.1797 15.5391 12.2266 15.6328C12.2266 15.6641 12.2344 15.6797 12.25 15.6797C12.2656 15.6797 12.2812 15.6719 12.2969 15.6562C12.2969 15.6562 12.3047 15.6562 12.3203 15.6562C12.3359 15.6562 12.3516 15.6562 12.3672 15.6562C12.5547 15.6094 12.7344 15.5703 12.9062 15.5391C12.9688 15.5391 13 15.4688 13 15.3281C12.9844 15.1875 13 15.1719 13.0469 15.2812C13.0469 15.2812 13.0547 15.2891 13.0703 15.3047C13.0859 15.3516 13.1016 15.3984 13.1172 15.4453C13.1484 15.4766 13.1797 15.4922 13.2109 15.4922C13.2734 15.4766 13.3359 15.4609 13.3984 15.4453C13.4609 15.4453 13.5156 15.4375 13.5625 15.4219C13.5469 15.1875 13.5469 14.9531 13.5625 14.7188C13.5312 14.7344 13.5 14.75 13.4688 14.7656C13.4531 14.7656 13.4297 14.7578 13.3984 14.7422C13.3828 14.7422 13.3672 14.7188 13.3516 14.6719C13.3359 14.625 13.3281 14.5781 13.3281 14.5312C13.3281 14.5156 13.3281 14.5 13.3281 14.4844C13.3281 14.4531 13.3359 14.4375 13.3516 14.4375C13.3672 14.4219 13.3828 14.4141 13.3984 14.4141C13.4141 14.4141 13.4297 14.4141 13.4453 14.4141C13.4453 14.4141 13.4531 14.4063 13.4688 14.3906C13.4688 14.3906 13.4766 14.3906 13.4922 14.3906C13.5078 14.3906 13.5156 14.3906 13.5156 14.3906C13.5469 14.4219 13.5703 14.4609 13.5859 14.5078C13.6016 14.4922 13.625 14.4844 13.6562 14.4844C13.6875 14.4687 13.7188 14.4609 13.75 14.4609C13.7969 14.4609 13.8281 14.4687 13.8438 14.4844C13.875 14.5 13.8906 14.5156 13.8906 14.5312C13.8906 14.5781 13.8906 14.6172 13.8906 14.6484C13.9062 14.7266 13.9062 14.8047 13.8906 14.8828C13.8594 14.9766 13.9688 15.0469 14.2188 15.0938C14.3906 15.1406 14.5 15.1875 14.5469 15.2344C14.875 15.1719 15.2031 15.1172 15.5312 15.0703C15.5625 15.0703 15.5781 15.0547 15.5781 15.0234C15.5938 14.9766 15.6016 14.9375 15.6016 14.9062C15.6016 14.875 15.6016 14.8437 15.6016 14.8125C15.6328 14.6562 15.6875 14.6641 15.7656 14.8359C15.7812 14.8516 15.7969 14.8672 15.8125 14.8828C15.8281 14.9141 15.8359 14.9453 15.8359 14.9766C15.8516 14.9922 15.8672 15 15.8828 15C15.9609 15 16.0391 14.9922 16.1172 14.9766C16.1484 14.9609 16.1797 14.9531 16.2109 14.9531C16.2578 14.9531 16.2656 14.8437 16.2344 14.625C16.2031 14.3906 16.2109 14.2734 16.2578 14.2734C16.3047 14.2578 16.3516 14.25 16.3984 14.25C16.4297 14.2344 16.4688 14.3438 16.5156 14.5781C16.5312 14.7031 16.5469 14.7891 16.5625 14.8359C16.5938 14.8828 16.6172 14.8984 16.6328 14.8828C16.7109 14.8828 16.7891 14.875 16.8672 14.8594C16.8828 14.8594 16.8906 14.8516 16.8906 14.8359C16.8906 14.8203 16.8906 14.8047 16.8906 14.7891C16.8906 14.7734 16.8906 14.7656 16.8906 14.7656C16.9062 14.6875 16.8906 14.6094 16.8438 14.5312C16.8281 14.4844 16.8047 14.4297 16.7734 14.3672C16.7422 14.3047 16.7188 14.25 16.7031 14.2031C16.6562 14.1094 16.6328 14.0313 16.6328 13.9688C16.6328 13.9688 16.6328 13.9609 16.6328 13.9453C16.6328 13.9297 16.6328 13.9141 16.6328 13.8984C16.6484 13.8828 16.6562 13.875 16.6562 13.875C16.7344 13.8594 16.8203 13.8438 16.9141 13.8281C17.2578 13.7812 17.6016 13.7344 17.9453 13.6875C17.9922 13.6719 18.0391 13.6563 18.0859 13.6406C18.1172 13.6406 18.1484 13.6328 18.1797 13.6172C18.1797 13.5078 18.1875 13.4219 18.2031 13.3594C18.2344 13.2969 18.2734 13.2578 18.3203 13.2422C18.3203 13.2422 18.3203 13.2344 18.3203 13.2188C18.3359 13.2031 18.3438 13.1875 18.3438 13.1719C18.3438 13.1562 18.3438 13.1406 18.3438 13.125C18.3438 13.1094 18.3359 13.0938 18.3203 13.0781C18.3203 13.0625 18.3125 13.0469 18.2969 13.0312C18.2969 13.0156 18.2969 13.0078 18.2969 13.0078C18.2344 12.9922 18.1719 12.9844 18.1094 12.9844C16.625 13.1719 15.1406 13.3984 13.6562 13.6641C13.6406 13.6797 13.625 13.6875 13.6094 13.6875C13.5938 13.7031 13.5703 13.7109 13.5391 13.7109C13.5234 13.7109 13.5 13.6875 13.4688 13.6406C13.4531 13.6406 13.4375 13.6328 13.4219 13.6172C13.4219 13.5859 13.4219 13.5625 13.4219 13.5469C13.4219 13.5312 13.4219 13.5156 13.4219 13.5C13.4219 13.4688 13.4219 13.4531 13.4219 13.4531C13.4219 13.4375 13.4219 13.4297 13.4219 13.4297C13.4531 13.4141 13.4766 13.4062 13.4922 13.4062C13.6484 13.3594 13.8125 13.3125 13.9844 13.2656C14.0156 13.2656 14.0469 13.2656 14.0781 13.2656C14.2969 13.2031 14.5234 13.1641 14.7578 13.1484C14.8359 13.1484 14.8828 13.0312 14.8984 12.7969C14.9141 12.7656 14.9297 12.75 14.9453 12.75C14.9609 12.75 14.9766 12.7578 14.9922 12.7734C15.0078 12.7891 15.0234 12.8125 15.0391 12.8438C15.0547 12.875 15.0703 12.9063 15.0859 12.9375C15.1016 12.9687 15.1172 13 15.1328 13.0312C15.1641 13.0625 15.1875 13.0781 15.2031 13.0781C16.5312 12.8438 17.8594 12.6562 19.1875 12.5156C19.1875 12.5156 19.1875 12.5234 19.1875 12.5391C19.2031 12.5391 19.2109 12.5469 19.2109 12.5625C19.2266 12.5781 19.2344 12.5937 19.2344 12.6094C19.25 12.6562 19.25 12.7031 19.2344 12.75C19.2344 12.7812 19.2266 12.8047 19.2109 12.8203C19.1953 12.8359 19.1797 12.8438 19.1641 12.8438C19.1484 12.8438 19.1328 12.8438 19.1172 12.8438C19.1016 12.8438 19.0859 12.8438 19.0703 12.8438C19.0547 12.8594 19.0391 12.8672 19.0234 12.8672C18.8984 12.8828 18.7734 12.9063 18.6484 12.9375C18.6484 12.9375 18.6406 12.9453 18.625 12.9609C18.625 12.9609 18.625 12.9766 18.625 13.0078C18.625 13.0234 18.625 13.0391 18.625 13.0547C18.6406 13.1016 18.6484 13.1484 18.6484 13.1953C18.6641 13.2266 18.6875 13.2422 18.7188 13.2422C19.2031 13.1797 19.6953 13.125 20.1953 13.0781C20.4297 13.0469 20.6641 13.0234 20.8984 13.0078C20.9141 12.9922 20.9297 12.9922 20.9453 13.0078C20.9766 13.0078 21 13.0078 21.0156 13.0078C21.0469 12.9922 21.0703 12.9609 21.0859 12.9141C21.1172 12.8672 21.1328 12.7969 21.1328 12.7031C21.1484 12.6719 21.1562 12.6562 21.1562 12.6562C21.1719 12.6406 21.1875 12.6328 21.2031 12.6328C21.2188 12.6328 21.2266 12.6328 21.2266 12.6328C21.3203 12.6172 21.4219 12.6094 21.5312 12.6094C21.7031 12.6094 21.8672 12.5703 22.0234 12.4922C22.0234 12.4922 22.0234 12.4844 22.0234 12.4688C22.0391 12.4531 22.0469 12.4375 22.0469 12.4219C22.0469 12.4062 22.0469 12.3906 22.0469 12.375C22.0469 12.375 22.0391 12.3672 22.0234 12.3516C22.0234 12.3203 22.0156 12.3047 22 12.3047C22 12.2891 22 12.2812 22 12.2812C21.9219 12.2812 21.8438 12.2812 21.7656 12.2812C21.6562 12.2812 21.5391 12.2734 21.4141 12.2578C21.4141 12.2578 21.4062 12.25 21.3906 12.2344C21.3906 12.2031 21.3828 12.1797 21.3672 12.1641C21.3516 12.1328 21.3438 12.1094 21.3438 12.0938C21.3438 12.0312 21.3516 11.9922 21.3672 11.9766C21.3828 11.9453 21.3984 11.9297 21.4141 11.9297C21.4297 11.9297 21.4531 11.9297 21.4844 11.9297C21.5 11.9297 21.5078 11.9297 21.5078 11.9297C23.3203 11.7734 25.1328 11.6719 26.9453 11.625C26.9609 11.625 26.9688 11.625 26.9688 11.625C26.9688 11.625 26.9766 11.625 26.9922 11.625C27.0078 11.625 27.0156 11.6328 27.0156 11.6484C27.0312 11.6641 27.0391 11.6875 27.0391 11.7188C27.0547 11.7813 27.0547 11.8359 27.0391 11.8828C27.0391 11.9141 27.0312 11.9453 27.0156 11.9766C27.0156 11.9922 27.0078 12.0234 26.9922 12.0703C26.9766 12.1641 26.9531 12.2422 26.9219 12.3047C26.8906 12.3828 26.8906 12.4609 26.9219 12.5391C26.9531 12.6484 26.9844 12.7578 27.0156 12.8672C27.0312 12.9141 27.0469 12.9687 27.0625 13.0312C27.0938 13.1094 27.1172 13.1797 27.1328 13.2422C27.1641 13.2891 27.1953 13.3125 27.2266 13.3125ZM3.34375 17.6953C3.34375 17.6797 3.34375 17.6641 3.34375 17.6484C3.34375 17.6172 3.34375 17.5938 3.34375 17.5781C3.34375 17.5312 3.33594 17.4922 3.32031 17.4609C3.28906 17.4141 3.26562 17.3828 3.25 17.3672C3.21875 17.3672 3.19531 17.375 3.17969 17.3906C3.14844 17.3906 3.11719 17.3984 3.08594 17.4141C3.08594 17.4297 3.07812 17.4375 3.0625 17.4375C3.0625 17.4375 3.0625 17.4453 3.0625 17.4609C3.0625 17.4766 3.0625 17.4922 3.0625 17.5078C3.0625 17.5234 3.0625 17.5391 3.0625 17.5547C3.07812 17.5859 3.09375 17.625 3.10938 17.6719C3.125 17.7031 3.14062 17.7266 3.15625 17.7422C3.17188 17.7578 3.1875 17.7656 3.20312 17.7656C3.21875 17.75 3.22656 17.7422 3.22656 17.7422C3.24219 17.7266 3.25 17.7188 3.25 17.7188C3.26562 17.7188 3.27344 17.7188 3.27344 17.7188C3.30469 17.7188 3.32812 17.7109 3.34375 17.6953ZM13.8906 41.7188C13.9062 41.7031 13.9141 41.6875 13.9141 41.6719C13.9141 41.6562 13.9062 41.6484 13.8906 41.6484C13.8906 41.6328 13.8906 41.6172 13.8906 41.6016C13.8906 41.6016 13.8906 41.5938 13.8906 41.5781C13.9062 41.5625 13.9062 41.5391 13.8906 41.5078C13.8906 41.5078 13.875 41.5078 13.8438 41.5078C13.8281 41.4922 13.8047 41.4844 13.7734 41.4844C13.7422 41.4688 13.7031 41.4688 13.6562 41.4844C13.6094 41.4844 13.5781 41.4922 13.5625 41.5078C13.5469 41.5391 13.5391 41.5703 13.5391 41.6016C13.5391 41.6328 13.5469 41.6562 13.5625 41.6719C13.5625 41.6875 13.5625 41.7031 13.5625 41.7188C13.5781 41.7188 13.5938 41.7266 13.6094 41.7422C13.6406 41.7422 13.6641 41.7422 13.6797 41.7422C13.7109 41.7578 13.7422 41.7656 13.7734 41.7656C13.8203 41.75 13.8594 41.7344 13.8906 41.7188ZM14.2188 22.4766C14.2188 22.4453 14.1953 22.4219 14.1484 22.4062C14.1172 22.375 14.0703 22.3672 14.0078 22.3828C13.8984 22.3984 13.8594 22.4297 13.8906 22.4766C13.8906 22.4922 13.8906 22.5078 13.8906 22.5234C13.8906 22.5391 13.8906 22.5547 13.8906 22.5703C13.8906 22.5859 13.8906 22.6016 13.8906 22.6172C13.9062 22.6328 13.9375 22.6484 13.9844 22.6641C14.0312 22.6641 14.0703 22.6641 14.1016 22.6641C14.1328 22.6484 14.1562 22.6406 14.1719 22.6406C14.2031 22.6406 14.2188 22.6328 14.2188 22.6172C14.2344 22.6172 14.2422 22.6172 14.2422 22.6172C14.2422 22.6016 14.2422 22.5938 14.2422 22.5938C14.2266 22.5781 14.2188 22.5703 14.2188 22.5703V22.4766ZM14.2188 23.2266C14.2188 23.1953 14.2266 23.1719 14.2422 23.1562C14.2422 23.0781 14.2344 23 14.2188 22.9219C14.2188 22.9219 14.2031 22.9219 14.1719 22.9219C14.1562 22.9062 14.1328 22.8984 14.1016 22.8984C14.0703 22.8828 14.0391 22.8828 14.0078 22.8984C13.9922 22.8984 13.9766 22.8984 13.9609 22.8984C13.9453 22.8984 13.9297 22.9062 13.9141 22.9219C13.8984 22.9219 13.8906 22.9219 13.8906 22.9219C13.8906 22.9375 13.8906 22.9531 13.8906 22.9688C13.875 23.125 13.875 23.2812 13.8906 23.4375C13.9062 23.4375 13.9219 23.4453 13.9375 23.4609C13.9688 23.4609 14 23.4688 14.0312 23.4844C14.0625 23.4844 14.0938 23.4766 14.125 23.4609C14.1406 23.4609 14.1562 23.4609 14.1719 23.4609C14.1875 23.4609 14.1953 23.4609 14.1953 23.4609C14.2109 23.4453 14.2188 23.4375 14.2188 23.4375C14.2344 23.3906 14.2422 23.3359 14.2422 23.2734C14.2266 23.2578 14.2188 23.2422 14.2188 23.2266ZM13.5625 18.0703C13.5625 18.0859 13.5547 18.0938 13.5391 18.0938C13.5391 18.0938 13.5391 18.1016 13.5391 18.1172C13.5391 18.1172 13.5469 18.1172 13.5625 18.1172C13.5938 18.1484 13.6328 18.1719 13.6797 18.1875C13.6953 18.1875 13.7109 18.1953 13.7266 18.2109C13.7422 18.1953 13.7578 18.1875 13.7734 18.1875C13.8203 18.1719 13.8594 18.1484 13.8906 18.1172C13.9062 18.1172 13.9141 18.1172 13.9141 18.1172C13.9141 18.1016 13.9062 18.0859 13.8906 18.0703C13.8594 18.0547 13.8203 18.0391 13.7734 18.0234C13.7578 18.0234 13.7422 18.0156 13.7266 18L13.5625 18.0703ZM13.5625 18.9844C13.5469 19 13.5391 19.0156 13.5391 19.0312C13.5391 19.0312 13.5469 19.0312 13.5625 19.0312C13.5938 19.0625 13.6328 19.0859 13.6797 19.1016C13.6953 19.1016 13.7109 19.1094 13.7266 19.125L13.8906 19.0312C13.8906 19.0156 13.8906 19.0078 13.8906 19.0078C13.8906 19.0078 13.8906 19 13.8906 18.9844C13.8594 18.9688 13.8203 18.9531 13.7734 18.9375C13.7578 18.9375 13.7422 18.9297 13.7266 18.9141C13.7109 18.9297 13.6953 18.9375 13.6797 18.9375C13.6328 18.9531 13.5938 18.9688 13.5625 18.9844ZM14.2188 26.4844C14.25 26.375 14.25 26.2734 14.2188 26.1797C14.2188 26.1641 14.2031 26.1562 14.1719 26.1562C14.1406 26.1562 14.1094 26.1562 14.0781 26.1562C14.0469 26.1406 14.0078 26.1328 13.9609 26.1328C13.6953 26.1172 13.5625 26.1484 13.5625 26.2266V26.3203V26.4375C13.5625 26.5156 13.7031 26.5469 13.9844 26.5312C14.0156 26.5312 14.0469 26.5312 14.0781 26.5312C14.1094 26.5156 14.1406 26.5078 14.1719 26.5078C14.2031 26.4922 14.2188 26.4844 14.2188 26.4844ZM14.2422 24.6562C14.2422 24.6406 14.2422 24.6328 14.2422 24.6328C14.2422 24.6172 14.2422 24.6094 14.2422 24.6094C14.2422 24.5938 14.2344 24.5781 14.2188 24.5625C14.2031 24.5469 14.1719 24.5391 14.125 24.5391C14.0938 24.5234 14.0547 24.5156 14.0078 24.5156C13.9922 24.5156 13.9766 24.5234 13.9609 24.5391C13.9453 24.5391 13.9297 24.5391 13.9141 24.5391C13.8984 24.5391 13.8906 24.5469 13.8906 24.5625C13.8906 24.6094 13.8906 24.6562 13.8906 24.7031C13.8906 24.7188 13.8906 24.7344 13.8906 24.75C13.8906 24.7812 13.8906 24.8125 13.8906 24.8438C13.8906 24.9062 13.8906 24.9766 13.8906 25.0547C13.8906 25.0703 13.8906 25.0859 13.8906 25.1016C13.9062 25.1328 13.9062 25.1641 13.8906 25.1953C13.8906 25.2266 13.8594 25.2578 13.7969 25.2891C13.75 25.3203 13.6719 25.3438 13.5625 25.3594C13.5625 25.3906 13.5625 25.4219 13.5625 25.4531C13.5469 25.5156 13.5469 25.5859 13.5625 25.6641C13.5625 25.6641 13.5781 25.6719 13.6094 25.6875C13.6406 25.6875 13.6719 25.6953 13.7031 25.7109C13.75 25.7109 13.7891 25.7109 13.8203 25.7109C14.1016 25.7266 14.2422 25.6953 14.2422 25.6172C14.2266 25.4922 14.2188 25.375 14.2188 25.2656C14.2344 25.2031 14.2422 25.1484 14.2422 25.1016V24.6562ZM17.3594 14.7656C17.3594 14.7656 17.3594 14.7578 17.3594 14.7422C17.375 14.7109 17.3828 14.6797 17.3828 14.6484C17.3828 14.6016 17.375 14.5625 17.3594 14.5312C17.3438 14.25 17.2969 14.1172 17.2188 14.1328H17.125L17.0312 14.1562C16.9531 14.1719 16.9453 14.3125 17.0078 14.5781C17.0078 14.6094 17.0078 14.6484 17.0078 14.6953C17.0234 14.7266 17.0391 14.7578 17.0547 14.7891C17.0703 14.8047 17.0781 14.8125 17.0781 14.8125C17.1719 14.8281 17.2656 14.8125 17.3594 14.7656ZM18.8594 14.5781C18.875 14.5625 18.8828 14.5391 18.8828 14.5078C18.8828 14.4609 18.875 14.4141 18.8594 14.3672C18.8594 14.3516 18.8516 14.3359 18.8359 14.3203C18.8359 14.3047 18.8359 14.2891 18.8359 14.2734C18.8359 14.2578 18.8281 14.25 18.8125 14.25C18.7656 14.25 18.7188 14.2578 18.6719 14.2734C18.6562 14.2734 18.6406 14.2734 18.625 14.2734C18.6094 14.2734 18.5859 14.2734 18.5547 14.2734C18.4922 14.2891 18.4219 14.3047 18.3438 14.3203C18.3438 14.3203 18.3359 14.3203 18.3203 14.3203C18.2891 14.3359 18.2578 14.3438 18.2266 14.3438C18.1953 14.3281 18.1641 14.2969 18.1328 14.25C18.1016 14.2031 18.0625 14.125 18.0156 14.0156C18 14.0156 17.9766 14.0156 17.9453 14.0156C17.8828 14.0156 17.8125 14.0313 17.7344 14.0625C17.7344 14.0625 17.7344 14.0781 17.7344 14.1094C17.7344 14.1406 17.7266 14.1719 17.7109 14.2031C17.7109 14.2344 17.7188 14.2656 17.7344 14.2969C17.7656 14.5781 17.8125 14.7188 17.875 14.7188C17.9844 14.6875 18.0938 14.6719 18.2031 14.6719C18.25 14.6562 18.2969 14.6484 18.3438 14.6484L18.7656 14.6016C18.7656 14.6016 18.7734 14.6016 18.7891 14.6016C18.8047 14.6016 18.8125 14.6016 18.8125 14.6016C18.8281 14.6016 18.8438 14.5938 18.8594 14.5781ZM20.3594 14.4141C20.375 14.3984 20.3828 14.3828 20.3828 14.3672C20.3828 14.3359 20.3828 14.3047 20.3828 14.2734C20.3828 14.2422 20.3828 14.2109 20.3828 14.1797C20.3672 14.1641 20.3594 14.1484 20.3594 14.1328C20.3594 14.1172 20.3516 14.1094 20.3359 14.1094C20.3359 14.0937 20.3359 14.0859 20.3359 14.0859C20.3203 14.0859 20.3047 14.0859 20.2891 14.0859C20.1484 14.0859 20.0078 14.1016 19.8672 14.1328C19.8516 14.1328 19.8438 14.1484 19.8438 14.1797C19.8438 14.2109 19.8438 14.2422 19.8438 14.2734C19.8438 14.3047 19.8438 14.3281 19.8438 14.3438C19.8594 14.3594 19.8672 14.375 19.8672 14.3906C19.8672 14.4063 19.8672 14.4219 19.8672 14.4375C19.8828 14.4531 19.8906 14.4609 19.8906 14.4609C19.9375 14.4609 19.9844 14.4609 20.0312 14.4609C20.0469 14.4453 20.0625 14.4375 20.0781 14.4375C20.1094 14.4375 20.1406 14.4375 20.1719 14.4375C20.2344 14.4375 20.2969 14.4297 20.3594 14.4141ZM20.7812 14.3672C20.8125 14.3672 20.8359 14.3438 20.8516 14.2969C20.8672 14.25 20.8672 14.1953 20.8516 14.1328C20.8203 14.0234 20.7891 13.9922 20.7578 14.0391C20.7422 14.0391 20.7266 14.0391 20.7109 14.0391C20.6953 14.0391 20.6797 14.0391 20.6641 14.0391C20.6484 14.0391 20.6328 14.0469 20.6172 14.0625C20.6016 14.0781 20.5938 14.1094 20.5938 14.1562C20.5938 14.1875 20.5938 14.2266 20.5938 14.2734C20.6094 14.2891 20.6172 14.3125 20.6172 14.3438C20.6328 14.3594 20.6406 14.375 20.6406 14.3906C20.6562 14.3906 20.6641 14.3906 20.6641 14.3906C20.6641 14.3906 20.6719 14.3906 20.6875 14.3906L20.7812 14.3672ZM23.9922 13.7812C24.0078 13.7344 24.0234 13.6953 24.0391 13.6641C24.0547 13.6484 24.0625 13.625 24.0625 13.5938C24.0469 13.5781 24.0391 13.5625 24.0391 13.5469C24.0234 13.5156 24 13.4844 23.9688 13.4531C23.9688 13.4375 23.9609 13.4297 23.9453 13.4297C23.9453 13.4297 23.9453 13.4375 23.9453 13.4531C23.9297 13.4844 23.9141 13.5234 23.8984 13.5703C23.8828 13.5859 23.875 13.6016 23.875 13.6172L23.9453 13.7812C23.9609 13.7812 23.9688 13.7812 23.9688 13.7812C23.9844 13.7812 23.9922 13.7812 23.9922 13.7812ZM24.8594 13.7344C24.875 13.6875 24.8906 13.6484 24.9062 13.6172C24.9062 13.5859 24.9141 13.5625 24.9297 13.5469L24.8359 13.3828C24.8359 13.3828 24.8281 13.3828 24.8125 13.3828C24.8125 13.3828 24.8047 13.3828 24.7891 13.3828C24.7891 13.3828 24.7891 13.3906 24.7891 13.4062C24.7734 13.4375 24.7578 13.4766 24.7422 13.5234C24.7422 13.5391 24.7344 13.5547 24.7188 13.5703C24.7344 13.5859 24.7422 13.6016 24.7422 13.6172C24.7734 13.6641 24.7969 13.7031 24.8125 13.7344C24.8281 13.7344 24.8438 13.7344 24.8594 13.7344ZM0.390625 18.5156C0.375 18.5156 0.359375 18.4922 0.34375 18.4453C0.3125 18.3984 0.296875 18.3594 0.296875 18.3281C0.28125 18.2969 0.273438 18.2734 0.273438 18.2578C0.273438 18.2266 0.273438 18.2109 0.273438 18.2109C0.304688 18.1953 0.328125 18.1875 0.34375 18.1875C0.359375 18.1875 0.367188 18.1797 0.367188 18.1641C0.382812 18.1641 0.390625 18.1641 0.390625 18.1641C0.40625 18.1484 0.421875 18.1406 0.4375 18.1406C0.4375 18.1406 0.445312 18.1406 0.460938 18.1406C0.492188 18.1562 0.515625 18.1875 0.53125 18.2344C0.546875 18.2656 0.554688 18.3047 0.554688 18.3516C0.570312 18.3672 0.578125 18.3828 0.578125 18.3984C0.578125 18.4141 0.578125 18.4297 0.578125 18.4453C0.5625 18.4609 0.554688 18.4688 0.554688 18.4688C0.523438 18.4844 0.5 18.5 0.484375 18.5156C0.453125 18.5156 0.421875 18.5156 0.390625 18.5156ZM28.6562 13.2891C28.6562 13.2891 28.6562 13.2969 28.6562 13.3125C28.6719 13.3125 28.6875 13.3203 28.7031 13.3359C28.7031 13.3516 28.7031 13.375 28.7031 13.4062C28.7188 13.4219 28.7266 13.4375 28.7266 13.4531C28.7266 13.4688 28.7188 13.4922 28.7031 13.5234C28.7031 13.5391 28.7031 13.5547 28.7031 13.5703C28.6875 13.5859 28.6719 13.6016 28.6562 13.6172C28.625 13.6328 28.5938 13.625 28.5625 13.5938C28.5469 13.5469 28.5391 13.5 28.5391 13.4531C28.5391 13.4375 28.5391 13.4219 28.5391 13.4062C28.5547 13.375 28.5625 13.3516 28.5625 13.3359C28.5938 13.3203 28.625 13.3047 28.6562 13.2891ZM13.2109 30.3281C13.2109 30.3125 13.2109 30.2891 13.2109 30.2578C13.2109 30.2578 13.2109 30.25 13.2109 30.2344C13.2109 30.2344 13.2109 30.2266 13.2109 30.2109C13.2109 30.1953 13.2109 30.1875 13.2109 30.1875C13.2109 30.1719 13.2188 30.1562 13.2344 30.1406C13.25 30.125 13.2734 30.1172 13.3047 30.1172C13.3516 30.1016 13.3984 30.0938 13.4453 30.0938C13.4609 30.1094 13.4766 30.1172 13.4922 30.1172C13.5078 30.1172 13.5156 30.125 13.5156 30.1406C13.5312 30.1406 13.5391 30.1406 13.5391 30.1406C13.5547 30.1406 13.5625 30.1484 13.5625 30.1641C13.5625 30.1953 13.5625 30.2266 13.5625 30.2578C13.5625 30.2891 13.5547 30.3125 13.5391 30.3281C13.5234 30.3594 13.4922 30.375 13.4453 30.375C13.4141 30.375 13.375 30.375 13.3281 30.375C13.3125 30.375 13.2891 30.375 13.2578 30.375C13.2422 30.3594 13.2266 30.3438 13.2109 30.3281ZM13.375 44.7656C13.375 44.75 13.375 44.7266 13.375 44.6953C13.375 44.6953 13.375 44.6875 13.375 44.6719C13.375 44.6562 13.375 44.6484 13.375 44.6484C13.375 44.6328 13.375 44.625 13.375 44.625C13.375 44.6094 13.375 44.5938 13.375 44.5781C13.4062 44.5625 13.4375 44.5547 13.4688 44.5547C13.5156 44.5391 13.5625 44.5312 13.6094 44.5312C13.625 44.5469 13.6406 44.5547 13.6562 44.5547C13.6719 44.5547 13.6797 44.5625 13.6797 44.5781C13.6953 44.5781 13.7031 44.5781 13.7031 44.5781C13.7031 44.5781 13.7031 44.5859 13.7031 44.6016C13.7188 44.6328 13.7266 44.6641 13.7266 44.6953C13.7266 44.7109 13.7188 44.7344 13.7031 44.7656C13.6875 44.7812 13.6562 44.7969 13.6094 44.8125C13.5625 44.8125 13.5234 44.8125 13.4922 44.8125C13.4609 44.7969 13.4375 44.7891 13.4219 44.7891C13.4062 44.7891 13.3906 44.7812 13.375 44.7656ZM13.7266 14.1328C13.6953 14.1328 13.6719 14.1328 13.6562 14.1328C13.6406 14.1172 13.625 14.1094 13.6094 14.1094C13.5781 14.0781 13.5625 14.0469 13.5625 14.0156C13.5781 14 13.5938 13.9844 13.6094 13.9688C13.625 13.9688 13.6406 13.9688 13.6562 13.9688C13.6875 13.9531 13.7109 13.9453 13.7266 13.9453C13.7422 13.9453 13.7578 13.9531 13.7734 13.9688C13.8047 13.9688 13.8281 13.9688 13.8438 13.9688C13.8594 13.9844 13.8672 14 13.8672 14.0156C13.8828 14.0156 13.8906 14.0156 13.8906 14.0156C13.9062 14.0469 13.8906 14.0781 13.8438 14.1094C13.8125 14.125 13.7734 14.1328 13.7266 14.1328Z" fill="white"/>
<path d="M42.4609 29.7656C42.4141 30.1875 42.3594 30.6094 42.2969 31.0312C42.25 31.3125 42.3203 31.5625 42.5078 31.7812C42.5234 31.8125 42.5234 31.8516 42.5078 31.8984C42.4922 31.9453 42.4688 32 42.4375 32.0625C42.4062 32.1094 42.375 32.1484 42.3438 32.1797C42.3125 32.2109 42.2734 32.2344 42.2266 32.25C42.1797 32.2656 42.1328 32.2969 42.0859 32.3438C42.0547 32.375 42.0312 32.4219 42.0156 32.4844C41.5 34.6719 40.625 36.6719 39.3906 38.4844C38.1406 40.2812 36.5938 41.7188 34.75 42.7969C34.7344 42.8125 34.7109 42.8125 34.6797 42.7969C34.6484 42.7812 34.625 42.7656 34.6094 42.75C34.5781 42.7188 34.5547 42.6797 34.5391 42.6328C34.5391 42.5703 34.5625 42.5156 34.6094 42.4688C34.6875 42.4062 34.7734 42.3516 34.8672 42.3047C34.9141 42.2891 34.9531 42.2656 34.9844 42.2344C35.2969 42.0312 35.5938 41.8203 35.875 41.6016C35.9375 41.5547 36 41.5078 36.0625 41.4609C36.0781 41.4453 36.0859 41.4219 36.0859 41.3906C36.0859 41.3438 36.0859 41.3047 36.0859 41.2734C36.0547 41.2422 36.0156 41.2188 35.9688 41.2031C35.9219 41.1719 35.875 41.1719 35.8281 41.2031C34.0156 42.5781 32.0078 43.4062 29.8047 43.6875C29.7578 43.6875 29.7109 43.6875 29.6641 43.6875C29.5547 43.6875 29.4453 43.7031 29.3359 43.7344C29.2266 43.7656 29.1328 43.8672 29.0547 44.0391C29.0391 44.0703 29.0078 44.0938 28.9609 44.1094C28.9141 44.1094 28.8672 44.1172 28.8203 44.1328C28.8047 44.1328 28.7969 44.1328 28.7969 44.1328C28.2969 44.1328 27.8047 44.1016 27.3203 44.0391C26.9922 44.0078 26.6641 43.9844 26.3359 43.9688C26.3359 43.9688 26.3281 43.9766 26.3125 43.9922C26.2969 44.0078 26.2812 44.0234 26.2656 44.0391C26.25 44.0547 26.2422 44.0703 26.2422 44.0859C26.2422 44.1172 26.25 44.1484 26.2656 44.1797C26.2812 44.2109 26.2969 44.2266 26.3125 44.2266C26.3594 44.2422 26.4141 44.2578 26.4766 44.2734C26.7109 44.3203 26.9453 44.3672 27.1797 44.4141L28.0703 44.5078C28.0859 44.5078 28.1094 44.5234 28.1406 44.5547C28.1719 44.5859 28.1953 44.6172 28.2109 44.6484C28.2266 44.6797 28.2344 44.7031 28.2344 44.7188C28.2188 44.7969 28.1875 44.8438 28.1406 44.8594C28.0938 44.875 28.0469 44.8828 28 44.8828C27.9219 44.8672 27.8516 44.8594 27.7891 44.8594C27.7578 44.8594 27.7266 44.8594 27.6953 44.8594C27.3359 44.8438 26.9766 44.8047 26.6172 44.7422C26.5078 44.7266 26.4062 44.7031 26.3125 44.6719C26.0625 44.6406 25.8125 44.5938 25.5625 44.5312C25.5156 44.5156 25.4688 44.5 25.4219 44.4844C24.7656 44.3125 24.1328 44.0859 23.5234 43.8047C22.9609 43.5703 22.4219 43.2891 21.9062 42.9609C21.8125 42.8984 21.7109 42.8359 21.6016 42.7734C21.5703 42.7578 21.5391 42.7422 21.5078 42.7266C20.9297 42.3359 20.3828 41.8984 19.8672 41.4141C19.4141 41.0234 18.9922 40.6016 18.6016 40.1484C18.5078 40.0391 18.4141 39.9297 18.3203 39.8203C18.2734 39.7734 18.2266 39.7188 18.1797 39.6562C17.7578 39.1406 17.375 38.5938 17.0312 38.0156C16.7188 37.5312 16.4375 37.0312 16.1875 36.5156C16.1094 36.3594 16.0312 36.1953 15.9531 36.0234C15.875 35.8516 15.7969 35.6719 15.7188 35.4844C15.5 34.9688 15.3125 34.4453 15.1562 33.9141C15.1406 33.8984 15.1328 33.8906 15.1328 33.8906C15.1172 33.8281 15.1094 33.7734 15.1094 33.7266C15.1094 33.6797 15.125 33.6406 15.1562 33.6094C15.2188 33.5469 15.2656 33.5234 15.2969 33.5391C15.3438 33.5391 15.3906 33.5547 15.4375 33.5859C15.4688 33.6172 15.5078 33.6406 15.5547 33.6562C15.6641 33.6719 15.7656 33.7109 15.8594 33.7734C15.9688 33.8516 16.0547 33.8438 16.1172 33.75C16.2266 33.5469 16.3359 33.3516 16.4453 33.1641C16.5078 33.0703 16.5547 32.9766 16.5859 32.8828C16.6328 32.7891 16.6406 32.6953 16.6094 32.6016C16.5156 32.2422 16.4297 31.8828 16.3516 31.5234C16.3359 31.4141 16.3125 31.2969 16.2812 31.1719C16.2188 30.8438 16.1719 30.5078 16.1406 30.1641C16.125 30.0234 16.1094 29.8828 16.0938 29.7422C16.0938 29.7109 16.1016 29.6797 16.1172 29.6484C16.1484 29.6172 16.1719 29.5938 16.1875 29.5781C16.2188 29.5469 16.2422 29.5312 16.2578 29.5312C16.3203 29.5469 16.3672 29.5781 16.3984 29.625C16.4297 29.6562 16.4453 29.6953 16.4453 29.7422C16.4609 29.8516 16.4766 29.9609 16.4922 30.0703C16.5234 30.2891 16.5469 30.5078 16.5625 30.7266C16.5781 30.9922 16.7266 31.1641 17.0078 31.2422C17.3516 31.3359 17.5156 31.5312 17.5 31.8281C17.5 32.1406 17.6797 32.3203 18.0391 32.3672C18.1016 32.3828 18.1641 32.3984 18.2266 32.4141C18.2578 32.4297 18.2891 32.4453 18.3203 32.4609L18.4609 32.5078C18.5703 32.5391 18.6328 32.5469 18.6484 32.5312C18.6797 32.5 18.7031 32.4219 18.7188 32.2969C18.7656 31.9531 18.8984 31.7266 19.1172 31.6172C19.1328 31.6172 19.1484 31.625 19.1641 31.6406C19.1797 31.6406 19.1953 31.6484 19.2109 31.6641C19.2266 31.6641 19.2422 31.6641 19.2578 31.6641C19.2891 31.7578 19.3203 31.8516 19.3516 31.9453C19.3516 31.9609 19.3594 31.9766 19.375 31.9922C20.1719 34.6953 21.6172 36.8047 23.7109 38.3203C25.8516 39.7578 28.1406 40.1953 30.5781 39.6328C30.625 39.6172 30.6641 39.625 30.6953 39.6562C30.7422 39.6875 30.7812 39.7188 30.8125 39.75C30.8281 39.7812 30.8516 39.8047 30.8828 39.8203C30.8828 39.8359 30.8906 39.8438 30.9062 39.8438C30.9219 39.875 30.9297 39.8984 30.9297 39.9141C30.9453 39.9141 30.9609 39.9141 30.9766 39.9141C30.9922 39.8984 31.0156 39.8906 31.0469 39.8906C31.2344 39.8438 31.4141 39.7891 31.5859 39.7266C31.5859 39.7109 31.5859 39.6953 31.5859 39.6797C31.6016 39.6641 31.6094 39.6406 31.6094 39.6094C31.6094 39.5938 31.6094 39.5781 31.6094 39.5625C31.6094 39.5625 31.6094 39.5547 31.6094 39.5391C31.625 39.4609 31.6406 39.3984 31.6562 39.3516C31.6875 39.2891 31.7266 39.2422 31.7734 39.2109C33.4766 38.4766 34.9062 37.2812 36.0625 35.625C37.2031 33.9531 37.9141 32.0781 38.1953 30C38.6953 25.5625 37.5156 21.8438 34.6562 18.8438C33.9531 18.1875 33.1953 17.6406 32.3828 17.2031C32.2578 17.1406 32.1328 17.0781 32.0078 17.0156C31.9141 16.9844 31.8281 16.9531 31.75 16.9219L31.4453 16.7812L31.1172 16.6875C31.0234 16.6562 30.9297 16.625 30.8359 16.5938C30.7109 16.5625 30.5859 16.5234 30.4609 16.4766L29.8047 16.3594C29.6172 16.3281 29.4297 16.3125 29.2422 16.3125C29.2109 16.3125 29.1719 16.3047 29.125 16.2891C29.0469 16.2891 28.9688 16.2891 28.8906 16.2891C28.75 16.2734 28.6094 16.2656 28.4688 16.2656C28.3438 16.2812 28.2188 16.2891 28.0938 16.2891C27.7656 16.3047 27.4453 16.3438 27.1328 16.4062C26.2422 16.5625 25.3906 16.8672 24.5781 17.3203C23.7656 17.7578 23.0156 18.3203 22.3281 19.0078C21.6562 19.6953 21.0703 20.4688 20.5703 21.3281C20.0703 22.2031 19.6797 23.1328 19.3984 24.1172C19.2891 24.4141 19.2031 24.7266 19.1406 25.0547C19.1094 25.2422 19.0703 25.4219 19.0234 25.5938C19.0078 25.75 18.9922 25.9062 18.9766 26.0625C18.9609 26.1719 18.9453 26.2734 18.9297 26.3672C18.9297 26.4141 18.9219 26.4531 18.9062 26.4844C18.875 26.7031 18.8594 26.9219 18.8594 27.1406C18.8594 27.1875 18.8516 27.2266 18.8359 27.2578C18.8203 27.2891 18.7812 27.3125 18.7188 27.3281C18.6719 27.3438 18.625 27.3281 18.5781 27.2812C18.5312 27.2344 18.5078 27.1719 18.5078 27.0938V26.8359L18.6484 25.5938L18.9062 24.3516C18.9062 24.3359 18.8984 24.3203 18.8828 24.3047C18.8672 24.2734 18.8438 24.25 18.8125 24.2344C18.7969 24.2188 18.7734 24.2188 18.7422 24.2344C18.7266 24.2344 18.7109 24.2344 18.6953 24.2344C18.6484 24.25 18.6094 24.2812 18.5781 24.3281C18.5625 24.3594 18.5547 24.3984 18.5547 24.4453C18.5547 24.4766 18.5469 24.5156 18.5312 24.5625C18.5 24.6406 18.4844 24.7266 18.4844 24.8203C18.4844 24.9453 18.4531 25.0625 18.3906 25.1719C18.3438 25.2656 18.2344 25.3359 18.0625 25.3828C18.0312 25.3984 18.0078 25.4297 17.9922 25.4766C17.9766 25.5078 17.9688 25.5469 17.9688 25.5938L17.8281 26.7422L17.7578 27.8906C17.7578 27.9219 17.7422 27.9453 17.7109 27.9609C17.6953 27.9766 17.6719 27.9922 17.6406 28.0078C17.6094 28.0391 17.5859 28.0625 17.5703 28.0781L17.4531 27.9844C17.3438 27.8906 17.2031 27.8359 17.0312 27.8203C16.8906 27.8047 16.8047 27.7812 16.7734 27.75C16.7422 27.7031 16.7266 27.6406 16.7266 27.5625C16.7422 27.4219 16.75 27.2734 16.75 27.1172C16.75 26.8516 16.7734 26.5781 16.8203 26.2969C16.9141 25.3281 17.1016 24.3828 17.3828 23.4609C17.3984 23.3828 17.3906 23.3125 17.3594 23.25C17.3281 23.1875 17.2891 23.125 17.2422 23.0625C17.2109 23.0156 17.1875 22.9688 17.1719 22.9219C17.1719 22.875 17.1797 22.8281 17.1953 22.7812C17.3047 22.4688 17.4219 22.1641 17.5469 21.8672C17.625 21.6953 17.6953 21.5234 17.7578 21.3516C17.9922 20.8359 18.2422 20.3359 18.5078 19.8516C18.5078 19.8359 18.5 19.8125 18.4844 19.7812C18.4844 19.75 18.4766 19.7188 18.4609 19.6875C18.4297 19.6562 18.3828 19.6406 18.3203 19.6406C18.2734 19.625 18.2344 19.6328 18.2031 19.6641C17.3125 21.2109 16.6953 22.875 16.3516 24.6562C16.3359 24.7344 16.2969 24.7891 16.2344 24.8203C16.1875 24.8516 16.1094 24.8594 16 24.8438C15.8906 24.8281 15.8047 24.7969 15.7422 24.75C15.6797 24.6875 15.6484 24.625 15.6484 24.5625C15.6797 24.4375 15.7031 24.3125 15.7188 24.1875C15.7812 23.9062 15.8438 23.6328 15.9062 23.3672L16.2344 22.1953C16.2344 22.1797 16.2266 22.1562 16.2109 22.125C16.1953 22.0938 16.1719 22.0703 16.1406 22.0547C16.1406 22.0547 16.125 22.0547 16.0938 22.0547C16.0781 22.0547 16.0625 22.0625 16.0469 22.0781C16.0312 22.0781 16.0156 22.0859 16 22.1016C15.7969 22.4922 15.6484 22.9141 15.5547 23.3672C15.5391 23.4766 15.5156 23.5859 15.4844 23.6953C15.4375 23.8359 15.4062 23.9766 15.3906 24.1172C15.3594 24.3828 15.2812 24.6328 15.1562 24.8672C15.1562 24.8828 15.1484 24.8984 15.1328 24.9141C15.1172 24.9141 15.0938 24.9219 15.0625 24.9375C15.0469 24.9375 15.0391 24.9375 15.0391 24.9375C15.0078 24.9219 14.9766 24.9062 14.9453 24.8906C14.9297 24.8594 14.9219 24.8281 14.9219 24.7969C15 24.3438 15.0859 23.8828 15.1797 23.4141C15.1797 23.3984 15.1875 23.3828 15.2031 23.3672C15.2031 23.3203 15.2031 23.2734 15.2031 23.2266C15.2188 23.1797 15.2109 23.1406 15.1797 23.1094C15.0703 22.9844 15.0156 22.8672 15.0156 22.7578C15.0312 22.6328 15.0625 22.5078 15.1094 22.3828C15.1094 22.3672 15.1172 22.3516 15.1328 22.3359C15.3047 21.7422 15.5156 21.1562 15.7656 20.5781C15.8281 20.4375 15.8828 20.3047 15.9297 20.1797C16.0078 20.0391 16.0781 19.8906 16.1406 19.7344C16.4062 19.1875 16.6953 18.6641 17.0078 18.1641C17.3828 17.5703 17.7812 17.0078 18.2031 16.4766C18.25 16.4141 18.2969 16.3594 18.3438 16.3125C18.4219 16.2188 18.5 16.125 18.5781 16.0312C19 15.5469 19.4453 15.1016 19.9141 14.6953C20.3828 14.2578 20.875 13.8672 21.3906 13.5234C21.4844 13.4609 21.5781 13.3906 21.6719 13.3125C21.7812 13.2656 21.8828 13.2109 21.9766 13.1484C22.5078 12.8203 23.0625 12.5313 23.6406 12.2812C24.2188 12.0312 24.8125 11.8281 25.4219 11.6719C25.5312 11.6406 25.6328 11.6094 25.7266 11.5781C25.7891 11.5625 25.8516 11.5547 25.9141 11.5547C26.5703 11.3984 27.2344 11.3047 27.9062 11.2734C28.4844 11.2422 29.0625 11.25 29.6406 11.2969C29.7969 11.3125 29.9453 11.3281 30.0859 11.3438C30.1953 11.3594 30.2969 11.375 30.3906 11.3906C31.0156 11.4844 31.6328 11.625 32.2422 11.8125C32.8359 12 33.4219 12.2344 34 12.5156C34.0938 12.5625 34.1875 12.6016 34.2812 12.6328C34.9375 12.9766 35.5703 13.375 36.1797 13.8281C37.3828 14.7188 38.4375 15.7812 39.3438 17.0156C40.2656 18.2344 41.0078 19.5625 41.5703 21C41.5859 21.0625 41.5938 21.1172 41.5938 21.1641C41.6094 21.2109 41.6016 21.2656 41.5703 21.3281C41.5234 21.4219 41.4375 21.4844 41.3125 21.5156C41.25 21.5469 41.1875 21.5625 41.125 21.5625C41.0781 21.5625 41.0391 21.5391 41.0078 21.4922L40.5859 20.5078C40.4297 20.1797 40.2656 19.8594 40.0938 19.5469C40.0625 19.5 40.0156 19.4844 39.9531 19.5C39.9062 19.5156 39.8672 19.5391 39.8359 19.5703C39.8203 19.6016 39.8047 19.6328 39.7891 19.6641C39.7891 19.6953 39.7891 19.7188 39.7891 19.7344C39.8984 19.9688 40.0156 20.1953 40.1406 20.4141C40.2031 20.5234 40.2422 20.6406 40.2578 20.7656C40.2891 20.875 40.2656 21 40.1875 21.1406C40.1406 21.2188 40.125 21.2969 40.1406 21.375C40.1562 21.4375 40.1875 21.5 40.2344 21.5625C40.2656 21.6094 40.2891 21.6562 40.3047 21.7031C40.4453 22.0469 40.5625 22.3984 40.6562 22.7578C40.7031 22.8672 40.7422 22.9844 40.7734 23.1094C40.8516 23.3438 40.9141 23.5781 40.9609 23.8125C41.0234 24.1094 41.0781 24.3984 41.125 24.6797C41.125 24.7109 41.1094 24.7422 41.0781 24.7734C41.0625 24.7891 41.0469 24.8047 41.0312 24.8203C41.0156 24.8203 40.9922 24.8203 40.9609 24.8203C40.9297 24.8047 40.9062 24.7891 40.8906 24.7734C40.8438 24.7422 40.8047 24.7031 40.7734 24.6562C40.7578 24.5938 40.75 24.5391 40.75 24.4922C40.75 24.4609 40.7422 24.4297 40.7266 24.3984C40.2891 22.3359 39.5 20.4453 38.3594 18.7266C38.2812 18.6172 38.1875 18.5234 38.0781 18.4453C38.0625 18.4297 38.0391 18.4219 38.0078 18.4219C37.9766 18.4219 37.9531 18.4297 37.9375 18.4453C37.9219 18.4609 37.9062 18.4766 37.8906 18.4922C37.8906 18.5078 37.8906 18.5312 37.8906 18.5625C37.8906 18.5781 37.8906 18.5938 37.8906 18.6094C37.9375 18.7344 38 18.8516 38.0781 18.9609C38.1562 19.1016 38.2422 19.2422 38.3359 19.3828C38.4922 19.6328 38.6484 19.8828 38.8047 20.1328C38.8672 20.2891 38.9375 20.4453 39.0156 20.6016C39.1562 20.8516 39.2891 21.1172 39.4141 21.3984C39.4141 21.4141 39.4219 21.4375 39.4375 21.4688C39.5 21.5781 39.5391 21.6953 39.5547 21.8203C39.5703 21.9453 39.5234 22.0781 39.4141 22.2188C39.3984 22.25 39.3906 22.2812 39.3906 22.3125C39.4062 22.3438 39.4219 22.3828 39.4375 22.4297C39.4531 22.4453 39.4609 22.4609 39.4609 22.4766C39.5234 22.6484 39.5859 22.8281 39.6484 23.0156C39.6797 23.125 39.7109 23.2266 39.7422 23.3203C39.7578 23.3672 39.7656 23.4141 39.7656 23.4609C39.8594 23.6953 39.9297 23.9375 39.9766 24.1875C40.0078 24.3438 40.1016 24.4375 40.2578 24.4688C40.3359 24.4844 40.375 24.5078 40.375 24.5391C40.3906 24.5703 40.375 24.6094 40.3281 24.6562C40.3125 24.6719 40.3047 24.6797 40.3047 24.6797C40.2578 24.7422 40.2109 24.8047 40.1641 24.8672C40.1328 24.9141 40.125 24.9766 40.1406 25.0547C40.5625 27.3516 40.5078 29.6406 39.9766 31.9219C39.9609 31.9844 39.9609 32.0391 39.9766 32.0859C40.0078 32.1328 40.0391 32.1797 40.0703 32.2266C40.1016 32.2578 40.125 32.2891 40.1406 32.3203C40.25 32.5078 40.1953 32.6562 39.9766 32.7656C39.9453 32.7812 39.9141 32.7969 39.8828 32.8125C39.8359 32.8281 39.7969 32.8438 39.7656 32.8594C39.75 32.8594 39.7344 32.875 39.7188 32.9062C39.6719 33.0469 39.625 33.1875 39.5781 33.3281C39.5312 33.5 39.4766 33.6641 39.4141 33.8203C39.3672 33.9297 39.4453 34.0469 39.6484 34.1719C39.8516 34.2812 39.9297 34.3984 39.8828 34.5234C39.8359 34.6641 39.7812 34.7969 39.7188 34.9219C39.6875 35.0312 39.5547 35.0391 39.3203 34.9453C39.1953 34.8984 39.1016 34.8828 39.0391 34.8984C38.9922 34.8984 38.9531 34.9297 38.9219 34.9922C38.8125 35.1953 38.7109 35.3984 38.6172 35.6016C38.6016 35.6172 38.5938 35.6406 38.5938 35.6719C38.6094 35.6875 38.6172 35.7031 38.6172 35.7188C38.6328 35.7188 38.6406 35.7266 38.6406 35.7422C38.6719 35.8516 38.75 35.8828 38.875 35.8359C38.9375 35.8203 39.0078 35.8047 39.0859 35.7891C39.1797 35.7891 39.2578 35.7812 39.3203 35.7656C39.4609 35.7188 39.5469 35.7422 39.5781 35.8359C39.5938 35.8672 39.6016 35.8984 39.6016 35.9297C39.6172 35.9453 39.6172 35.9609 39.6016 35.9766C39.3672 36.4609 39.1094 36.9219 38.8281 37.3594C38.75 37.4688 38.6797 37.5781 38.6172 37.6875C38.4922 37.8594 38.3672 38.0312 38.2422 38.2031C38.1641 38.2812 38.0938 38.3672 38.0312 38.4609L37.7266 38.8594L37.4219 39.2109C37.3125 39.3203 37.2031 39.4375 37.0938 39.5625C37.0469 39.625 37 39.6875 36.9531 39.75C36.9844 39.9062 36.9766 40.0469 36.9297 40.1719C36.8984 40.2812 36.8438 40.3828 36.7656 40.4766C36.75 40.4922 36.7422 40.5156 36.7422 40.5469C36.7422 40.5781 36.75 40.6094 36.7656 40.6406C36.7656 40.6562 36.7734 40.6719 36.7891 40.6875C36.8203 40.6875 36.8438 40.6875 36.8594 40.6875C36.875 40.6875 36.8906 40.6797 36.9062 40.6641C36.9375 40.6484 36.9766 40.6328 37.0234 40.6172C37.1484 40.5391 37.2656 40.4453 37.375 40.3359C39.0312 38.6328 40.2734 36.6328 41.1016 34.3359C41.9141 32.0391 42.2656 29.6641 42.1562 27.2109C42.1562 27.1641 42.1484 27.1094 42.1328 27.0469C42.1328 26.9688 42.1328 26.8984 42.1328 26.8359C42.1328 26.7578 42.1484 26.6797 42.1797 26.6016C42.1953 26.5859 42.2109 26.5703 42.2266 26.5547C42.2578 26.5234 42.2812 26.5078 42.2969 26.5078C42.3281 26.5078 42.3594 26.5156 42.3906 26.5312C42.4219 26.5469 42.4375 26.5703 42.4375 26.6016C42.4375 26.7891 42.4453 26.9766 42.4609 27.1641C42.5078 27.6016 42.5312 28.0469 42.5312 28.5C42.5156 28.5781 42.5078 28.6641 42.5078 28.7578C42.5078 29.0859 42.4922 29.4219 42.4609 29.7656ZM19.4219 18.4688C19.4219 18.4531 19.4219 18.4297 19.4219 18.3984C19.4219 18.3672 19.4141 18.3438 19.3984 18.3281C19.3828 18.2812 19.3516 18.25 19.3047 18.2344C19.2578 18.2031 19.2109 18.2031 19.1641 18.2344C19.0234 18.3594 18.9141 18.5078 18.8359 18.6797C18.8203 18.6953 18.8125 18.7188 18.8125 18.75C18.8281 18.7812 18.8438 18.8125 18.8594 18.8438C18.8906 18.875 18.9219 18.8984 18.9531 18.9141C19 18.9297 19.0469 18.9219 19.0938 18.8906C19.1406 18.8594 19.1797 18.8125 19.2109 18.75C19.2266 18.7344 19.2422 18.7109 19.2578 18.6797C19.2734 18.6641 19.2891 18.6484 19.3047 18.6328C19.3516 18.5859 19.3906 18.5312 19.4219 18.4688ZM38.3359 36.1172C38.1797 36.3359 38.0391 36.5625 37.9141 36.7969C37.8984 36.8125 37.8984 36.8359 37.9141 36.8672C37.9297 36.8984 37.9453 36.9375 37.9609 36.9844C37.9922 37.0156 38.0234 37.0469 38.0547 37.0781C38.2578 37.2969 38.4219 37.3125 38.5469 37.125L38.6875 36.8906L38.8516 36.6328C38.9609 36.4453 38.8828 36.2812 38.6172 36.1406C38.5859 36.125 38.5469 36.1172 38.5 36.1172C38.4688 36.1016 38.4375 36.0938 38.4062 36.0938C38.375 36.0938 38.3516 36.1016 38.3359 36.1172ZM20.0078 38.9531C20.0703 38.9688 20.1328 38.9766 20.1953 38.9766C20.2266 38.9766 20.25 38.9766 20.2656 38.9766C20.2656 38.9453 20.2656 38.9141 20.2656 38.8828C20.2656 38.8203 20.2578 38.7578 20.2422 38.6953C20.2422 38.6797 20.2344 38.6641 20.2188 38.6484C20.2031 38.6172 20.1875 38.6016 20.1719 38.6016C20.1094 38.5859 20.0469 38.5781 19.9844 38.5781C19.9531 38.5781 19.9219 38.5781 19.8906 38.5781L19.9141 38.8594C19.9297 38.875 19.9375 38.8906 19.9375 38.9062C19.9531 38.9219 19.9609 38.9375 19.9609 38.9531C19.9766 38.9531 19.9922 38.9531 20.0078 38.9531ZM21.8594 40.6406C21.9219 40.6406 21.9844 40.6328 22.0469 40.6172C22.0625 40.6172 22.0859 40.6172 22.1172 40.6172L22.0469 40.3359C22.0312 40.3203 22.0234 40.3125 22.0234 40.3125C22.0078 40.2969 21.9922 40.2891 21.9766 40.2891C21.9609 40.2734 21.9453 40.2656 21.9297 40.2656C21.8828 40.2656 21.8281 40.2734 21.7656 40.2891C21.7344 40.2891 21.7031 40.2891 21.6719 40.2891C21.6719 40.3203 21.6797 40.3516 21.6953 40.3828C21.7109 40.4453 21.7266 40.5078 21.7422 40.5703C21.7578 40.6016 21.7734 40.625 21.7891 40.6406C21.8047 40.6406 21.8281 40.6406 21.8594 40.6406ZM30.7422 42.3516C30.7891 42.3203 30.8125 42.2812 30.8125 42.2344C30.8281 42.1875 30.8281 42.1406 30.8125 42.0938C30.7969 42.0625 30.7734 42.0391 30.7422 42.0234C30.7266 42.0078 30.7109 41.9922 30.6953 41.9766C30.6797 41.9766 30.6641 41.9766 30.6484 41.9766C30.6328 41.9766 30.6172 41.9766 30.6016 41.9766C30.6016 41.9922 30.5938 42 30.5781 42L30.3203 42.0469C30.2422 42.0625 30.1875 42.1016 30.1562 42.1641C30.125 42.2109 30.1172 42.2656 30.1328 42.3281C30.2109 42.4531 30.2891 42.4844 30.3672 42.4219C30.4141 42.4219 30.4531 42.4141 30.4844 42.3984C30.5781 42.3984 30.6641 42.3828 30.7422 42.3516ZM32.7344 41.6953C32.7812 41.6797 32.7969 41.6406 32.7812 41.5781C32.7812 41.5156 32.7656 41.4688 32.7344 41.4375C32.7188 41.4219 32.6953 41.4062 32.6641 41.3906C32.6484 41.3594 32.6328 41.3516 32.6172 41.3672C32.4922 41.3984 32.375 41.4453 32.2656 41.5078C32.2344 41.5234 32.1953 41.5391 32.1484 41.5547C32.0547 41.5859 31.9609 41.6172 31.8672 41.6484C31.7266 41.6797 31.5859 41.7266 31.4453 41.7891C31.3984 41.8047 31.375 41.8438 31.375 41.9062C31.375 41.9688 31.3828 42.0156 31.3984 42.0469C31.4297 42.0781 31.4531 42.1016 31.4688 42.1172C31.4844 42.1328 31.5 42.1406 31.5156 42.1406L32.1484 41.9766C32.3203 41.8984 32.4844 41.8203 32.6406 41.7422C32.6719 41.7266 32.7031 41.7109 32.7344 41.6953ZM35.6641 39.8906L36.2734 39.3516C36.3047 39.3203 36.3359 39.2812 36.3672 39.2344C36.4453 39.1406 36.5391 39.0625 36.6484 39C36.7578 38.9375 36.9062 38.9453 37.0938 39.0234C37.1406 38.9609 37.1875 38.9062 37.2344 38.8594C37.3906 38.7188 37.5234 38.5625 37.6328 38.3906C37.6328 38.375 37.625 38.3516 37.6094 38.3203C37.6094 38.2734 37.5938 38.2344 37.5625 38.2031C37.5469 38.1562 37.5312 38.1172 37.5156 38.0859C37.4219 37.9609 37.3281 37.8984 37.2344 37.8984C37.1406 37.8828 37.0703 37.9141 37.0234 37.9922C36.8359 38.2109 36.6406 38.4297 36.4375 38.6484C36.3438 38.7422 36.2422 38.8438 36.1328 38.9531L35.2656 39.7266C35.25 39.7578 35.2266 39.7812 35.1953 39.7969C35.1484 39.8281 35.1094 39.8594 35.0781 39.8906C35.0469 39.9375 35.0312 39.9922 35.0312 40.0547C35.0469 40.1016 35.0703 40.1406 35.1016 40.1719C35.1328 40.1875 35.1562 40.2031 35.1719 40.2188C35.2031 40.2188 35.2266 40.2188 35.2422 40.2188C35.3672 40.1406 35.4766 40.0547 35.5703 39.9609C35.6016 39.9297 35.6328 39.9062 35.6641 39.8906ZM41.2188 25.7578C41.2344 25.7734 41.25 25.7891 41.2656 25.8047C41.2969 25.8047 41.3203 25.8203 41.3359 25.8516C41.3516 25.9141 41.3594 25.9766 41.3594 26.0391C41.3594 26.0703 41.3672 26.1016 41.3828 26.1328C41.3828 26.1641 41.3828 26.1953 41.3828 26.2266C41.4141 26.2891 41.4219 26.3516 41.4062 26.4141C41.3906 26.4766 41.3594 26.5234 41.3125 26.5547C41.2656 26.5703 41.2266 26.5703 41.1953 26.5547C41.1641 26.5391 41.1328 26.5234 41.1016 26.5078C41.0859 26.4922 41.0703 26.4766 41.0547 26.4609C41.0547 26.4297 41.0547 26.4062 41.0547 26.3906C41.0078 26.2188 40.9922 26.0547 41.0078 25.8984C41.0078 25.8359 41.0312 25.7969 41.0781 25.7812C41.125 25.75 41.1719 25.7422 41.2188 25.7578ZM16.1641 26.1562C16.1953 26.1719 16.2188 26.1953 16.2344 26.2266C16.25 26.2422 16.2578 26.2578 16.2578 26.2734C16.2578 26.3359 16.2578 26.3984 16.2578 26.4609C16.2578 26.5859 16.2422 26.7109 16.2109 26.8359C16.1953 26.8828 16.1641 26.9141 16.1172 26.9297C16.0703 26.9453 16.0234 26.9453 15.9766 26.9297C15.9609 26.9141 15.9375 26.8984 15.9062 26.8828C15.8906 26.8516 15.8828 26.8281 15.8828 26.8125C15.8828 26.7344 15.8828 26.6562 15.8828 26.5781C15.8828 26.5625 15.8828 26.5469 15.8828 26.5312C15.8828 26.5 15.8906 26.4688 15.9062 26.4375C15.8906 26.3594 15.8984 26.2969 15.9297 26.25C15.9609 26.1875 16 26.1562 16.0469 26.1562C16.0938 26.1406 16.1328 26.1406 16.1641 26.1562ZM16.0703 28.1719C16.0859 28.1562 16.1016 28.1406 16.1172 28.125C16.1328 28.0938 16.1562 28.0781 16.1875 28.0781C16.2031 28.0781 16.2188 28.0938 16.2344 28.125C16.2656 28.1406 16.2891 28.1562 16.3047 28.1719C16.3203 28.1875 16.3359 28.2109 16.3516 28.2422C16.3516 28.2578 16.3594 28.2734 16.375 28.2891C16.375 28.3672 16.3594 28.4453 16.3281 28.5234C16.2969 28.6016 16.2578 28.6406 16.2109 28.6406C16.1797 28.6406 16.1484 28.6328 16.1172 28.6172C16.1016 28.5859 16.0938 28.5625 16.0938 28.5469C16.0469 28.4688 16.0234 28.3828 16.0234 28.2891C16.0234 28.2734 16.0234 28.2578 16.0234 28.2422C16.0391 28.2109 16.0547 28.1875 16.0703 28.1719Z" fill="#FFA17A"/>
</svg>
