<svg xmlns="http://www.w3.org/2000/svg" width="24" height="24" viewBox="0 0 24 24" fill="none">
  <mask id="mask0_293_3764" style="mask-type:luminance" maskUnits="userSpaceOnUse" x="0" y="0" width="24" height="24">
    <path d="M0 0H24V24H0V0Z" fill="white"/>
  </mask>
  <g mask="url(#mask0_293_3764)">
    <mask id="mask1_293_3764" style="mask-type:luminance" maskUnits="userSpaceOnUse" x="0" y="0" width="24" height="24">
      <path d="M12 0C12.1963 0 12.3925 0.00488599 12.5888 0.014658C12.785 0.0240228 12.9805 0.0386808 13.1759 0.0578176C13.3713 0.0769543 13.5664 0.100977 13.7606 0.129886C13.9548 0.158795 14.1482 0.192182 14.3408 0.230863C14.5334 0.269137 14.7252 0.311889 14.9157 0.359528C15.1063 0.407573 15.2952 0.459691 15.4833 0.516694C15.6714 0.573697 15.8575 0.635586 16.0423 0.701547C16.2276 0.767915 16.4108 0.838355 16.592 0.913681C16.7736 0.988599 16.9532 1.0684 17.1307 1.15228C17.3082 1.23616 17.4833 1.32451 17.6568 1.41694C17.8298 1.50977 18.0008 1.60627 18.169 1.70725C18.3375 1.80822 18.5033 1.91327 18.6665 2.02239C18.8298 2.13151 18.9906 2.24471 19.1482 2.36156C19.3062 2.47842 19.4609 2.59935 19.6128 2.72394C19.7642 2.84853 19.9129 2.97679 20.0586 3.10871C20.204 3.24064 20.3461 3.37581 20.4853 3.51466C20.6242 3.6535 20.7594 3.79601 20.8913 3.94137C21.0232 4.08673 21.1515 4.23575 21.2761 4.38721C21.4007 4.53909 21.5212 4.69381 21.6384 4.85179C21.7553 5.00936 21.8685 5.16979 21.9776 5.33306C22.0867 5.49634 22.1918 5.66246 22.2928 5.83103C22.3937 5.99919 22.4902 6.1702 22.5831 6.34324C22.6755 6.51669 22.7638 6.69177 22.8477 6.8693C22.9316 7.04682 23.0114 7.22638 23.0863 7.40798C23.1616 7.58917 23.2321 7.77239 23.2985 7.95725C23.3644 8.14251 23.4263 8.32858 23.4833 8.51669C23.5403 8.7048 23.5924 8.89373 23.6401 9.08428C23.6881 9.27484 23.7309 9.4662 23.7691 9.6592C23.8074 9.85179 23.8412 10.0452 23.8701 10.2394C23.8986 10.4336 23.9226 10.6283 23.9422 10.8237C23.9613 11.0191 23.976 11.215 23.9853 11.4112C23.9951 11.6075 24 11.8037 24 12C24 12.1967 23.9951 12.3929 23.9853 12.5888C23.976 12.785 23.9613 12.9809 23.9422 13.1763C23.9226 13.3717 23.8986 13.5668 23.8701 13.761C23.8412 13.9552 23.8074 14.1486 23.7691 14.3412C23.7309 14.5338 23.6881 14.7252 23.6401 14.9157C23.5924 15.1063 23.5403 15.2956 23.4833 15.4833C23.4263 15.6714 23.3644 15.8579 23.2985 16.0428C23.2321 16.2276 23.1616 16.4108 23.0863 16.5924C23.0114 16.7736 22.9316 16.9532 22.8477 17.1307C22.7638 17.3082 22.6755 17.4837 22.5831 17.6568C22.4902 17.8302 22.3937 18.0008 22.2928 18.1694C22.1918 18.3379 22.0867 18.5037 21.9776 18.6669C21.8685 18.8302 21.7553 18.9906 21.6384 19.1486C21.5212 19.3062 21.4007 19.4609 21.2761 19.6128C21.1515 19.7647 21.0232 19.9133 20.8913 20.0586C20.7594 20.2044 20.6242 20.3465 20.4853 20.4853C20.3461 20.6242 20.204 20.7598 20.0586 20.8917C19.9129 21.0232 19.7642 21.1515 19.6128 21.2761C19.4609 21.4007 19.3062 21.5216 19.1482 21.6384C18.9906 21.7557 18.8298 21.8685 18.6665 21.9776C18.5033 22.0867 18.3375 22.1918 18.169 22.2928C18.0008 22.3937 17.8298 22.4906 17.6568 22.5831C17.4833 22.6759 17.3082 22.7638 17.1307 22.8481C16.9532 22.932 16.7736 23.0114 16.592 23.0867C16.4108 23.1616 16.2276 23.2325 16.0423 23.2985C15.8575 23.3648 15.6714 23.4263 15.4833 23.4833C15.2952 23.5403 15.1063 23.5928 14.9157 23.6405C14.7252 23.6881 14.5334 23.7313 14.3408 23.7695C14.1482 23.8078 13.9548 23.8412 13.7606 23.8701C13.5664 23.899 13.3713 23.923 13.1759 23.9422C12.9805 23.9617 12.785 23.976 12.5888 23.9857C12.3925 23.9951 12.1963 24 12 24C11.8033 24 11.6071 23.9951 11.4112 23.9857C11.215 23.976 11.0191 23.9617 10.8237 23.9422C10.6283 23.923 10.4332 23.899 10.239 23.8701C10.0448 23.8412 9.85138 23.8078 9.65879 23.7695C9.4662 23.7313 9.27443 23.6881 9.08428 23.6405C8.89373 23.5928 8.7044 23.5403 8.51629 23.4833C8.32858 23.4263 8.1421 23.3648 7.95725 23.2985C7.77239 23.2325 7.58917 23.1616 7.40757 23.0867C7.22638 23.0114 7.04682 22.932 6.8693 22.8481C6.69177 22.7638 6.51629 22.6759 6.34324 22.5831C6.16979 22.4906 5.99919 22.3937 5.83062 22.2928C5.66205 22.1918 5.49634 22.0867 5.33306 21.9776C5.16979 21.8685 5.00936 21.7557 4.85138 21.6384C4.69381 21.5216 4.53909 21.4007 4.38721 21.2761C4.23534 21.1515 4.08673 21.0232 3.94096 20.8917C3.7956 20.7598 3.6535 20.6242 3.51466 20.4853C3.37581 20.3465 3.24023 20.2044 3.10831 20.0586C2.97638 19.9133 2.84853 19.7647 2.72394 19.6128C2.59935 19.4609 2.47842 19.3062 2.36156 19.1486C2.2443 18.9906 2.13151 18.8302 2.02239 18.6669C1.91327 18.5037 1.80822 18.3379 1.70725 18.1694C1.60627 18.0008 1.50936 17.8302 1.41694 17.6568C1.3241 17.4837 1.23616 17.3082 1.15187 17.1307C1.068 16.9532 0.988599 16.7736 0.913274 16.5924C0.838355 16.4108 0.767508 16.2276 0.70114 16.0428C0.635179 15.8579 0.573697 15.6714 0.516694 15.4833C0.45969 15.2956 0.407166 15.1063 0.359528 14.9157C0.311889 14.7252 0.26873 14.5338 0.230456 14.3412C0.192182 14.1486 0.158388 13.9552 0.129886 13.761C0.100977 13.5668 0.0769544 13.3717 0.0578176 13.1763C0.0382736 12.9809 0.0240228 12.785 0.0142508 12.5888C0.00488597 12.3929 0 12.1967 0 12C0 11.8037 0.00488597 11.6075 0.0142508 11.4112C0.0240228 11.215 0.0382736 11.0191 0.0578176 10.8237C0.0769544 10.6283 0.100977 10.4336 0.129886 10.2394C0.158388 10.0452 0.192182 9.85179 0.230456 9.6592C0.26873 9.4662 0.311889 9.27484 0.359528 9.08428C0.407166 8.89373 0.45969 8.7048 0.516694 8.51669C0.573697 8.32858 0.635179 8.14251 0.70114 7.95725C0.767508 7.77239 0.838355 7.58917 0.913274 7.40798C0.988599 7.22638 1.068 7.04682 1.15187 6.8693C1.23616 6.69177 1.3241 6.51669 1.41694 6.34324C1.50936 6.1702 1.60627 5.99919 1.70725 5.83103C1.80822 5.66246 1.91327 5.49634 2.02239 5.33306C2.13151 5.16979 2.2443 5.00936 2.36156 4.85179C2.47842 4.69381 2.59935 4.53909 2.72394 4.38721C2.84853 4.23575 2.97638 4.08673 3.10831 3.94137C3.24023 3.79601 3.37581 3.6535 3.51466 3.51466C3.6535 3.37581 3.7956 3.24064 3.94096 3.10871C4.08673 2.97679 4.23534 2.84853 4.38721 2.72394C4.53909 2.59935 4.69381 2.47842 4.85138 2.36156C5.00936 2.24471 5.16979 2.13151 5.33306 2.02239C5.49634 1.91327 5.66205 1.80822 5.83062 1.70725C5.99919 1.60627 6.16979 1.50977 6.34324 1.41694C6.51629 1.32451 6.69177 1.23616 6.8693 1.15228C7.04682 1.0684 7.22638 0.988599 7.40757 0.913681C7.58917 0.838355 7.77239 0.767915 7.95725 0.701547C8.1421 0.635586 8.32858 0.573697 8.51629 0.516694C8.7044 0.459691 8.89373 0.407573 9.08428 0.359528C9.27443 0.311889 9.4662 0.269137 9.65879 0.230863C9.85138 0.192182 10.0448 0.158795 10.239 0.129886C10.4332 0.100977 10.6283 0.0769543 10.8237 0.0578176C11.0191 0.0386808 11.215 0.0240228 11.4112 0.014658C11.6071 0.00488599 11.8033 0 12 0Z" fill="white"/>
    </mask>
    <g mask="url(#mask1_293_3764)">
      <path d="M0 0V24H24V0H0Z" fill="url(#paint0_linear_293_3764)"/>
    </g>
  </g>
  <path fill-rule="evenodd" clip-rule="evenodd" d="M12 5.647C8.49105 5.647 5.647 8.49146 5.647 12C5.647 13.6845 6.30253 15.2158 7.37216 16.3526C7.84162 15.4446 8.78951 14.8237 9.88234 14.8237H14.1177C15.2105 14.8237 16.158 15.4446 16.6275 16.3526C17.6975 15.2158 18.353 13.6845 18.353 12C18.353 8.49146 15.5086 5.647 12 5.647ZM15.4886 17.3103C15.3376 16.693 14.781 16.2354 14.1177 16.2354H9.88234C9.21866 16.2354 8.66206 16.693 8.511 17.3103C9.51222 17.9695 10.7113 18.353 12 18.353C13.2883 18.353 14.4874 17.9695 15.4886 17.3103ZM4.23535 12C4.23535 7.71174 7.71174 4.23535 12 4.23535C16.2883 4.23535 19.7647 7.71174 19.7647 12C19.7647 16.2883 16.2883 19.7647 12 19.7647C7.71174 19.7647 4.23535 16.2883 4.23535 12ZM12 8.47069C10.8302 8.47069 9.88234 9.41858 9.88234 10.5884C9.88234 11.7577 10.8302 12.706 12 12.706C13.1694 12.706 14.1177 11.7577 14.1177 10.5884C14.1177 9.41858 13.1694 8.47069 12 8.47069ZM8.47029 10.5884C8.47029 8.63926 10.0505 7.05905 12 7.05905C13.9491 7.05905 15.5293 8.63926 15.5293 10.5884C15.5293 12.5375 13.9491 14.1177 12 14.1177C10.0505 14.1177 8.47029 12.5375 8.47029 10.5884Z" fill="white"/>
  <defs>
    <linearGradient id="paint0_linear_293_3764" x1="3.79384" y1="-1.3603" x2="14.1532" y2="27.5308" gradientUnits="userSpaceOnUse">
      <stop stop-color="#8F00FF"/>
      <stop offset="0.125" stop-color="#8F00FF"/>
      <stop offset="0.140625" stop-color="#8F00FF"/>
      <stop offset="0.144531" stop-color="#9000FF"/>
      <stop offset="0.148437" stop-color="#9000FF"/>
      <stop offset="0.152344" stop-color="#9100FF"/>
      <stop offset="0.15625" stop-color="#9200FF"/>
      <stop offset="0.160156" stop-color="#9400FF"/>
      <stop offset="0.164062" stop-color="#9500FF"/>
      <stop offset="0.167969" stop-color="#9600FF"/>
      <stop offset="0.171875" stop-color="#9700FF"/>
      <stop offset="0.175781" stop-color="#9800FF"/>
      <stop offset="0.179688" stop-color="#9900FF"/>
      <stop offset="0.183594" stop-color="#9A00FF"/>
      <stop offset="0.1875" stop-color="#9B00FF"/>
      <stop offset="0.191406" stop-color="#9C00FF"/>
      <stop offset="0.195312" stop-color="#9D00FF"/>
      <stop offset="0.199219" stop-color="#9E00FF"/>
      <stop offset="0.203125" stop-color="#9F00FF"/>
      <stop offset="0.207031" stop-color="#A000FF"/>
      <stop offset="0.210937" stop-color="#A100FF"/>
      <stop offset="0.214844" stop-color="#A200FF"/>
      <stop offset="0.21875" stop-color="#A300FF"/>
      <stop offset="0.222656" stop-color="#A400FF"/>
      <stop offset="0.226562" stop-color="#A500FF"/>
      <stop offset="0.230469" stop-color="#A600FF"/>
      <stop offset="0.234375" stop-color="#A700FF"/>
      <stop offset="0.238281" stop-color="#A800FF"/>
      <stop offset="0.242187" stop-color="#A900FF"/>
      <stop offset="0.246094" stop-color="#AA00FF"/>
      <stop offset="0.25" stop-color="#AB00FF"/>
      <stop offset="0.253906" stop-color="#AC00FF"/>
      <stop offset="0.257812" stop-color="#AE00FF"/>
      <stop offset="0.261719" stop-color="#AF00FF"/>
      <stop offset="0.265625" stop-color="#B000FF"/>
      <stop offset="0.269531" stop-color="#B100FF"/>
      <stop offset="0.273437" stop-color="#B200FF"/>
      <stop offset="0.277344" stop-color="#B300FF"/>
      <stop offset="0.28125" stop-color="#B400FF"/>
      <stop offset="0.285156" stop-color="#B500FF"/>
      <stop offset="0.289062" stop-color="#B600FF"/>
      <stop offset="0.292969" stop-color="#B700FF"/>
      <stop offset="0.296875" stop-color="#B800FF"/>
      <stop offset="0.300781" stop-color="#B900FF"/>
      <stop offset="0.304688" stop-color="#BA00FF"/>
      <stop offset="0.308594" stop-color="#BB00FF"/>
      <stop offset="0.3125" stop-color="#BC00FF"/>
      <stop offset="0.316406" stop-color="#BD00FF"/>
      <stop offset="0.320312" stop-color="#BE00FF"/>
      <stop offset="0.324219" stop-color="#BF00FF"/>
      <stop offset="0.328125" stop-color="#C000FF"/>
      <stop offset="0.332031" stop-color="#C100FF"/>
      <stop offset="0.335938" stop-color="#C200FF"/>
      <stop offset="0.339844" stop-color="#C300FF"/>
      <stop offset="0.34375" stop-color="#C400FF"/>
      <stop offset="0.347656" stop-color="#C500FF"/>
      <stop offset="0.351562" stop-color="#C600FF"/>
      <stop offset="0.355469" stop-color="#C800FF"/>
      <stop offset="0.359375" stop-color="#C900FF"/>
      <stop offset="0.363281" stop-color="#CA00FF"/>
      <stop offset="0.367187" stop-color="#CB00FF"/>
      <stop offset="0.371094" stop-color="#CC00FF"/>
      <stop offset="0.375" stop-color="#CD00FF"/>
      <stop offset="0.378906" stop-color="#CE00FF"/>
      <stop offset="0.382812" stop-color="#CF00FF"/>
      <stop offset="0.386719" stop-color="#D000FF"/>
      <stop offset="0.390625" stop-color="#D100FF"/>
      <stop offset="0.394531" stop-color="#D200FF"/>
      <stop offset="0.398437" stop-color="#D300FF"/>
      <stop offset="0.402344" stop-color="#D400FF"/>
      <stop offset="0.40625" stop-color="#D500FF"/>
      <stop offset="0.410156" stop-color="#D600FF"/>
      <stop offset="0.414062" stop-color="#D700FF"/>
      <stop offset="0.417969" stop-color="#D800FF"/>
      <stop offset="0.421875" stop-color="#D900FF"/>
      <stop offset="0.425781" stop-color="#DA00FF"/>
      <stop offset="0.429687" stop-color="#DB00FE"/>
      <stop offset="0.433594" stop-color="#DB02FC"/>
      <stop offset="0.4375" stop-color="#DC04FA"/>
      <stop offset="0.441406" stop-color="#DC06F8"/>
      <stop offset="0.445312" stop-color="#DC07F5"/>
      <stop offset="0.449219" stop-color="#DD09F3"/>
      <stop offset="0.453125" stop-color="#DD0BF1"/>
      <stop offset="0.457031" stop-color="#DD0DEF"/>
      <stop offset="0.460938" stop-color="#DE0EED"/>
      <stop offset="0.464844" stop-color="#DE10EA"/>
      <stop offset="0.46875" stop-color="#DE12E8"/>
      <stop offset="0.472656" stop-color="#DF14E6"/>
      <stop offset="0.476562" stop-color="#DF15E4"/>
      <stop offset="0.480469" stop-color="#DF17E1"/>
      <stop offset="0.484375" stop-color="#E019DF"/>
      <stop offset="0.488281" stop-color="#E01BDD"/>
      <stop offset="0.492187" stop-color="#E01CDB"/>
      <stop offset="0.496094" stop-color="#E01ED8"/>
      <stop offset="0.5" stop-color="#E120D6"/>
      <stop offset="0.503906" stop-color="#E122D4"/>
      <stop offset="0.507812" stop-color="#E123D2"/>
      <stop offset="0.511719" stop-color="#E225CF"/>
      <stop offset="0.515625" stop-color="#E227CD"/>
      <stop offset="0.519531" stop-color="#E229CB"/>
      <stop offset="0.523438" stop-color="#E32AC9"/>
      <stop offset="0.527344" stop-color="#E32CC7"/>
      <stop offset="0.53125" stop-color="#E32EC4"/>
      <stop offset="0.535156" stop-color="#E430C2"/>
      <stop offset="0.539062" stop-color="#E431C0"/>
      <stop offset="0.542969" stop-color="#E433BE"/>
      <stop offset="0.546875" stop-color="#E535BB"/>
      <stop offset="0.550781" stop-color="#E537B9"/>
      <stop offset="0.554688" stop-color="#E538B7"/>
      <stop offset="0.558594" stop-color="#E63AB5"/>
      <stop offset="0.5625" stop-color="#E63CB2"/>
      <stop offset="0.566406" stop-color="#E63EB0"/>
      <stop offset="0.570312" stop-color="#E63FAE"/>
      <stop offset="0.574219" stop-color="#E741AC"/>
      <stop offset="0.578125" stop-color="#E743A9"/>
      <stop offset="0.582031" stop-color="#E744A7"/>
      <stop offset="0.585937" stop-color="#E846A5"/>
      <stop offset="0.589844" stop-color="#E848A3"/>
      <stop offset="0.59375" stop-color="#E84AA0"/>
      <stop offset="0.597656" stop-color="#E94B9E"/>
      <stop offset="0.601562" stop-color="#E94D9C"/>
      <stop offset="0.605469" stop-color="#E94F9A"/>
      <stop offset="0.609375" stop-color="#EA5198"/>
      <stop offset="0.613281" stop-color="#EA5295"/>
      <stop offset="0.617187" stop-color="#EA5493"/>
      <stop offset="0.621094" stop-color="#EB5691"/>
      <stop offset="0.625" stop-color="#EB588F"/>
      <stop offset="0.628906" stop-color="#EB598C"/>
      <stop offset="0.632812" stop-color="#EC5B8A"/>
      <stop offset="0.636719" stop-color="#EC5D88"/>
      <stop offset="0.640625" stop-color="#EC5F86"/>
      <stop offset="0.644531" stop-color="#EC6083"/>
      <stop offset="0.648438" stop-color="#ED6281"/>
      <stop offset="0.652344" stop-color="#ED647F"/>
      <stop offset="0.65625" stop-color="#ED667D"/>
      <stop offset="0.660156" stop-color="#EE677A"/>
      <stop offset="0.664062" stop-color="#EE6978"/>
      <stop offset="0.667969" stop-color="#EE6B76"/>
      <stop offset="0.671875" stop-color="#EF6D74"/>
      <stop offset="0.675781" stop-color="#EF6E72"/>
      <stop offset="0.679688" stop-color="#EF706F"/>
      <stop offset="0.683594" stop-color="#F0726D"/>
      <stop offset="0.6875" stop-color="#F0746B"/>
      <stop offset="0.691406" stop-color="#F07569"/>
      <stop offset="0.695312" stop-color="#F17766"/>
      <stop offset="0.699219" stop-color="#F17964"/>
      <stop offset="0.703125" stop-color="#F17B62"/>
      <stop offset="0.707031" stop-color="#F27C60"/>
      <stop offset="0.710937" stop-color="#F27E5D"/>
      <stop offset="0.714844" stop-color="#F2805B"/>
      <stop offset="0.71875" stop-color="#F28259"/>
      <stop offset="0.722656" stop-color="#F38357"/>
      <stop offset="0.726562" stop-color="#F38554"/>
      <stop offset="0.730469" stop-color="#F38752"/>
      <stop offset="0.734375" stop-color="#F48950"/>
      <stop offset="0.738281" stop-color="#F48A4E"/>
      <stop offset="0.742187" stop-color="#F48C4C"/>
      <stop offset="0.746094" stop-color="#F58E49"/>
      <stop offset="0.75" stop-color="#F58F47"/>
      <stop offset="0.753906" stop-color="#F59145"/>
      <stop offset="0.757812" stop-color="#F69343"/>
      <stop offset="0.761719" stop-color="#F69540"/>
      <stop offset="0.765625" stop-color="#F6963E"/>
      <stop offset="0.769531" stop-color="#F7983C"/>
      <stop offset="0.773438" stop-color="#F79A3A"/>
      <stop offset="0.777344" stop-color="#F79C37"/>
      <stop offset="0.78125" stop-color="#F89D35"/>
      <stop offset="0.785156" stop-color="#F89F33"/>
      <stop offset="0.789062" stop-color="#F8A131"/>
      <stop offset="0.792969" stop-color="#F8A32E"/>
      <stop offset="0.796875" stop-color="#F9A42C"/>
      <stop offset="0.800781" stop-color="#F9A62A"/>
      <stop offset="0.804687" stop-color="#F9A828"/>
      <stop offset="0.808594" stop-color="#FAAA25"/>
      <stop offset="0.8125" stop-color="#FAAB23"/>
      <stop offset="0.816406" stop-color="#FAAD21"/>
      <stop offset="0.820312" stop-color="#FBAF1F"/>
      <stop offset="0.824219" stop-color="#FBB11D"/>
      <stop offset="0.828125" stop-color="#FBB21A"/>
      <stop offset="0.832031" stop-color="#FCB418"/>
      <stop offset="0.835937" stop-color="#FCB616"/>
      <stop offset="0.839844" stop-color="#FCB814"/>
      <stop offset="0.84375" stop-color="#FDB911"/>
      <stop offset="0.847656" stop-color="#FDBB0F"/>
      <stop offset="0.851562" stop-color="#FDBD0D"/>
      <stop offset="0.855469" stop-color="#FDBF0B"/>
      <stop offset="0.859375" stop-color="#FEC008"/>
      <stop offset="0.863281" stop-color="#FEC206"/>
      <stop offset="0.867187" stop-color="#FEC404"/>
      <stop offset="0.871094" stop-color="#FFC603"/>
      <stop offset="0.875" stop-color="#FFC702"/>
      <stop offset="0.878906" stop-color="#FFCA0C"/>
      <stop offset="0.882812" stop-color="#FFCC16"/>
      <stop offset="0.886719" stop-color="#FFCE1F"/>
      <stop offset="0.890625" stop-color="#FFD029"/>
      <stop offset="0.894531" stop-color="#FFD232"/>
      <stop offset="0.898437" stop-color="#FFD43C"/>
      <stop offset="0.902344" stop-color="#FFD646"/>
      <stop offset="0.90625" stop-color="#FFD84F"/>
      <stop offset="0.910156" stop-color="#FFDA59"/>
      <stop offset="0.914062" stop-color="#FFDD63"/>
      <stop offset="0.917969" stop-color="#FFDF6C"/>
      <stop offset="0.921875" stop-color="#FFE176"/>
      <stop offset="0.925781" stop-color="#FFE380"/>
      <stop offset="0.929687" stop-color="#FFE589"/>
      <stop offset="0.933594" stop-color="#FFE793"/>
      <stop offset="0.9375" stop-color="#FFE99C"/>
      <stop offset="0.941406" stop-color="#FFEBA6"/>
      <stop offset="0.945313" stop-color="#FFEEB0"/>
      <stop offset="0.949219" stop-color="#FFF0B9"/>
      <stop offset="0.953125" stop-color="#FFF2C3"/>
      <stop offset="0.957031" stop-color="#FFF4CD"/>
      <stop offset="0.960938" stop-color="#FFF6D6"/>
      <stop offset="0.964844" stop-color="#FFF8E0"/>
      <stop offset="0.96875" stop-color="#FFFAE9"/>
      <stop offset="0.972656" stop-color="#FFFCF3"/>
      <stop offset="0.976562" stop-color="#FFFFFD"/>
      <stop offset="0.980469" stop-color="#FFFFFE"/>
      <stop offset="0.984375" stop-color="white"/>
      <stop offset="1" stop-color="white"/>
    </linearGradient>
  </defs>
</svg>